<svg preserveAspectRatio="none" width="1440" height="1037" viewBox="0 0 1440 1037" fill="none" xmlns="http://www.w3.org/2000/svg">
<path d="M0.00012207 1037L0.000208374 49.7973C59.6416 10.4594 230.415 -14.9598 352.5 9.79141C365.197 12.0611 378.847 15.1944 394.335 18.7494C487.684 40.1775 647.798 76.931 1068.5 32.3046C1342.51 3.23888 1440 65.3082 1440 65.3082L1440 1037L0.00012207 1037Z" fill="#00C2FF"/>
<path d="M1396.38 1127C1159.44 1127 674 625.046 674 388.043C674 151.04 1255.86 111 1492.8 111C1729.74 111 1496.22 283.983 1496.22 520.985C1496.22 694.649 1501.43 921.203 1512.6 1048.78C1517.87 1108.99 1459.7 1127 1396.38 1127Z" fill="white" fill-opacity="0.35"/>
</svg>
