<svg preserveAspectRatio="none" width="1440" height="778" viewBox="0 0 1440 778" fill="none" xmlns="http://www.w3.org/2000/svg">
<rect y="1" width="1440" height="777" fill="#00C2FF"/>
<path d="M147.22 440.979C-95.1416 194.681 -93.575 44.3688 -25.7525 0H1438.51L1516 38.611C1465.01 234.037 1308.83 588.107 1092.07 440.979C821.111 257.068 450.171 748.851 147.22 440.979Z" fill="white" fill-opacity="0.35"/>
<path d="M1305.37 296.139H1068.25C1038.3 296.139 1122.32 289.899 1168.5 279.503C1214.68 269.108 1218.42 265.775 1233.81 277.007C1249.2 288.239 1294.96 263.279 1317.01 278.255C1339.06 293.231 1344.88 296.139 1305.37 296.139Z" fill="#FAFAFA"/>
<path d="M156.961 339.139H394.081C424.033 339.139 340.005 332.899 293.829 322.503C247.653 312.108 243.909 308.775 228.521 320.007C213.133 331.239 167.369 306.279 145.317 321.255C123.265 336.231 117.449 339.139 156.961 339.139Z" fill="#FAFAFA"/>
<path d="M976.707 336.275C1006.29 336.275 1062.73 333.867 1040.09 323.895C1017.45 313.924 1000.69 333.879 990.81 325.405C980.926 316.931 964.926 315.746 951.648 323.895C938.369 332.044 942.313 319.365 926.301 323.895C903.837 330.247 831.902 336.275 893.129 336.275H976.707Z" fill="#FAFAFA"/>
<path d="M485.621 379.275C456.044 379.275 399.597 376.867 422.235 366.895C444.874 356.924 461.635 376.879 471.519 368.405C481.403 359.931 497.402 358.746 510.681 366.895C523.96 375.044 520.016 362.365 536.028 366.895C558.492 373.247 630.427 379.275 569.2 379.275H485.621Z" fill="#FAFAFA"/>
<path d="M1226.41 586.603C1249 586.603 1292.09 584.756 1274.8 577.156C1257.52 569.555 1244.73 584.756 1237.19 578.304C1229.65 571.852 1217.42 570.928 1207.24 577.156C1197.05 583.383 1200.11 573.699 1187.88 577.156C1170.77 581.998 1115.82 586.603 1162.56 586.603H1226.41Z" fill="#FAFAFA"/>
<path d="M235.921 486.603C213.333 486.603 170.239 484.756 187.524 477.156C204.809 469.555 217.601 484.756 225.139 478.304C232.677 471.852 244.907 470.928 255.091 477.156C265.274 483.383 262.217 473.699 274.447 477.156C291.557 481.998 346.507 486.603 299.769 486.603H235.921Z" fill="#FAFAFA"/>
</svg>
