<svg width="1440" height="900" viewBox="0 0 1440 900" fill="none" xmlns="http://www.w3.org/2000/svg">
<path d="M0 90H1440V900H0V90Z" fill="#00C2FF"/>
<path d="M675.352 543.099C692.598 345.937 1145.73 -21.4544 1343 -4.19908C1540.27 13.0562 1531.25 500.139 1514 697.301C1496.75 894.462 1369.77 687.556 1172.5 670.3C1027.95 657.657 839 645.5 732 645.5C681.5 645.5 670.743 595.79 675.352 543.099Z" fill="white" fill-opacity="0.35"/>
<path d="M1213.89 654.034H1189.94V654.346H1213.89V654.034Z" fill="#EBEBEB"/>
<path d="M833.391 656.131H825.491V656.443H833.391V656.131Z" fill="#EBEBEB"/>
<path d="M1024.26 511.044C1054.24 506.177 1074.6 477.926 1069.74 447.943C1064.87 417.96 1036.62 397.6 1006.64 402.466C976.653 407.333 956.292 435.585 961.159 465.568C966.026 495.55 994.277 515.911 1024.26 511.044Z" fill="#F1E069"/>
<path d="M1029.46 489.036C1039.86 480.712 1070.65 480.3 1085.2 492.78C1099.75 505.26 1119.73 525.64 1126.81 528.136C1133.88 530.632 1157.45 521.484 1176.45 519.4C1195.46 517.316 1202.94 536.872 1210 547.692C1217.06 558.512 1224.56 558.924 1227.9 573.064C1231.23 587.204 1237.46 597.612 1247.03 609.256C1256.6 620.9 1284.47 636.712 1287.38 645.535H980.368L977.048 525.228C985.31 516.904 1019.01 497.36 1029.46 489.036Z" fill="#F6F6F6"/>
<path d="M783.945 536.872C790.397 530.357 811.251 526.064 823.195 500.268C835.138 474.472 874.363 420.808 889.339 413.382C904.315 405.957 920.876 373.446 926.866 368.816C932.856 364.186 940.594 376.716 942.666 384.204C948.057 403.248 973.866 457.424 989.216 467.82C1004.57 478.216 1005.64 500.68 1009.92 513.584C1014.2 526.488 1040.45 533.964 1046.41 550.6C1052.38 567.236 1118.8 645.535 1118.8 645.535H732C751.743 631.196 759.097 561.969 783.945 536.872Z" fill="#F6F6F6"/>
<path d="M927.49 386.7C927.49 393.103 925.556 422.755 918.891 429.968C912.227 437.182 918.105 421.095 906.848 429.968C895.591 438.842 890.624 457.137 871.742 463.527C852.86 469.917 854.557 453.818 863.705 444.657C872.853 435.497 883.673 419.423 892.284 414.705C900.895 409.988 927.49 367.007 927.49 386.7Z" fill="#FAFAFA"/>
<path d="M880.952 519.263C889.925 506.858 849.615 521.21 837.409 516.767C825.204 512.324 834.639 506.234 816.88 521.759C799.121 537.284 768.357 552.272 784.993 557.539C801.629 562.805 864.254 542.288 880.952 519.263Z" fill="#F0F0F0"/>
<path d="M1110.73 525.44C1103.84 517.203 1095.97 501.728 1085.77 499.02C1075.58 496.312 1068.73 494.652 1070.8 500.892C1072.87 507.132 1121.47 538.245 1110.73 525.44Z" fill="#FAFAFA"/>
<path d="M1222.37 569.744C1220.6 563.966 1215.15 564.128 1210.37 554.968C1205.59 545.808 1198.52 530.22 1186.86 529.596C1175.21 528.972 1156.76 533.552 1172.31 545.196C1187.86 556.84 1228.53 589.912 1222.37 569.744Z" fill="#FAFAFA"/>
<path d="M1199.82 304.894H962.696C932.744 304.894 1016.77 298.654 1062.95 288.258C1109.12 277.862 1112.87 274.53 1128.26 285.762C1143.64 296.994 1189.41 272.034 1211.46 287.01C1233.51 301.986 1239.33 304.894 1199.82 304.894Z" fill="#FAFAFA"/>
<path d="M871.155 345.03C900.733 345.03 957.18 342.621 934.541 332.649C911.902 322.678 895.142 342.633 885.258 334.16C875.373 325.686 859.374 324.5 846.095 332.649C832.817 340.799 836.76 328.119 820.748 332.649C798.284 339.002 726.35 345.03 787.577 345.03H871.155Z" fill="#FAFAFA"/>
<path d="M1120.86 452.358C1143.44 452.358 1186.54 450.51 1169.25 442.91C1151.97 435.31 1139.18 450.51 1131.64 444.058C1124.1 437.606 1111.87 436.683 1101.69 442.91C1091.5 449.138 1094.56 439.453 1082.33 442.91C1065.22 447.752 1010.27 452.358 1057.01 452.358H1120.86Z" fill="#FAFAFA"/>
<path d="M989.603 685.097C1005.24 685.097 1017.92 659.987 1017.92 629.012C1017.92 598.037 1005.24 572.927 989.603 572.927H953.336V685.097H989.603Z" fill="#263238"/>
<path d="M953.149 685.097C968.788 685.097 981.466 659.987 981.466 629.012C981.466 598.037 968.788 572.927 953.149 572.927C937.51 572.927 924.832 598.037 924.832 629.012C924.832 659.987 937.51 685.097 953.149 685.097Z" fill="#263238"/>
<path d="M1197.23 685.097C1212.87 685.097 1225.54 659.987 1225.54 629.012C1225.54 598.037 1212.92 572.927 1197.23 572.927H1160.9V685.097H1197.23Z" fill="#263238"/>
<path d="M1160.77 685.097C1176.4 685.097 1189.08 659.987 1189.08 629.012C1189.08 598.037 1176.4 572.927 1160.77 572.927C1145.13 572.927 1132.45 598.037 1132.45 629.012C1132.45 659.987 1145.13 685.097 1160.77 685.097Z" fill="#263238"/>
<path d="M804 656.855L784.606 652.075C781.325 651.272 778.259 649.759 775.624 647.644C772.989 645.529 770.85 642.863 769.356 639.832C768.033 637.158 766.207 634.764 763.977 632.781L759.209 628.538C756.487 626.114 754.374 623.082 753.043 619.688C751.711 616.295 751.199 612.635 751.547 609.007L754.168 581.551C754.607 576.947 756.412 572.581 759.352 569.011C762.292 565.442 766.232 562.833 770.666 561.52L784.531 557.427L834.551 553.857L804 656.855Z" fill="#9C2D17"/>
<path d="M846.295 685.097C861.932 685.097 874.612 659.987 874.612 629.012C874.612 598.037 861.932 572.927 846.295 572.927H809.978V685.097H846.295Z" fill="#263238"/>
<path d="M809.841 685.097C825.48 685.097 838.158 659.987 838.158 629.012C838.158 598.037 825.48 572.927 809.841 572.927C794.202 572.927 781.524 598.037 781.524 629.012C781.524 659.987 794.202 685.097 809.841 685.097Z" fill="#263238"/>
<path d="M809.841 673.341C820.814 673.341 829.709 653.494 829.709 629.012C829.709 604.53 820.814 584.683 809.841 584.683C798.868 584.683 789.973 604.53 789.973 629.012C789.973 653.494 798.868 673.341 809.841 673.341Z" fill="white"/>
<path d="M1097.17 656.855L1146.06 547.58C1146.06 547.58 1072.91 493.117 980.081 493.117C829.634 493.117 834.801 513.397 784.457 557.427L806.434 572.927C845.534 572.927 848.791 634.903 855.043 652.337C855.511 653.658 856.376 654.802 857.52 655.611C858.665 656.421 860.032 656.855 861.433 656.855H1097.17Z" fill="#9C2D17"/>
<path d="M1053.92 685.097C1069.56 685.097 1082.23 659.987 1082.23 629.012C1082.23 598.037 1069.56 572.927 1053.92 572.927H1017.6V685.097H1053.92Z" fill="#263238"/>
<path d="M1017.46 685.097C1033.1 685.097 1045.78 659.987 1045.78 629.012C1045.78 598.037 1033.1 572.927 1017.46 572.927C1001.82 572.927 989.141 598.037 989.141 629.012C989.141 659.987 1001.82 685.097 1017.46 685.097Z" fill="#263238"/>
<path d="M1017.46 673.341C1028.43 673.341 1037.33 653.494 1037.33 629.012C1037.33 604.53 1028.43 584.683 1017.46 584.683C1006.49 584.683 997.59 604.53 997.59 629.012C997.59 653.494 1006.49 673.341 1017.46 673.341Z" fill="white"/>
<path d="M1067.99 647.832C1063.48 627.365 1041.94 572.952 1016.12 572.952L988.143 547.542H1146.06C1157 547.542 1205.56 554.257 1233.08 572.889C1255.3 587.94 1258.04 610.791 1261.23 644.175C1261.89 650.989 1255.93 656.842 1248.39 656.855C1185.11 656.855 1108.54 657.092 1080.66 657.179C1074.5 657.242 1069.2 653.31 1067.99 647.832Z" fill="#9C2D17"/>
<path opacity="0.8" d="M1134.65 547.58H1031.7C1029.32 547.59 1026.97 547.016 1024.86 545.908C1022.75 544.801 1020.95 543.194 1019.6 541.228C1008.15 524.255 987.868 507.058 973.004 498.908C1077.09 498.908 1134.65 547.58 1134.65 547.58Z" fill="white"/>
<path opacity="0.8" d="M970.458 504.012C982.938 513.048 997.14 527.05 1005.12 540.966C1005.5 541.629 1005.71 542.383 1005.71 543.15C1005.72 543.918 1005.52 544.674 1005.14 545.342C1004.76 546.01 1004.21 546.567 1003.55 546.957C1002.89 547.348 1002.14 547.558 1001.37 547.567H832.654C814.758 547.567 820.698 502.989 914.186 499.644C922.997 498.883 943.539 498.858 954.896 498.908C960.49 498.938 965.933 500.724 970.458 504.012Z" fill="white"/>
<path d="M1085.84 632.556L1139.91 636.637C1140.76 636.7 1141.54 637.08 1142.12 637.701C1142.69 638.321 1143.01 639.136 1143.01 639.982V643.726C1143.01 644.613 1142.65 645.463 1142.03 646.091C1141.4 646.718 1140.55 647.07 1139.66 647.07H1085.62C1084.74 647.07 1083.88 646.718 1083.25 646.091C1082.63 645.465 1082.27 644.614 1082.27 643.726V635.951C1082.26 635.488 1082.35 635.029 1082.53 634.603C1082.71 634.177 1082.98 633.793 1083.31 633.474C1083.65 633.155 1084.04 632.909 1084.48 632.751C1084.91 632.593 1085.37 632.527 1085.84 632.556Z" fill="#263238"/>
<path d="M1257.72 633.305L1242.87 636.3C1242.11 636.45 1241.43 636.86 1240.94 637.458C1240.44 638.057 1240.18 638.808 1240.18 639.582V643.638C1240.18 644.079 1240.26 644.515 1240.43 644.921C1240.6 645.328 1240.85 645.697 1241.16 646.008C1241.47 646.319 1241.84 646.565 1242.25 646.732C1242.66 646.899 1243.09 646.985 1243.53 646.983H1259.26C1259.73 646.985 1260.2 646.886 1260.63 646.692C1261.07 646.499 1261.45 646.216 1261.77 645.862C1262.08 645.508 1262.32 645.091 1262.46 644.639C1262.6 644.187 1262.65 643.71 1262.59 643.239L1261.75 636.2C1261.7 635.736 1261.55 635.289 1261.31 634.886C1261.08 634.484 1260.76 634.135 1260.38 633.862C1260 633.59 1259.57 633.4 1259.11 633.304C1258.65 633.208 1258.18 633.208 1257.72 633.305Z" fill="#263238"/>
<path opacity="0.8" d="M1130.34 569.632L1054.84 565.963C1054.84 565.963 1054.06 579.341 1082.04 582.187C1099.11 583.751 1116.19 579.311 1130.34 569.632Z" fill="white"/>
<path opacity="0.3" d="M754.155 581.538C754.366 579.344 754.892 577.192 755.715 575.148L760.832 574.999C760.832 574.999 761.069 594.63 753.656 593.394C753.448 593.362 753.244 593.312 753.044 593.244L754.155 581.538Z" fill="#131313"/>
<path opacity="0.8" d="M1225.64 568.434C1228.19 569.802 1230.66 571.297 1233.06 572.914C1236.71 575.357 1240.04 578.241 1242.98 581.501C1241.93 581.801 1240.86 582.042 1239.78 582.225C1223.02 585.107 1210.84 569.632 1210.84 569.632L1225.64 568.434Z" fill="white"/>
<path d="M1153.73 590.723H1207.15C1209.03 590.734 1210.85 591.317 1212.38 592.396L1221.72 598.948C1222.78 599.682 1223.67 600.628 1224.35 601.725C1225.03 602.823 1225.47 604.048 1225.65 605.325L1228.03 623.009C1228.21 624.153 1228.14 625.323 1227.82 626.436C1227.5 627.549 1226.94 628.578 1226.18 629.453C1225.42 630.327 1224.48 631.026 1223.42 631.499C1222.36 631.973 1221.22 632.21 1220.06 632.194H1162.92C1161.22 632.171 1159.55 631.682 1158.1 630.78C1156.64 629.879 1155.47 628.599 1154.69 627.077L1144.02 606.273C1143.25 604.856 1142.9 603.246 1143.02 601.638C1143.14 600.029 1143.72 598.489 1144.69 597.2L1147.36 593.768C1148.12 592.807 1149.09 592.032 1150.19 591.504C1151.29 590.976 1152.5 590.709 1153.73 590.723Z" fill="#263238"/>
<path opacity="0.1" d="M872.091 633.866H976.574C976.92 633.865 977.263 633.936 977.581 634.074C977.898 634.213 978.183 634.416 978.418 634.671C978.653 634.925 978.832 635.226 978.944 635.554C979.057 635.882 979.099 636.229 979.07 636.575L978.533 642.652C978.477 643.275 978.189 643.853 977.727 644.274C977.265 644.694 976.662 644.926 976.037 644.924H871.542C871.196 644.925 870.853 644.854 870.535 644.716C870.218 644.577 869.933 644.374 869.698 644.119C869.463 643.864 869.284 643.564 869.172 643.236C869.059 642.908 869.017 642.561 869.046 642.215L869.583 636.125C869.642 635.503 869.933 634.926 870.397 634.507C870.862 634.089 871.466 633.86 872.091 633.866Z" fill="#131313"/>
<path d="M905.4 498.908L911.653 497.697L898.861 553.857H892.87L905.4 498.908Z" fill="#9C2D17"/>
<path d="M928.226 560.172H906.823L906.274 562.419C906.106 562.912 906.062 563.439 906.145 563.953C906.227 564.468 906.435 564.954 906.748 565.37C907.062 565.786 907.473 566.119 907.945 566.34C908.417 566.561 908.936 566.663 909.456 566.637H922.398C923.609 566.58 924.77 566.141 925.716 565.383C926.662 564.626 927.344 563.588 927.664 562.419L928.226 560.172Z" fill="#263238"/>
<path d="M854.607 560.172H833.216L832.667 562.419C832.499 562.912 832.455 563.439 832.538 563.953C832.62 564.468 832.828 564.954 833.141 565.37C833.455 565.786 833.866 566.119 834.338 566.34C834.81 566.561 835.329 566.663 835.849 566.637H848.791C850.002 566.58 851.163 566.141 852.109 565.383C853.055 564.626 853.737 563.588 854.057 562.419L854.607 560.172Z" fill="#263238"/>
<path opacity="0.1" d="M896.502 626.603C896.316 626.603 896.136 626.53 896.003 626.399C895.87 626.268 895.794 626.091 895.791 625.904L894.218 552.372C894.218 552.183 894.29 552.001 894.421 551.864C894.551 551.727 894.728 551.645 894.917 551.636C895.104 551.636 895.283 551.709 895.416 551.84C895.549 551.97 895.625 552.148 895.628 552.335L897.176 625.879C897.176 626.067 897.103 626.247 896.973 626.382C896.843 626.518 896.665 626.597 896.477 626.603H896.502Z" fill="#131313"/>
<path d="M938.859 680.205L931.483 680.093L929.362 662.995L936.738 663.107L938.859 680.205Z" fill="#FF8B7B"/>
<path d="M893.969 680.03L887.229 676.274L892.259 660.412L898.998 664.168L893.969 680.03Z" fill="#FF8B7B"/>
<path d="M886.593 675.388L894.405 679.83C894.533 679.899 894.633 680.01 894.688 680.145C894.742 680.279 894.748 680.428 894.705 680.567L892.733 686.994C892.685 687.15 892.602 687.293 892.49 687.412C892.378 687.531 892.24 687.623 892.087 687.681C891.934 687.739 891.77 687.761 891.607 687.746C891.445 687.73 891.288 687.678 891.148 687.593C888.652 686.133 886.905 684.935 883.735 683.138C881.788 682.039 875.798 678.907 873.114 677.384C870.431 675.862 871.579 672.991 872.815 673.378C878.369 675.101 882.936 675.725 885.295 675.2C885.736 675.098 886.199 675.165 886.593 675.388Z" fill="#263238"/>
<path d="M931.334 679.244L939.383 679.369C939.53 679.369 939.673 679.42 939.787 679.513C939.9 679.607 939.978 679.736 940.007 679.881L941.355 686.458C941.383 686.613 941.376 686.772 941.334 686.924C941.293 687.077 941.218 687.217 941.115 687.337C941.012 687.457 940.884 687.552 940.74 687.615C940.596 687.679 940.439 687.71 940.282 687.706C937.374 687.618 933.181 687.381 929.536 687.319C925.268 687.256 921.574 687.431 916.57 687.319C913.55 687.319 912.826 684.199 914.074 683.937C919.864 682.764 924.569 682.689 929.599 679.706C930.125 679.399 930.724 679.24 931.334 679.244Z" fill="#263238"/>
<path d="M927.852 463.989C923.625 467.448 919.217 470.681 914.648 473.674C912.352 475.159 910.018 476.631 907.535 477.979C904.938 479.45 902.21 480.674 899.385 481.636C898.542 481.905 897.684 482.122 896.814 482.285C896.34 482.372 895.791 482.435 895.267 482.485C894.673 482.534 894.076 482.534 893.482 482.485C892.174 482.378 890.9 482.009 889.738 481.399C888.626 480.806 887.636 480.01 886.818 479.053C885.556 477.537 884.629 475.772 884.097 473.873C883.666 472.339 883.378 470.768 883.236 469.181C882.859 463.502 883.403 457.8 884.846 452.295L890.325 453.057C890.299 458.015 890.785 462.962 891.772 467.821C892.007 468.848 892.337 469.85 892.758 470.816C893.004 471.464 893.392 472.048 893.894 472.526C894.044 472.625 894.106 472.613 894.119 472.526C894.131 472.438 894.119 472.463 894.119 472.438C894.751 472.299 895.369 472.103 895.966 471.852C898.093 470.933 900.142 469.844 902.093 468.594C904.19 467.346 906.299 465.886 908.333 464.414C912.502 461.493 916.707 458.348 920.713 455.253L927.852 463.989Z" fill="#FF8B7B"/>
<path d="M930.098 460.594C926.741 468.17 913.799 476.007 906.623 479.314C904.502 480.288 904.776 483.133 903.516 481.898C903.516 481.898 897.987 471.752 897.987 469.68C897.987 467.608 899.822 468.844 901.319 467.446C906.711 462.454 917.993 451.484 925.031 450.274C934.242 448.651 933.243 453.531 930.098 460.594Z" fill="#009966"/>
<path d="M898.761 468.332C898.049 467.284 895.104 470.03 894.168 471.178C893.232 472.326 895.803 476.494 896.577 478.666C897.351 480.837 895.828 483.146 898.199 483.483C899.447 483.658 903.004 483.196 903.69 482.235C905.3 480.176 900.471 470.853 898.761 468.332Z" fill="#263238"/>
<path opacity="0.2" d="M915.696 474.323C921.737 470.516 927.927 465.499 930.111 460.595C930.248 460.258 930.41 459.946 930.535 459.621L930.66 458.373C922.46 459.771 916.894 468.058 915.696 474.323Z" fill="#131313"/>
<path d="M889.263 455.34L894.018 448.289L886.256 445.119C886.256 445.119 881.863 450.111 885.008 454.467L889.263 455.34Z" fill="#FF8B7B"/>
<path d="M896.015 440.626L888.877 440.389L886.256 445.057L894.018 448.227L896.015 440.626Z" fill="#FF8B7B"/>
<path opacity="0.2" d="M929.362 662.995L930.46 671.806L937.836 671.931L936.738 663.12L929.362 662.995Z" fill="#131313"/>
<path opacity="0.2" d="M898.998 664.168L892.259 660.412L889.675 668.598L896.402 672.355L898.998 664.168Z" fill="#131313"/>
<path d="M966.228 452.944C958.278 480.949 959.888 510.664 959.164 516.68C953.398 516.268 931.708 514.645 919.852 513.759C916.108 471.639 925.019 450.249 925.019 450.249C925.019 450.249 927.515 449.762 930.984 449.412C932.058 449.3 933.218 449.2 934.429 449.138C935.103 449.138 935.777 449.075 936.463 449.063C942.057 449.158 947.64 449.574 953.186 450.311C954.235 450.436 955.295 450.598 956.331 450.76C957.367 450.923 958.228 451.097 959.114 451.272C963.12 452.071 966.228 452.944 966.228 452.944Z" fill="#009966"/>
<path d="M936.463 449.1C933.156 450.872 932.195 457.362 938.597 457.611C944.999 457.861 951.352 453.356 953.186 450.336L936.463 449.1Z" fill="#263238"/>
<path opacity="0.2" d="M957.829 464.962C957.13 467.671 957.928 480.026 960.761 483.083C961.148 479.127 961.66 474.984 962.346 470.766L957.829 464.962Z" fill="#131313"/>
<path d="M952.924 431.366C951.476 436.658 949.692 446.43 953.186 450.298C950.041 452.994 946.434 454.879 940.032 454.629C933.63 454.379 934.616 451.259 936.463 449.063C942.578 448.077 942.703 443.609 942.016 439.353L952.924 431.366Z" fill="#FF8B7B"/>
<path opacity="0.2" d="M948.481 434.624L942.017 439.353C942.202 440.346 942.302 441.352 942.316 442.361C944.625 442.199 947.97 439.865 948.381 437.531C948.589 436.576 948.623 435.591 948.481 434.624Z" fill="#131313"/>
<path d="M936.276 429.332C936.276 429.332 931.758 422.98 933.081 418.013C934.778 411.66 945.012 419.448 936.276 429.332Z" fill="#263238"/>
<path d="M954.172 423.317C953.174 430.568 952.924 434.861 949.018 438.293C943.065 443.509 934.329 439.541 933.131 432.053C932.045 425.401 933.842 414.655 941.193 412.297C942.816 411.764 944.549 411.657 946.225 411.985C947.902 412.313 949.466 413.066 950.768 414.172C952.071 415.278 953.067 416.699 953.663 418.3C954.259 419.901 954.434 421.629 954.172 423.317Z" fill="#FF8B7B"/>
<path d="M937.012 430.979C937.012 432.09 935.989 432.352 935.165 432.851C934.593 433.249 934.112 433.763 933.755 434.361C933.755 434.361 932.694 434.012 933.131 432.128C933.568 430.243 937.012 429.944 937.012 430.979Z" fill="#263238"/>
<path d="M937.524 431.017C937.524 432.926 939.633 432.664 941.268 433.189C942.594 433.602 943.761 434.412 944.613 435.51C944.825 435.03 944.895 434.5 944.813 433.981C944.731 433.463 944.501 432.98 944.151 432.59C942.104 429.906 937.524 429.981 937.524 431.017Z" fill="#263238"/>
<path d="M948.569 416.765C944.026 418.112 931.284 419.523 932.844 413.021C935.015 403.923 940.756 408.665 941.58 409.963C945.237 407.317 961.373 409.626 958.153 414.855C961.66 415.392 963.694 419.211 961.174 421.095C958.653 422.98 955.595 430.667 953.91 430.443C951.872 430.161 949.882 429.603 947.995 428.783L951.464 424.14C951.464 424.14 947.258 420.147 948.569 416.765Z" fill="#263238"/>
<path d="M956.519 415.654C959.015 415.042 961.348 414.768 963.37 416.64C963.22 413.495 958.915 413.058 956.519 415.654Z" fill="#263238"/>
<path d="M956.855 431.628C956.316 432.361 955.636 432.979 954.857 433.448C954.077 433.917 953.212 434.228 952.313 434.361C949.891 434.711 949.005 432.477 949.941 430.368C950.777 428.458 953.049 425.987 955.345 426.624C955.841 426.772 956.293 427.041 956.66 427.407C957.026 427.773 957.297 428.224 957.446 428.72C957.596 429.216 957.62 429.741 957.517 430.248C957.414 430.756 957.187 431.23 956.855 431.628Z" fill="#FF8B7B"/>
<path d="M927.715 670.071L940.195 670.259C940.195 670.259 932.994 620.95 934.117 598.012C934.454 591.036 933.331 581.276 935.178 570.818C937.511 557.627 938.635 552.373 941.642 535.712C943.789 523.831 945.698 515.744 945.698 515.744L919.852 513.822C919.852 513.822 911.403 573.239 911.653 595.741C911.915 619.066 927.715 670.071 927.715 670.071Z" fill="#009966"/>
<path opacity="0.6" d="M927.715 670.071L940.195 670.259C940.195 670.259 932.994 620.95 934.117 598.012C934.454 591.036 933.331 581.276 935.178 570.818C937.511 557.627 938.635 552.373 941.642 535.712C943.789 523.831 945.698 515.744 945.698 515.744L919.852 513.822C919.852 513.822 911.403 573.239 911.653 595.741C911.915 619.066 927.715 670.071 927.715 670.071Z" fill="#131313"/>
<path opacity="0.2" d="M935.177 570.818C934.301 576.288 933.938 581.828 934.092 587.366C931.945 593.432 930.073 599.185 928.763 604.302C926.479 613.25 922.86 626.828 919.34 639.87C915.509 624.594 911.777 606.935 911.665 595.678L935.177 570.818Z" fill="#131313"/>
<path d="M933.792 514.795C933.792 514.795 915.222 561.72 908.184 582.187C900.471 604.551 888.028 664.917 888.028 664.917L899.772 671.569C899.772 671.569 918.068 621.811 925.643 600.033C934.279 575.223 958.091 536.023 959.164 516.742L933.792 514.795Z" fill="#009966"/>
<path opacity="0.6" d="M933.792 514.795C933.792 514.795 915.222 561.72 908.184 582.187C900.471 604.551 888.028 664.917 888.028 664.917L899.772 671.569C899.772 671.569 918.068 621.811 925.643 600.033C934.279 575.223 958.091 536.023 959.164 516.742L933.792 514.795Z" fill="#131313"/>
<path d="M886.48 664.318L900.308 672.168L902.655 668.037L887.342 659.001L886.48 664.318Z" fill="#009966"/>
<path d="M926.142 670.334L941.018 670.571L941.093 665.766L924.47 665.242L926.142 670.334Z" fill="#009966"/>
<path d="M944.463 424.527C944.463 425.126 944.063 425.575 943.676 425.55C943.29 425.525 943.015 425.014 943.065 424.427C943.115 423.841 943.452 423.379 943.839 423.404C944.226 423.429 944.513 423.94 944.463 424.527Z" fill="#263238"/>
<path d="M936.575 424.028C936.575 424.627 936.188 425.076 935.802 425.051C935.415 425.026 935.128 424.515 935.178 423.928C935.227 423.342 935.564 422.88 935.951 422.905C936.338 422.93 936.625 423.441 936.575 424.028Z" fill="#263238"/>
<path d="M938.36 424.49C937.515 426.248 936.432 427.882 935.14 429.344C935.523 429.665 935.972 429.899 936.455 430.028C936.938 430.157 937.443 430.18 937.936 430.093L938.36 424.49Z" fill="#FF5652"/>
<path d="M937.711 433.912C938.379 433.885 939.034 433.72 939.635 433.428C940.237 433.136 940.771 432.723 941.205 432.215C941.222 432.199 941.235 432.179 941.244 432.158C941.253 432.136 941.258 432.113 941.258 432.09C941.258 432.067 941.253 432.044 941.244 432.022C941.235 432.001 941.222 431.982 941.205 431.965C941.173 431.936 941.131 431.919 941.087 431.919C941.043 431.919 941.001 431.936 940.968 431.965C940.475 432.516 939.858 432.944 939.169 433.213C938.479 433.481 937.736 433.584 937 433.513C936.954 433.512 936.91 433.529 936.875 433.559C936.841 433.588 936.819 433.63 936.812 433.675C936.809 433.698 936.81 433.722 936.817 433.745C936.823 433.768 936.835 433.789 936.85 433.806C936.866 433.824 936.885 433.838 936.906 433.848C936.928 433.858 936.951 433.863 936.975 433.862C937.219 433.896 937.465 433.912 937.711 433.912Z" fill="#263238"/>
<path d="M945.711 422.518C945.764 422.529 945.819 422.529 945.873 422.518C945.912 422.493 945.945 422.46 945.971 422.422C945.997 422.384 946.015 422.341 946.024 422.296C946.034 422.25 946.034 422.204 946.025 422.158C946.016 422.113 945.998 422.07 945.973 422.031C945.684 421.559 945.286 421.163 944.813 420.876C944.34 420.59 943.804 420.421 943.252 420.384C943.206 420.382 943.159 420.39 943.116 420.407C943.073 420.424 943.034 420.45 943.001 420.482C942.968 420.515 942.943 420.555 942.926 420.598C942.909 420.641 942.901 420.687 942.903 420.733C942.903 420.826 942.939 420.915 943.005 420.981C943.07 421.046 943.159 421.083 943.252 421.083C943.687 421.12 944.107 421.259 944.478 421.489C944.848 421.719 945.16 422.033 945.386 422.406C945.426 422.451 945.477 422.485 945.534 422.505C945.59 422.524 945.651 422.529 945.711 422.518Z" fill="#263238"/>
<path d="M933.655 421.395C933.713 421.4 933.772 421.391 933.826 421.369C933.88 421.348 933.928 421.314 933.967 421.27C934.244 420.93 934.598 420.661 934.999 420.485C935.401 420.31 935.838 420.232 936.276 420.259C936.367 420.27 936.458 420.244 936.53 420.188C936.603 420.132 936.65 420.05 936.663 419.959C936.67 419.914 936.667 419.867 936.656 419.822C936.645 419.776 936.625 419.734 936.597 419.697C936.569 419.66 936.534 419.628 936.494 419.605C936.454 419.581 936.409 419.566 936.363 419.56C935.812 419.521 935.26 419.613 934.752 419.83C934.244 420.047 933.795 420.383 933.443 420.808C933.41 420.841 933.383 420.879 933.365 420.922C933.347 420.965 933.338 421.011 933.338 421.058C933.338 421.104 933.347 421.15 933.365 421.193C933.383 421.236 933.41 421.275 933.443 421.307C933.504 421.355 933.578 421.386 933.655 421.395Z" fill="#263238"/>
<path d="M883.835 675.313C884.407 675.623 885.015 675.862 885.645 676.024C885.67 676.043 885.701 676.052 885.732 676.052C885.763 676.052 885.794 676.043 885.819 676.024C885.837 675.994 885.846 675.959 885.846 675.924C885.846 675.889 885.837 675.855 885.819 675.825C885.67 675.55 884.322 673.104 883.398 673.066C883.297 673.065 883.197 673.091 883.109 673.141C883.021 673.192 882.949 673.265 882.899 673.354C882.796 673.491 882.73 673.653 882.706 673.823C882.682 673.993 882.701 674.166 882.762 674.327C883.001 674.765 883.379 675.111 883.835 675.313ZM885.32 675.562C884.072 675.163 883.298 674.651 883.111 674.165C883.07 674.053 883.058 673.933 883.075 673.815C883.093 673.697 883.139 673.586 883.211 673.491C883.229 673.454 883.258 673.422 883.293 673.4C883.328 673.378 883.369 673.366 883.411 673.366C883.885 673.391 884.759 674.602 885.32 675.562Z" fill="#009966"/>
<path d="M885.607 676.012H885.694C885.726 676.012 885.758 676.002 885.784 675.984C885.811 675.966 885.832 675.941 885.844 675.912C885.844 675.824 886.78 673.89 886.381 672.867C886.336 672.739 886.265 672.622 886.173 672.523C886.081 672.424 885.969 672.346 885.844 672.292C885.728 672.233 885.596 672.213 885.468 672.236C885.339 672.258 885.222 672.322 885.133 672.417C884.596 673.066 885.133 675.188 885.545 675.924C885.554 675.96 885.576 675.991 885.607 676.012ZM885.782 672.679C885.911 672.755 886.008 672.875 886.056 673.016C886.173 673.848 886.038 674.696 885.669 675.45C885.295 674.576 885.083 673.054 885.407 672.679C885.407 672.679 885.495 672.555 885.707 672.679H885.782Z" fill="#009966"/>
<path d="M930.597 680.242C930.628 680.234 930.656 680.217 930.676 680.192C930.696 680.167 930.708 680.137 930.71 680.105C930.718 680.07 930.714 680.033 930.698 680.001C930.682 679.969 930.655 679.944 930.622 679.93C930.298 679.743 927.352 678.195 926.454 678.682C926.369 678.728 926.298 678.794 926.245 678.875C926.193 678.955 926.162 679.048 926.154 679.144C926.136 679.302 926.155 679.462 926.209 679.611C926.263 679.761 926.351 679.896 926.466 680.005C927.265 680.729 929.387 680.467 930.572 680.255L930.597 680.242ZM926.679 678.994C927.852 679.059 928.992 679.41 929.998 680.018C928.906 680.337 927.735 680.248 926.704 679.768C926.628 679.697 926.57 679.609 926.535 679.511C926.501 679.414 926.49 679.309 926.504 679.206C926.502 679.168 926.512 679.129 926.532 679.096C926.552 679.063 926.581 679.036 926.616 679.019L926.679 678.994Z" fill="#009966"/>
<path d="M930.597 680.243C930.621 680.223 930.641 680.198 930.654 680.17C930.667 680.142 930.673 680.111 930.672 680.08C930.611 679.035 930.222 678.035 929.561 677.222C929.432 677.106 929.279 677.019 929.114 676.965C928.948 676.911 928.774 676.893 928.6 676.91C928.126 676.91 927.976 677.185 927.951 677.385C927.802 678.221 929.536 679.881 930.447 680.255C930.497 680.269 930.551 680.265 930.597 680.243ZM928.501 677.272H928.688C928.814 677.259 928.941 677.272 929.061 677.311C929.181 677.35 929.292 677.413 929.387 677.497C929.932 678.145 930.26 678.949 930.323 679.793C929.424 679.232 928.251 677.959 928.338 677.46C928.342 677.415 928.36 677.373 928.389 677.34C928.418 677.306 928.457 677.283 928.501 677.272Z" fill="#009966"/>
<path d="M968.05 457.399C969.672 460.42 971.07 463.402 972.518 466.435C973.965 469.468 975.226 472.563 976.499 475.683C977.772 478.803 978.92 481.923 979.981 485.267L980.742 487.763L981.416 490.259C981.641 491.108 981.815 492.006 982.015 492.868L982.165 493.542L982.302 494.44C982.384 494.986 982.438 495.536 982.464 496.087C982.541 497.975 982.462 499.866 982.227 501.741C982.027 503.513 981.778 505.223 981.478 506.908C980.867 510.277 980.118 513.559 979.282 516.804C977.617 523.267 975.622 529.64 973.304 535.899L967.975 534.426C969.086 528.036 970.159 521.559 971.107 515.182C971.569 511.999 971.994 508.817 972.281 505.672C972.43 504.112 972.543 502.565 972.593 501.054C972.659 499.66 972.622 498.263 972.48 496.874C972.48 496.612 972.418 496.262 972.355 496.087L972.281 495.763L972.131 495.239C971.906 494.527 971.731 493.816 971.482 493.092L970.746 490.921L969.934 488.737C968.824 485.804 967.576 482.884 966.315 480.001C965.055 477.118 963.657 474.16 962.272 471.265C960.886 468.369 959.464 465.424 958.091 462.604L968.05 457.399Z" fill="#FF8B7B"/>
<path d="M966.215 452.957C971.507 454.604 978.508 476.544 981.279 485.879C983.038 487.464 982.152 490.359 982.152 490.359L971.382 495.114C968.886 493.866 967.338 491.258 968.274 489.972C962.633 479.327 958.203 471.365 956.069 465.012C952.912 455.602 958.078 450.348 966.215 452.957Z" fill="#009966"/>
<path d="M968.749 492.506C967.663 493.155 970.995 496.574 972.069 497.573C973.142 498.571 976.724 495.963 978.957 495.314C981.191 494.665 983.388 496.337 983.862 493.991C984.124 492.743 983.862 489.174 983.001 488.425C980.967 486.703 971.37 490.958 968.749 492.506Z" fill="#263238"/>
<path d="M969.373 531.281L963.62 536.074L970.783 541.24C970.783 541.24 975.488 536.248 973.379 533.278L969.373 531.281Z" fill="#FF8B7B"/>
<path d="M960.337 542.775L967.426 546.219L970.783 541.24L963.62 536.073L960.337 542.775Z" fill="#FF8B7B"/>
</svg>
