<svg width="50" height="50" viewBox="0 0 50 50" fill="none" xmlns="http://www.w3.org/2000/svg">
<circle cx="25" cy="25" r="25" fill="#009966"/>
<mask id="mask0" mask-type="alpha" maskUnits="userSpaceOnUse" x="0" y="0" width="50" height="50">
<circle cx="25" cy="25" r="25" fill="#59D7FF"/>
</mask>
<g mask="url(#mask0)">
<path d="M15.998 50.7331C19.5482 53.9588 28.252 52.7631 28.252 52.7631C28.252 52.7631 33.6745 51.28 32.5344 49.5837C29.3365 49.0554 27.7885 47.563 27.1489 45.6536C26.7987 44.47 26.6884 43.2283 26.8245 42.0015C26.8776 41.3174 26.9673 40.6367 27.0933 39.9623L16.341 32C17.7499 37.2557 19.474 46.8864 15.998 50.7331Z" fill="#E4897B"/>
<path d="M35.2789 31.9639C35.2007 32.7326 35.0807 33.4965 34.9195 34.2522C34.8374 34.5908 34.7382 34.9251 34.6225 35.2538C33.8085 37.7022 32.0965 39.751 29.8317 40.9871C28.1005 41.9753 26.0931 42.3685 24.117 42.1065C22.1409 41.8445 20.3053 40.9417 18.8915 39.5365C18.4451 39.0968 18.0369 38.6199 17.6714 38.111C15.1465 34.8233 15.1134 30.7511 14.6066 24.4763C14.4472 22.799 14.7193 21.1089 15.3971 19.5664C16.0749 18.024 17.1359 16.6804 18.4792 15.6635C19.8225 14.6466 21.4035 13.99 23.072 13.7562C24.7405 13.5224 26.4411 13.7191 28.0121 14.3276C34.32 16.7223 35.986 25.4729 35.2789 31.9639Z" fill="#E4897B"/>
<path d="M25.5761 26.2704C25.5471 26.852 25.9023 27.3214 26.2969 27.3111C26.6914 27.3008 26.9761 26.8208 26.967 26.2372C26.9578 25.6536 26.6317 25.188 26.2462 25.1965C25.8608 25.2051 25.5634 25.6686 25.5761 26.2704Z" fill="#263238"/>
<path d="M32.2119 26.1186C32.1829 26.7002 32.549 27.1769 32.9345 27.1683C33.3199 27.1598 33.6211 26.6672 33.6137 26.0927C33.6063 25.5182 33.2675 25.0362 32.8912 25.043C32.5148 25.0497 32.199 25.5641 32.2119 26.1186Z" fill="#263238"/>
<path d="M30.106 26.4604C30.8473 28.2397 31.8311 29.9079 33.0296 31.4176C32.628 31.7095 32.1672 31.9097 31.6797 32.0041C31.1923 32.0985 30.69 32.0847 30.2085 31.9638L30.106 26.4604Z" fill="#DE5753"/>
<path d="M23.468 24.1578C23.5307 24.1665 23.5947 24.1581 23.6531 24.1335C23.7114 24.1089 23.7621 24.069 23.7997 24.018C24.0439 23.6623 24.3674 23.3683 24.7448 23.1592C25.1222 22.9502 25.543 22.8318 25.974 22.8134C26.0191 22.8158 26.0643 22.8093 26.1069 22.7943C26.1495 22.7793 26.1887 22.756 26.2223 22.7259C26.2559 22.6957 26.2833 22.6592 26.3028 22.6184C26.3223 22.5777 26.3335 22.5335 26.336 22.4884C26.3384 22.4433 26.3319 22.3981 26.3169 22.3555C26.3019 22.3129 26.2786 22.2737 26.2484 22.2401C26.2183 22.2065 26.1817 22.1792 26.141 22.1597C26.1003 22.1402 26.0561 22.1289 26.011 22.1265C25.4641 22.1337 24.927 22.272 24.4447 22.5296C23.9623 22.7873 23.5487 23.1569 23.2387 23.6074C23.1887 23.6824 23.1702 23.7742 23.1874 23.8628C23.2045 23.9514 23.2559 24.0296 23.3303 24.0806C23.3716 24.1138 23.4181 24.1399 23.468 24.1578Z" fill="#263238"/>
<path d="M35.013 23.7636C35.0806 23.7877 35.1534 23.7932 35.2238 23.7794C35.3033 23.7356 35.3634 23.6636 35.3922 23.5775C35.4211 23.4915 35.4165 23.3978 35.3794 23.315C35.1411 22.8211 34.7869 22.3922 34.347 22.0647C33.9072 21.7372 33.3947 21.521 32.8532 21.4343C32.8083 21.43 32.763 21.4345 32.7199 21.4476C32.6768 21.4608 32.6367 21.4823 32.6019 21.511C32.5672 21.5396 32.5384 21.5748 32.5172 21.6146C32.496 21.6544 32.4829 21.698 32.4786 21.7429C32.4744 21.8325 32.5037 21.9204 32.5607 21.9896C32.6177 22.0588 32.6984 22.1044 32.7872 22.1174C33.2101 22.1986 33.6084 22.377 33.9507 22.6384C34.2929 22.8998 34.5698 23.2372 34.7594 23.6238C34.7889 23.6642 34.8269 23.6976 34.8708 23.7218C34.9146 23.7459 34.9631 23.7602 35.013 23.7636Z" fill="#263238"/>
<path d="M20.4952 16.4629L11.1857 18.2654C10.7461 20.8713 11.3602 25.0671 12.9649 29.8926C15.0264 36.1024 18.0857 38.4935 18.0857 38.4935C15.9883 35.7556 15.2981 29.7524 16.2509 29.4074C17.2038 29.0624 17.353 30.2231 17.353 30.2231C19.2892 28.4226 20.5078 24.1835 19.2967 21.5856C18.6328 20.1563 20.4952 16.4629 20.4952 16.4629Z" fill="#263238"/>
<path d="M11.5589 30.4765C12.393 32.0923 13.8345 33.3108 15.5665 33.8642C17.8672 34.58 19.0868 32.5406 18.5169 30.3284C17.9854 28.3636 16.1593 25.5637 13.8143 25.8384C11.4694 26.113 10.5495 28.4815 11.5589 30.4765Z" fill="#E4897B"/>
<path d="M17.2192 20.2696C17.2192 20.2696 20.7296 16.7008 22.9774 16.2656C25.2251 15.8304 26.9822 17.4446 28.8005 17.3757C30.6188 17.3069 30.872 16.0305 30.872 16.0305C30.872 16.0305 33.8869 16.1926 34.5793 18.3056C34.5793 18.3056 35.8944 14.029 33.7927 12.2927C31.691 10.5564 27.7405 10.2922 27.7405 10.2922C27.7405 10.2922 27.0734 7.33407 23.1047 7.07337C19.1361 6.81266 8.57837 13.5303 10.8686 20.0924C13.1588 26.6545 17.2192 20.2696 17.2192 20.2696Z" fill="#263238"/>
<path opacity="0.3" d="M35.2798 31.9639C35.2016 32.7326 35.0816 33.4965 34.9204 34.2522C34.8382 34.5909 34.7391 34.9252 34.6233 35.2539C33.8093 37.7023 32.0974 39.751 29.8326 40.9871C28.1014 41.9753 26.0939 42.3685 24.1179 42.1065C22.1418 41.8445 20.3062 40.9417 18.8924 39.5365C18.446 39.0968 18.0378 38.62 17.6722 38.1111C16.7475 33.8715 17.8134 28.4535 17.8134 28.4535L18.4636 27.9594C18.4636 27.9594 19.1085 31.2901 21.3606 31.3167C23.6128 31.3432 27.3967 33.5752 30.5833 33.3076C32.2313 33.2273 33.8386 32.7674 35.2798 31.9639Z" fill="black"/>
<path d="M29.3286 35.0704C28.4907 35.2181 27.6295 35.1608 26.8185 34.9036C26.0074 34.6463 25.2707 34.1967 24.6711 33.593C24.6418 33.5555 24.6272 33.5085 24.6302 33.4609C24.6332 33.4133 24.6535 33.3685 24.6873 33.3349C24.7214 33.3036 24.7664 33.287 24.8127 33.2886C24.8589 33.2903 24.9027 33.3101 24.9344 33.3437C25.5014 33.8905 26.1881 34.2975 26.94 34.5322C27.6918 34.7668 28.4881 34.8228 29.2654 34.6956C29.3113 34.6867 29.3588 34.6964 29.3975 34.7225C29.4362 34.7487 29.4629 34.7891 29.4718 34.835C29.4776 34.8578 29.4785 34.8815 29.4745 34.9047C29.4704 34.9279 29.4615 34.9499 29.4484 34.9694C29.4352 34.9889 29.418 35.0054 29.3981 35.0178C29.3781 35.0302 29.3557 35.0382 29.3324 35.0414L29.3286 35.0704Z" fill="#263238"/>
</g>
</svg>
