<svg width="1440" height="804" viewBox="0 0 1440 804" fill="none" xmlns="http://www.w3.org/2000/svg">
<path d="M1440 0H0V766.475C66.6667 773.271 253.1 770.466 465.5 704.879C677.9 639.293 909.333 664.828 998.5 685.794C1120.5 718.326 1380.4 770.466 1440 718.76V638.513V0Z" fill="#00C2FF"/>
<mask id="mask0" mask-type="alpha" maskUnits="userSpaceOnUse" x="0" y="0" width="1440" height="769">
<path d="M1440 0H0V766.475C66.6667 773.271 253.1 770.466 465.5 704.879C677.9 639.293 909.333 664.828 998.5 685.794C1120.5 718.326 1380.4 770.466 1440 718.76V638.512V0Z" fill="#00C2FF"/>
</mask>
<g mask="url(#mask0)">
<path d="M-134.326 357.663C5.62078 217.717 588.896 227.557 728.918 367.58C868.941 507.602 548.931 874.924 408.985 1014.87C269.038 1154.82 304.763 914.694 164.741 774.671C62.1394 672.07 -74.7895 541.299 -156.755 472.52C-195.44 440.058 -171.727 395.064 -134.326 357.663Z" fill="white" fill-opacity="0.35"/>
<path d="M1290.37 361.139H1053.25C1023.3 361.139 1107.32 354.899 1153.5 344.503C1199.68 334.108 1203.42 330.775 1218.81 342.007C1234.2 353.239 1279.96 328.279 1302.01 343.255C1324.06 358.231 1329.88 361.139 1290.37 361.139Z" fill="#FAFAFA"/>
<path d="M961.707 401.275C991.285 401.275 1047.73 398.866 1025.09 388.895C1002.45 378.923 985.694 398.879 975.81 390.405C965.926 381.931 949.926 380.745 936.648 388.895C923.369 397.044 927.313 384.364 911.301 388.895C888.837 395.247 816.902 401.275 878.129 401.275H961.707Z" fill="#FAFAFA"/>
<path d="M1211.41 508.603C1234 508.603 1277.09 506.756 1259.81 499.156C1242.52 491.555 1229.73 506.756 1222.19 500.304C1214.65 493.852 1202.42 492.928 1192.24 499.156C1182.06 505.383 1185.11 495.699 1172.88 499.156C1155.77 503.998 1100.82 508.603 1147.56 508.603H1211.41Z" fill="#FAFAFA"/>
<path class="type cloud" d="M396.503 333.881C399.68 320.419 391.343 306.93 377.881 303.753C364.419 300.576 350.93 308.913 347.753 322.375C344.576 335.837 352.913 349.326 366.375 352.503C379.837 355.68 393.326 347.343 396.503 333.881Z" fill="white"/>
<path class="status ok" d="M384.104 318.002C376.648 322.63 372.029 329.902 369.848 332.5L363.491 326.629C363.343 326.521 360.268 329.285 360.349 329.371L370.551 339.875C370.626 339.961 370.73 340 370.841 340C370.861 340 370.893 340 370.92 339.993C371.053 339.963 371.166 339.872 371.216 339.737C372.86 335.482 378.287 326.573 385.217 320.112C385.34 319.993 385.384 319.808 385.315 319.647C385.314 319.646 384.207 317.938 384.104 318.002Z" fill="#009966"/>
<path class="status question" d="M370.116 334.399C370 332.707 370 332.562 370 332.403C370 327.718 374.699 324.971 374.699 320.835C374.723 320.345 374.638 319.855 374.451 319.401C374.265 318.947 373.981 318.54 373.62 318.207C373.258 317.875 372.828 317.626 372.36 317.478C371.892 317.33 371.398 317.286 370.911 317.35C369.995 317.35 369.093 317.572 368.281 317.998C367.47 318.424 366.775 319.04 366.255 319.794L365.199 316.338C365.91 315.442 366.827 314.73 367.872 314.265C368.916 313.799 370.058 313.592 371.2 313.663C372.189 313.606 373.18 313.747 374.114 314.077C375.048 314.406 375.907 314.918 376.642 315.583C377.377 316.248 377.972 317.052 378.393 317.948C378.814 318.845 379.053 319.816 379.095 320.806C379.095 325.347 373.311 328.427 373.311 333.82V334.312L370.116 334.399ZM369.364 341.903V337.247H374.02V341.889L369.364 341.903Z" fill="#009966" fill-opacity="0.6"/>
<path class="status wrong" d="M377 382.395C404.564 382.395 426 366.079 426 393V331C426 356.289 385.789 380.413 377 382.395Z" fill="white"/>
<path class="type text" opacity="0.6" fill-rule="evenodd" clip-rule="evenodd" d="M380.049 317.587C380.417 317.175 381.049 317.139 381.461 317.507L383.193 319.055C383.605 319.423 383.641 320.055 383.273 320.467L376.01 328.599L383.273 336.731C383.641 337.142 383.605 337.775 383.193 338.143L381.461 339.69C381.049 340.058 380.417 340.022 380.049 339.61L373.111 331.843L366.174 339.61C365.806 340.022 365.174 340.058 364.762 339.69L363.029 338.143C362.617 337.775 362.582 337.142 362.95 336.731L370.213 328.599L362.95 320.467C362.582 320.055 362.617 319.423 363.029 319.055L364.762 317.507C365.174 317.139 365.806 317.175 366.174 317.587L373.111 325.354L380.049 317.587Z" fill="#FF0000"/>
</g>
<path d="M796 804C1000.35 804 1166 796.613 1166 787.5C1166 778.387 1000.35 771 796 771C591.655 771 426 778.387 426 787.5C426 796.613 591.655 804 796 804Z" fill="#F5F5F5"/>
<path d="M1109.66 755.072C1109.66 755.072 1116.01 741.219 1108.77 727.598C1101.52 713.977 1099.41 710.723 1104.02 707.932C1108.64 705.141 1110.78 718.85 1110.78 718.85C1113.07 712.649 1113.3 705.877 1111.46 699.531C1108.23 689.655 1106.22 673.575 1110.62 671.84C1115.01 670.105 1111.46 691.911 1115.26 699.314C1117.21 694.102 1118.46 688.657 1118.99 683.119C1119.52 675.18 1118.7 662.513 1122.17 659.26C1125.64 656.006 1127.87 658.262 1124.46 675.773C1122.4 686.258 1121.27 696.903 1121.07 707.585C1121.07 707.585 1128.59 684.608 1133.65 683.943C1138.71 683.278 1138.7 690.71 1134.38 697.16C1130.05 703.609 1121.71 715.177 1120.33 721.12C1120.33 721.12 1128.61 703.84 1136.04 709.132C1143.47 714.425 1129.56 724.865 1123.37 728.639C1117.18 732.413 1112.86 756.113 1112.86 756.113L1109.66 755.072Z" fill="#009966"/>
<path opacity="0.6" d="M1109.66 755.072C1109.66 755.072 1116.01 741.219 1108.77 727.598C1101.52 713.977 1099.41 710.723 1104.02 707.932C1108.64 705.141 1110.78 718.85 1110.78 718.85C1113.07 712.649 1113.3 705.877 1111.46 699.531C1108.23 689.655 1106.22 673.575 1110.62 671.84C1115.01 670.105 1111.46 691.911 1115.26 699.314C1117.21 694.102 1118.46 688.657 1118.99 683.119C1119.52 675.18 1118.7 662.513 1122.17 659.26C1125.64 656.006 1127.87 658.262 1124.46 675.773C1122.4 686.258 1121.27 696.903 1121.07 707.585C1121.07 707.585 1128.59 684.608 1133.65 683.943C1138.71 683.278 1138.7 690.71 1134.38 697.16C1130.05 703.609 1121.71 715.177 1120.33 721.12C1120.33 721.12 1128.61 703.84 1136.04 709.132C1143.47 714.425 1129.56 724.865 1123.37 728.639C1117.18 732.413 1112.86 756.113 1112.86 756.113L1109.66 755.072Z" fill="white"/>
<path d="M1114.68 760.783C1114.68 760.783 1108.49 746.844 1115.91 733.309C1123.33 719.775 1125.47 716.579 1120.88 713.716C1116.3 710.853 1114 724.532 1114 724.532C1111.78 718.308 1111.62 711.534 1113.55 705.214C1116.89 695.381 1119.11 679.33 1114.72 677.537C1110.34 675.744 1113.65 697.593 1109.75 705.011C1107.87 699.765 1106.68 694.297 1106.21 688.744C1105.77 680.805 1106.76 668.153 1103.32 664.841C1099.87 661.53 1097.63 663.757 1100.83 681.326C1102.75 691.822 1103.76 702.466 1103.84 713.138C1103.84 713.138 1096.61 690.002 1091.53 689.322C1086.46 688.642 1086.4 696.002 1090.65 702.524C1094.9 709.045 1103.1 720.715 1104.4 726.687C1104.4 726.687 1096.35 709.335 1088.84 714.468C1081.34 719.601 1095.13 730.302 1101.28 734.162C1107.42 738.023 1111.4 761.738 1111.4 761.738L1114.68 760.783Z" fill="#009966"/>
<path opacity="0.7" d="M1114.68 760.783C1114.68 760.783 1108.49 746.844 1115.91 733.309C1123.33 719.775 1125.47 716.579 1120.88 713.716C1116.3 710.853 1114 724.532 1114 724.532C1111.78 718.308 1111.62 711.534 1113.55 705.214C1116.89 695.381 1119.11 679.33 1114.72 677.537C1110.34 675.744 1113.65 697.593 1109.75 705.011C1107.87 699.765 1106.68 694.297 1106.21 688.744C1105.77 680.805 1106.76 668.153 1103.32 664.841C1099.87 661.53 1097.63 663.757 1100.83 681.326C1102.75 691.822 1103.76 702.466 1103.84 713.138C1103.84 713.138 1096.61 690.002 1091.53 689.322C1086.46 688.642 1086.4 696.002 1090.65 702.524C1094.9 709.045 1103.1 720.715 1104.4 726.687C1104.4 726.687 1096.35 709.335 1088.84 714.468C1081.34 719.601 1095.13 730.302 1101.28 734.162C1107.42 738.023 1111.4 761.738 1111.4 761.738L1114.68 760.783Z" fill="white"/>
<path d="M1086.17 750.82H1137.24L1133.1 787.361H1090.3L1086.17 750.82Z" fill="#009966"/>
<path class="type cloud" d="M362.642 357.234C362.642 358.398 362.296 359.536 361.65 360.504C361.003 361.471 360.084 362.226 359.008 362.671C357.933 363.117 356.75 363.233 355.608 363.006C354.467 362.779 353.418 362.218 352.595 361.395C351.772 360.572 351.211 359.524 350.984 358.382C350.757 357.24 350.874 356.057 351.319 354.982C351.765 353.906 352.519 352.987 353.487 352.34C354.454 351.694 355.592 351.349 356.756 351.349C358.317 351.349 359.814 351.969 360.918 353.072C362.021 354.176 362.642 355.673 362.642 357.234Z" fill="white"/>
<path class="type cloud" d="M353.43 364.985C353.432 365.609 353.25 366.221 352.904 366.741C352.559 367.262 352.067 367.668 351.49 367.909C350.914 368.149 350.279 368.213 349.666 368.091C349.053 367.97 348.49 367.67 348.048 367.228C347.607 366.786 347.306 366.223 347.185 365.61C347.064 364.998 347.127 364.363 347.368 363.786C347.608 363.209 348.014 362.717 348.535 362.372C349.056 362.027 349.667 361.844 350.292 361.847C351.124 361.847 351.922 362.177 352.51 362.766C353.099 363.354 353.43 364.152 353.43 364.985Z" fill="white"/>
<path class="type cloud" d="M346.533 368.05C346.536 368.448 346.421 368.838 346.202 369.171C345.983 369.503 345.67 369.763 345.303 369.917C344.936 370.072 344.531 370.114 344.14 370.038C343.75 369.962 343.39 369.772 343.108 369.491C342.825 369.211 342.632 368.852 342.553 368.462C342.475 368.072 342.514 367.667 342.665 367.299C342.817 366.931 343.075 366.616 343.405 366.394C343.736 366.173 344.125 366.055 344.524 366.055C345.054 366.055 345.563 366.264 345.94 366.638C346.316 367.012 346.53 367.52 346.533 368.05Z" fill="white"/>
<path d="M343.51 776.588L355.237 777.832L357.449 752.527L345.708 751.283L343.51 776.588Z" fill="#E4897B"/>
<path d="M284.977 775.735H296.342L297.282 749.403H285.902L284.977 775.735Z" fill="#E4897B"/>
<path d="M297.919 774.419H284.11C283.872 774.413 283.639 774.493 283.456 774.644C283.272 774.796 283.15 775.009 283.112 775.244L280.871 785.366C280.781 785.801 280.867 786.254 281.111 786.625C281.355 786.997 281.737 787.256 282.172 787.347C282.292 787.361 282.413 787.361 282.533 787.347C287.002 787.274 290.255 787 295.866 787C299.321 787 309.747 787.361 314.519 787.361C319.291 787.361 319.913 782.647 317.96 782.213C309.198 780.305 302.604 777.658 299.799 775.142C299.287 774.671 298.615 774.412 297.919 774.419Z" fill="#263238"/>
<path d="M298.7 775.995C298.649 775.978 298.603 775.947 298.567 775.907C298.532 775.866 298.508 775.817 298.498 775.763C298.489 775.712 298.497 775.659 298.52 775.612C298.543 775.565 298.581 775.527 298.628 775.503C299.033 775.243 302.706 772.987 303.964 773.638C304.106 773.703 304.226 773.81 304.309 773.944C304.391 774.078 304.432 774.233 304.426 774.39C304.466 774.659 304.436 774.934 304.337 775.188C304.238 775.441 304.074 775.665 303.862 775.836C303.221 776.271 302.451 776.475 301.679 776.414C300.674 776.382 299.675 776.242 298.7 775.995ZM299.481 775.619C300.807 776.067 302.255 775.995 303.53 775.416C303.666 775.298 303.77 775.147 303.833 774.978C303.897 774.809 303.916 774.626 303.891 774.448C303.891 774.231 303.79 774.129 303.718 774.129C303.613 774.069 303.491 774.043 303.371 774.057C301.986 774.322 300.665 774.853 299.481 775.619Z" fill="#009966"/>
<path d="M298.626 776.053C298.587 776.025 298.555 775.988 298.533 775.945C298.51 775.903 298.498 775.856 298.496 775.808C298.496 775.649 298.785 772.381 300.101 771.311C300.256 771.175 300.438 771.073 300.635 771.014C300.832 770.954 301.039 770.937 301.243 770.963C301.449 770.96 301.648 771.029 301.807 771.159C301.966 771.289 302.074 771.47 302.111 771.672C302.342 772.872 300.072 775.374 298.901 776.01H298.771C298.728 776.039 298.678 776.054 298.626 776.053ZM300.463 771.629C299.667 772.652 299.198 773.892 299.118 775.186C300.289 774.304 301.735 772.409 301.591 771.672C301.591 771.672 301.591 771.397 301.2 771.397H301.07C300.845 771.394 300.628 771.477 300.463 771.629Z" fill="#009966"/>
<path d="M356.482 774.058H342.672C342.446 774.056 342.225 774.133 342.049 774.275C341.872 774.418 341.75 774.617 341.704 774.838L339.462 784.96C339.373 785.396 339.459 785.849 339.703 786.22C339.947 786.592 340.329 786.851 340.764 786.941C340.884 786.956 341.005 786.956 341.125 786.941C345.593 786.869 348.847 786.594 354.457 786.594C357.913 786.594 368.339 786.956 373.111 786.956C377.883 786.956 378.504 782.242 376.552 781.808C367.789 779.899 361.196 777.253 358.39 774.737C357.865 774.275 357.182 774.031 356.482 774.058Z" fill="#263238"/>
<path d="M357.263 775.633C357.211 775.616 357.166 775.586 357.13 775.545C357.094 775.505 357.07 775.455 357.06 775.402C357.051 775.35 357.059 775.297 357.083 775.251C357.106 775.204 357.144 775.166 357.19 775.142C357.595 774.882 361.268 772.626 362.526 773.277C362.669 773.342 362.789 773.449 362.871 773.582C362.954 773.716 362.995 773.871 362.989 774.028C363.029 774.298 362.998 774.573 362.899 774.826C362.8 775.08 362.637 775.303 362.425 775.474C361.784 775.909 361.014 776.113 360.241 776.053C359.236 776.021 358.238 775.88 357.263 775.633ZM358.043 775.257C359.37 775.706 360.817 775.633 362.092 775.055C362.228 774.936 362.333 774.786 362.396 774.616C362.459 774.447 362.479 774.265 362.454 774.086C362.454 773.869 362.353 773.768 362.28 773.768C362.175 773.707 362.054 773.682 361.933 773.696C360.549 773.957 359.228 774.482 358.043 775.243V775.257Z" fill="#009966"/>
<path d="M357.191 775.691C357.152 775.663 357.12 775.626 357.097 775.583C357.075 775.541 357.062 775.493 357.061 775.445C357.061 775.286 357.35 772.018 358.666 770.948C358.82 770.812 359.002 770.711 359.199 770.651C359.396 770.591 359.604 770.574 359.808 770.601C360.013 770.598 360.213 770.667 360.371 770.797C360.53 770.926 360.638 771.108 360.676 771.31C360.907 772.51 358.637 775.011 357.465 775.648H357.335C357.293 775.677 357.242 775.692 357.191 775.691ZM359.013 771.266C358.217 772.29 357.748 773.53 357.668 774.823C358.839 773.941 360.285 772.047 360.141 771.31C360.141 771.31 360.141 771.035 359.75 771.035H359.62C359.395 771.032 359.178 771.115 359.013 771.266Z" fill="#009966"/>
<path opacity="0.2" d="M345.709 751.283L357.45 752.527L356.308 765.57L344.566 764.341L345.709 751.283Z" fill="black"/>
<path opacity="0.2" d="M285.902 749.418H297.282L296.79 762.996H285.41L285.902 749.418Z" fill="black"/>
<path d="M290.601 518.434H350.928C356.712 549.754 374.628 660.604 361.745 759.381L341.313 756.85C341.313 756.85 343.207 625.727 325.175 577.257C323.107 603.198 320.635 630.759 318.495 645.479C313.246 681.629 302.01 760.639 302.01 760.639H281.217C281.217 760.639 285.468 685.013 287.449 649.441C289.589 610.92 290.515 526.358 290.601 518.434Z" fill="#263238"/>
<path opacity="0.2" d="M281.217 760.638H302.01C302.01 760.638 313.246 681.629 318.495 645.479C320.635 630.802 323.093 603.198 325.175 577.257C328.144 585.754 330.398 594.484 331.914 603.357C342.686 661.501 341.313 756.85 341.313 756.85L361.73 759.742C374.614 660.965 356.669 549.522 350.928 519.156H290.601C290.515 526.386 289.589 611.281 287.435 649.846C285.468 685.374 281.217 760.638 281.217 760.638Z" fill="white"/>
<path d="M364.073 764.138L338.797 760.379L339.578 753.38L365.866 756.821L364.073 764.138Z" fill="#009966"/>
<path d="M304.512 760.812H279.988V753.481L305.438 753.004L304.512 760.812Z" fill="#009966"/>
<path d="M280.219 419.397C283.559 431.669 285.976 444.173 287.449 456.805C287.926 460.681 288.316 464.484 288.634 468.171C289.054 472.856 289.343 477.368 289.574 481.648C289.864 487.07 289.95 493.476 289.936 499.781C289.936 514.241 289.329 528.194 289.329 528.194C300.897 531.086 334.328 529.163 352.591 527.833C354.743 510.37 355.304 492.748 354.268 475.184C353.66 463.586 352.381 452.032 350.437 440.581C349.434 434.447 348.048 428.381 346.286 422.42C345.615 420.313 344.354 418.443 342.652 417.03C340.95 415.618 338.88 414.724 336.685 414.452C334.473 414.177 331.913 413.903 329.224 413.744C328.183 413.744 327.141 413.642 326.086 413.628C317.46 413.726 308.846 414.325 300.289 415.421C298.67 415.609 297.021 415.855 295.431 416.115C290.306 416.942 285.228 418.038 280.219 419.397Z" fill="#009966"/>
<path opacity="0.2" d="M338.84 433.365C344.807 446.978 349.936 460.944 354.196 475.184C353.588 463.585 352.309 452.031 350.364 440.581L338.84 433.365Z" fill="black"/>
<path d="M300.275 415.406C305.814 420.438 319.392 418.573 319.392 418.573C319.392 418.573 327.851 416.259 326.072 413.613C321.083 412.789 318.669 410.461 317.671 407.482C317.124 405.636 316.952 403.699 317.165 401.785C317.248 400.718 317.387 399.656 317.584 398.604L300.81 386.183C303.008 394.381 305.698 409.405 300.275 415.406Z" fill="#E4897B"/>
<path opacity="0.2" d="M304.686 394.078C305.351 404.2 313.622 406.919 317.7 407.483C317.153 405.636 316.981 403.699 317.193 401.785L304.686 394.078Z" fill="black"/>
<path d="M334.082 365.042C334.082 365.042 336.02 377.926 327.705 383.955C319.391 389.985 319.391 360.819 319.391 360.819L334.082 365.042Z" fill="#263238"/>
<path d="M330.901 389.653C330.554 390.807 330.143 391.941 329.672 393.051C329.446 393.545 329.195 394.028 328.92 394.497C326.948 398.005 323.718 400.635 319.883 401.857C316.938 402.857 313.747 402.864 310.799 401.877C307.85 400.89 305.306 398.963 303.558 396.391C303.004 395.585 302.52 394.734 302.112 393.846C299.22 388.062 300.376 381.815 301.461 372.055C301.714 369.439 302.632 366.931 304.128 364.77C305.623 362.608 307.646 360.865 310.005 359.706C312.364 358.547 314.98 358.01 317.605 358.147C320.23 358.284 322.776 359.089 325.002 360.487C333.952 366.025 333.909 379.921 330.901 389.653Z" fill="#E4897B"/>
<path d="M317.729 378.056C317.512 378.938 317.917 379.763 318.524 379.864C319.132 379.965 319.71 379.314 319.869 378.418C320.028 377.521 319.667 376.712 319.074 376.61C318.481 376.509 317.888 377.131 317.729 378.056Z" fill="#263238"/>
<path d="M327.937 379.791C327.72 380.673 328.139 381.512 328.732 381.613C329.325 381.714 329.932 381.049 330.091 380.167C330.251 379.285 329.875 378.446 329.296 378.345C328.718 378.244 328.081 378.938 327.937 379.791Z" fill="#263238"/>
<path d="M324.612 379.69C325.219 382.635 326.232 385.482 327.619 388.15C326.918 388.478 326.153 388.648 325.378 388.648C324.603 388.648 323.838 388.478 323.137 388.15L324.612 379.69Z" fill="#DE5753"/>
<path d="M315.126 374.195C315.219 374.227 315.319 374.233 315.416 374.213C315.513 374.192 315.602 374.146 315.675 374.08C316.154 373.607 316.737 373.253 317.377 373.045C318.017 372.836 318.697 372.78 319.362 372.879C319.431 372.896 319.502 372.9 319.571 372.89C319.641 372.879 319.708 372.855 319.769 372.819C319.829 372.783 319.882 372.735 319.924 372.678C319.966 372.622 319.996 372.557 320.013 372.489C320.03 372.421 320.034 372.35 320.023 372.28C320.013 372.21 319.989 372.143 319.953 372.083C319.916 372.022 319.869 371.97 319.812 371.928C319.755 371.886 319.691 371.855 319.623 371.838C318.783 371.687 317.919 371.74 317.104 371.991C316.289 372.243 315.546 372.686 314.938 373.284C314.839 373.384 314.783 373.519 314.783 373.66C314.783 373.801 314.839 373.936 314.938 374.036C314.991 374.099 315.054 374.153 315.126 374.195Z" fill="#263238"/>
<path d="M332.925 377.015C333.022 377.072 333.131 377.102 333.243 377.102C333.378 377.058 333.492 376.966 333.561 376.843C333.631 376.719 333.652 376.574 333.619 376.437C333.401 375.61 332.986 374.848 332.409 374.216C331.832 373.584 331.112 373.101 330.308 372.807C330.241 372.787 330.17 372.781 330.1 372.788C330.03 372.795 329.962 372.817 329.901 372.85C329.839 372.884 329.784 372.929 329.74 372.984C329.696 373.038 329.663 373.101 329.643 373.169C329.61 373.305 329.629 373.448 329.695 373.571C329.762 373.694 329.872 373.788 330.004 373.834C330.628 374.084 331.185 374.475 331.632 374.977C332.078 375.479 332.402 376.077 332.578 376.726C332.611 376.796 332.66 376.859 332.72 376.909C332.78 376.959 332.85 376.995 332.925 377.015Z" fill="#263238"/>
<path d="M312.855 361.528H298.063C296.617 365.389 296.313 371.997 297.34 379.864C298.656 389.986 302.632 394.555 302.632 394.555C300.232 389.74 300.955 380.341 302.517 380.095C304.078 379.849 303.963 381.671 303.963 381.671C307.462 379.488 310.585 373.357 309.501 369.019C308.908 366.633 312.855 361.528 312.855 361.528Z" fill="#263238"/>
<path d="M295.012 380.341C295.81 383.063 297.657 385.357 300.145 386.718C303.457 388.497 305.929 385.735 305.712 382.178C305.481 379.011 303.515 374.181 299.842 373.906C296.169 373.632 294.058 376.986 295.012 380.341Z" fill="#E4897B"/>
<path d="M306.71 366.387C306.71 366.387 313.145 361.962 316.716 361.962C320.288 361.962 322.5 364.955 325.306 365.389C328.111 365.823 328.877 363.943 328.877 363.943C328.877 363.943 333.447 365.085 333.88 368.527C333.88 368.527 337.163 362.367 334.459 359.084C331.755 355.802 325.783 354.226 325.783 354.226C325.783 354.226 325.638 349.498 319.637 347.921C313.636 346.345 295.475 353.503 297.036 364.232C298.598 374.962 306.71 366.387 306.71 366.387Z" fill="#263238"/>
<path opacity="0.3" d="M330.901 389.653C330.553 390.807 330.143 391.941 329.672 393.051C329.446 393.545 329.195 394.028 328.92 394.497C326.947 398.006 323.718 400.636 319.882 401.857C316.938 402.857 313.747 402.864 310.798 401.877C307.849 400.89 305.306 398.963 303.557 396.391C303.004 395.586 302.52 394.734 302.111 393.846C301.952 387.079 305.191 379.097 305.191 379.097L306.333 378.533C306.333 378.533 306.333 383.826 309.775 384.534C313.216 385.243 318.35 389.783 323.31 390.318C325.857 390.684 328.455 390.456 330.901 389.653Z" fill="black"/>
<path d="M320.867 392.646C319.54 392.624 318.238 392.281 317.072 391.646C315.906 391.012 314.911 390.105 314.172 389.002C314.138 388.936 314.13 388.86 314.148 388.788C314.167 388.716 314.211 388.653 314.273 388.612C314.335 388.574 314.409 388.562 314.479 388.578C314.549 388.595 314.61 388.638 314.649 388.699C315.355 389.704 316.286 390.531 317.368 391.114C318.45 391.696 319.653 392.018 320.881 392.054C320.954 392.054 321.024 392.082 321.076 392.134C321.127 392.186 321.156 392.255 321.156 392.328C321.158 392.365 321.153 392.402 321.14 392.436C321.126 392.47 321.106 392.501 321.08 392.527C321.054 392.553 321.023 392.573 320.989 392.586C320.955 392.599 320.918 392.605 320.881 392.603L320.867 392.646Z" fill="#263238"/>
<path opacity="0.2" d="M289.502 481.705C289.792 487.128 289.878 493.534 289.864 499.838C311.178 497.525 316.499 485.899 316.499 485.899L288.562 468.171C288.982 472.856 289.271 477.367 289.502 481.705Z" fill="black"/>
<path opacity="0.2" d="M325.176 577.257C328.145 585.755 330.399 594.485 331.914 603.358C333.606 580.222 326.853 555.784 326.853 555.784L325.176 577.257Z" fill="black"/>
<path d="M297.123 415.869C297.123 415.869 307.072 423.186 319.623 421.552C321.706 421.404 323.666 420.509 325.143 419.032C326.62 417.555 327.515 415.595 327.663 413.512L324.583 412.398C324.583 412.398 324.583 416.23 316.789 417.011C309.747 417.734 299.914 413.873 299.914 413.873L297.123 415.869Z" fill="#009966"/>
<path opacity="0.6" d="M297.123 415.869C297.123 415.869 307.072 423.186 319.623 421.552C321.706 421.404 323.666 420.509 325.143 419.032C326.62 417.555 327.515 415.595 327.663 413.512L324.583 412.398C324.583 412.398 324.583 416.23 316.789 417.011C309.747 417.734 299.914 413.873 299.914 413.873L297.123 415.869Z" fill="white"/>
<path d="M342.99 436.604L329.383 414.451C327.145 413.955 325.156 412.679 323.772 410.851C321.69 407.959 320.374 396.391 321.358 395.899C322.341 395.408 332.926 396.622 333.649 398.039C334.372 399.456 336.541 411.198 336.541 411.198L352.143 429.649L342.99 436.604Z" fill="#E4897B"/>
<path opacity="0.6" d="M301.982 441.477L303.428 452.047C303.428 452.047 332.03 451.484 346.057 452.337L345.189 441.752C345.189 441.752 320.014 438.903 301.982 441.477Z" fill="white"/>
<path d="M340.662 415.753C354.327 416.852 381.237 461.577 376.176 471.308C371.115 481.04 362.627 485.537 347.993 458.063C333.36 430.589 340.662 415.753 340.662 415.753Z" fill="#009966"/>
<path opacity="0.2" d="M340.662 415.753C354.327 416.852 381.237 461.577 376.176 471.308C371.115 481.04 362.627 485.537 347.993 458.063C333.36 430.589 340.662 415.753 340.662 415.753Z" fill="black"/>
<path d="M373.644 456.01C366.993 445.064 343.582 416.549 343.582 416.549L332.723 423.866C332.723 423.866 352.287 463.573 359.633 471.309C366.978 479.045 383.058 471.497 373.644 456.01Z" fill="#009966"/>
<path opacity="0.1" d="M373.644 456.01C366.993 445.064 343.582 416.549 343.582 416.549L332.723 423.866C332.723 423.866 352.287 463.573 359.633 471.309C366.978 479.045 383.058 471.497 373.644 456.01Z" fill="black"/>
<path d="M346.808 418.385L343.309 414.871L331.625 423.547L332.724 428.059L346.808 418.385Z" fill="#009966"/>
<path opacity="0.6" d="M346.808 418.385L343.309 414.871L331.625 423.547L332.724 428.059L346.808 418.385Z" fill="white"/>
<path d="M330.83 472.364L356.771 470.557C358.247 468.806 360.297 467.638 362.555 467.26C366.156 466.768 376.929 470.918 376.929 472.032C376.929 473.145 370.942 481.937 369.352 481.937C367.761 481.937 356.338 478.336 356.338 478.336L332.782 483.73L330.83 472.364Z" fill="#E4897B"/>
<path d="M280.335 419.527C280.335 419.527 274.869 422.636 274.074 437.834C273.365 451.542 277.776 480.708 286.365 487.084C300.102 497.206 349.989 483.224 349.989 483.224L348.066 468.503C348.066 468.503 310.296 473.521 301.302 468.503C292.308 463.486 289.618 437.834 289.618 437.834C289.618 437.834 285.859 421.089 280.335 419.527Z" fill="#009966"/>
<path opacity="0.1" d="M280.335 419.527C280.335 419.527 274.869 422.636 274.074 437.834C273.365 451.542 277.776 480.708 286.365 487.084C300.102 497.206 349.989 483.224 349.989 483.224L348.066 468.503C348.066 468.503 310.296 473.521 301.302 468.503C292.308 463.486 289.618 437.834 289.618 437.834C289.618 437.834 285.859 421.089 280.335 419.527Z" fill="black"/>
<path d="M344.451 467.361L346.953 485.841L351.537 484.063L350.365 467.651L344.451 467.361Z" fill="#009966"/>
<path opacity="0.6" d="M344.451 467.361L346.953 485.841L351.537 484.063L350.365 467.651L344.451 467.361Z" fill="white"/>
</svg>
