<svg width="102" height="84" viewBox="0 0 102 84" fill="none" xmlns="http://www.w3.org/2000/svg">
<rect x="1" y="1" width="100" height="82" rx="6" fill="white" stroke="#009966" stroke-width="2"/>
<g clip-path="url(#clip0)">
<path d="M70.4792 30.3857V29.9863C70.4792 27.5904 68.6177 25.727 66.2244 25.727H51.5983L48.9391 22.5324C48.6731 22.1331 48.2742 22 47.8753 22H35.7756C33.5152 22 31.5208 23.8635 31.5208 26.2594V30.3857C28.8615 30.785 27 33.0478 27 35.7099V35.843L29.6593 55.6758C29.6593 58.6041 32.1856 61 35.1108 61H67.0222C69.9474 61 72.4737 58.6041 72.4737 55.6758L75.133 35.843V35.7099C75 33.0478 73.0055 30.785 70.4792 30.3857ZM34.313 26.2594C34.313 25.4608 34.9778 24.7952 35.7756 24.7952H47.2105L49.8698 27.9898C50.1357 28.256 50.5346 28.5222 50.9335 28.5222H66.0914C66.8892 28.5222 67.554 29.1877 67.554 29.9863V30.3857H34.313V26.2594ZM69.5485 55.4096V55.5427C69.5485 57.0068 68.3518 58.2048 66.8892 58.2048H34.9778C33.5152 58.2048 32.3186 57.0068 32.3186 55.6758V55.5427L29.6593 35.7099C29.6593 34.2457 30.856 33.0478 32.3186 33.0478H69.5485C71.0111 33.0478 72.2078 34.2457 72.2078 35.5768L69.5485 55.4096Z" fill="#009966"/>
</g>
<defs>
<clipPath id="clip0">
<rect width="48" height="39" fill="white" transform="translate(27 22)"/>
</clipPath>
</defs>
</svg>
