<svg width="102" height="84" viewBox="0 0 102 84" fill="none" xmlns="http://www.w3.org/2000/svg">
<rect x="1" y="1" width="100" height="82" rx="6" fill="white" stroke="#009966" stroke-width="2"/>
<g clip-path="url(#clip0)">
<path d="M76.8767 37.9231L72.1921 35.7656L68.0652 29.0659C66.9498 27.1355 64.8306 26 62.5998 26H45.1998C43.1921 26 41.2959 27.022 39.9575 28.6117L34.7152 35.652L25.9036 38.1502C23.6729 38.8315 22.1113 40.8755 22.1113 43.2601V46.6667C22.1113 49.619 24.4536 51.8901 27.3536 51.8901H28.1344C29.0267 55.5238 32.7075 57.5678 36.1652 56.6593C38.5075 56.0916 40.2921 54.1612 40.8498 51.8901H60.7036C61.596 55.5238 65.2767 57.5678 68.7344 56.6593C71.0767 56.0916 72.8613 54.1612 73.419 51.8901H74.869C77.769 51.8901 80.1113 49.619 80.1113 46.6667V42.8059C79.9998 40.6484 78.7729 38.8315 76.8767 37.9231ZM34.3806 54.5018C32.0383 54.5018 30.2536 52.5714 30.2536 50.3004C30.2536 47.9157 32.1498 46.0989 34.3806 46.0989C36.7229 46.0989 38.5075 48.0293 38.5075 50.3004C38.5075 52.685 36.7229 54.5018 34.3806 54.5018ZM66.9498 54.5018C64.6075 54.5018 62.8229 52.5714 62.8229 50.3004C62.8229 47.9157 64.719 46.0989 66.9498 46.0989C69.2921 46.0989 71.0767 48.0293 71.0767 50.3004C71.1883 52.685 69.2921 54.5018 66.9498 54.5018ZM77.546 46.6667C77.546 48.2564 76.2075 49.3919 74.7575 49.3919H73.5306C73.0844 45.6447 69.8498 43.033 66.2806 43.4872C63.269 43.8278 60.8152 46.326 60.4806 49.3919H40.9613C40.5152 45.6447 37.2806 43.033 33.7113 43.4872C30.6998 43.8278 28.2459 46.326 27.9113 49.3919H27.2421C25.6806 49.3919 24.4536 48.1429 24.4536 46.6667V43.2601C24.4536 42.011 25.3459 40.8755 26.4613 40.5348L35.719 37.9231C35.9421 37.8095 36.1652 37.696 36.3883 37.4689L41.8536 30.0879C42.6344 29.0659 43.8613 28.3846 45.0883 28.3846H62.4883C63.9383 28.3846 65.2767 29.1795 65.946 30.315L70.296 37.2418C70.4075 37.4689 70.6306 37.5824 70.8536 37.696L75.8729 39.967C76.8767 40.4212 77.546 41.4432 77.546 42.5788V46.6667Z" fill="#009966"/>
</g>
<defs>
<clipPath id="clip0">
<rect width="58" height="31" fill="white" transform="translate(22 26)"/>
</clipPath>
</defs>
</svg>
