<svg width="102" height="84" viewBox="0 0 102 84" fill="none" xmlns="http://www.w3.org/2000/svg">
<rect x="1" y="1" width="100" height="82" rx="6" fill="white" stroke="#009966" stroke-width="2"/>
<g clip-path="url(#clip0)">
<path d="M50.9366 23C45.2996 23 40.6875 27.5773 40.6875 33.299C40.6875 39.0206 45.2996 43.5979 51.0647 43.5979C56.8299 43.5979 61.442 39.0206 61.442 33.299C61.3138 27.5773 56.7017 23 50.9366 23ZM50.9366 41.1821C46.5807 41.1821 42.9936 37.622 42.9936 33.299C42.9936 28.9759 46.5807 25.4158 50.9366 25.4158C55.2925 25.4158 58.8797 28.9759 58.8797 33.299C58.8797 37.622 55.4206 41.1821 50.9366 41.1821Z" fill="#009966"/>
<path d="M67.9753 51.3542C67.5909 50.4641 66.9504 49.7012 66.3098 48.9384C63.3632 45.3782 58.4948 44.1067 53.8827 45.5054C51.961 46.1411 49.9112 46.1411 47.8614 45.5054C46.5803 45.1239 45.2991 44.8696 44.1461 44.8696C40.8151 44.8696 37.6123 46.2683 35.5625 48.8112C34.9219 49.5741 34.4094 50.337 33.897 51.227C33.3845 52.1171 33.1283 53.1342 32.8721 58.7287C32.8721 59.1102 33.0002 59.3645 33.2564 59.6188C33.6408 59.8731 33.897 60.0002 34.2813 60.0002H67.8472C68.1034 60.0002 68.4877 59.8731 68.744 59.6188C69.0002 59.3645 69.1283 59.1102 69.1283 58.7287C68.744 53.0071 68.4877 52.117 67.9753 51.3542ZM35.4343 57.5844V57.4573C35.5625 53.3885 35.8187 52.7528 36.0749 52.3713C36.4593 51.6085 36.8436 50.9727 37.3561 50.4641C39.6621 47.6669 43.5055 46.6497 47.0927 47.794C49.5269 48.5569 52.0892 48.5569 54.5233 47.794C58.2386 46.6497 61.9539 47.6669 64.26 50.337C64.7724 50.9727 65.2849 51.7356 65.5411 52.3713C65.6692 52.7528 65.9254 53.2614 66.1817 57.3301V57.4573H35.4343V57.5844Z" fill="#009966"/>
</g>
<defs>
<clipPath id="clip0">
<rect width="36" height="37" fill="white" transform="translate(33 23)"/>
</clipPath>
</defs>
</svg>
