<svg width="102" height="84" viewBox="0 0 102 84" fill="none" xmlns="http://www.w3.org/2000/svg">
<rect x="1" y="1" width="100" height="82" rx="6" fill="white" stroke="#009966" stroke-width="2"/>
<g clip-path="url(#clip0)">
<path d="M63.625 25.3496H59.5625V25.1947C59.5625 24.2655 59.25 23.491 58.625 22.8715C58 22.252 57.2188 21.9422 56.2812 21.9422H55.0312C53.9375 19.4641 51.125 18.3799 48.4687 19.3092C47.375 19.7739 46.4375 20.7032 45.8125 21.9422H44.5625C42.8438 21.9422 41.4375 23.3362 41.4375 25.1947V25.3496H37.2188C34.875 25.3496 33 27.2082 33 29.6863V60.8176C33 63.1409 34.875 64.9995 37.375 64.9995H63.7813C64.875 64.9995 65.9688 64.5348 66.75 63.7604C67.5312 62.986 68 61.9018 68 60.6628V29.6863C68 27.2082 66.125 25.3496 63.625 25.3496ZM44.0938 28.6022V25.1947C44.0938 25.0399 44.0938 24.885 44.25 24.7301C44.4062 24.5752 44.5625 24.5752 44.7188 24.5752H46.9062C47.5312 24.5752 48 24.1106 48.1562 23.491C48.4688 22.4069 49.4062 21.6325 50.5 21.6325C51.5938 21.6325 52.6875 22.4069 52.8438 23.491C53 24.1106 53.4688 24.5752 54.0938 24.5752H56.2812C56.4375 24.5752 56.5938 24.5752 56.75 24.7301C56.9062 24.885 56.9062 25.0399 56.9062 25.1947V28.4473H44.0938V28.6022ZM35.6562 29.6863C35.6562 28.757 36.4375 27.9826 37.2188 27.9826H41.2812V29.8412C41.2812 30.151 41.4375 30.4607 41.5938 30.7705C41.75 31.0803 42.2188 31.2351 42.5312 31.2351H58.1562C58.4688 31.2351 58.7813 31.0803 59.0938 30.9254C59.4063 30.6156 59.5625 30.3059 59.5625 29.8412V27.9826H63.625C64.5625 27.9826 65.1875 28.757 65.1875 29.6863V60.8176C65.1875 61.7469 64.4062 62.3665 63.625 62.3665H37.2188C36.75 62.3665 36.4375 62.2116 36.125 61.9018C35.8125 61.5921 35.6562 61.2823 35.6562 60.8176V29.6863Z" fill="#009966"/>
<path d="M42.0625 39.2893H58.9375C59.875 39.2893 60.8125 38.6698 60.8125 37.8954C60.8125 37.121 60.0313 36.5015 58.9375 36.5015H42.0625C41.125 36.5015 40.1875 37.121 40.1875 37.8954C40.1875 38.6698 41.125 39.2893 42.0625 39.2893Z" fill="#009966"/>
<path d="M42.0625 47.4983H58.9375C59.875 47.4983 60.8125 46.8788 60.8125 46.1044C60.8125 45.33 60.0313 44.7104 58.9375 44.7104H42.0625C41.125 44.7104 40.1875 45.33 40.1875 46.1044C40.1875 46.8788 41.125 47.4983 42.0625 47.4983Z" fill="#009966"/>
<path d="M42.0625 55.7068H58.9375C59.875 55.7068 60.8125 55.0873 60.8125 54.3129C60.8125 53.5385 60.0313 52.9189 58.9375 52.9189H42.0625C41.125 52.9189 40.1875 53.5385 40.1875 54.3129C40.1875 55.0873 41.125 55.7068 42.0625 55.7068Z" fill="#009966"/>
</g>
<defs>
<clipPath id="clip0">
<rect width="35" height="46" fill="white" transform="translate(33 19)"/>
</clipPath>
</defs>
</svg>
