<svg width="110" height="110" viewBox="0 0 110 110" fill="none" xmlns="http://www.w3.org/2000/svg">
<circle cx="54.6792" cy="54.6792" r="52.6792" fill="#F6F6F6" stroke="#009966" stroke-width="4"/>
<path d="M55.0001 27C39.5361 27 27 39.5361 27 55.0001C27 70.4641 39.5361 83.0001 55.0001 83.0001C70.4641 83.0001 83.0001 70.4641 83.0001 55.0001C82.9837 39.543 70.4573 27.0165 55.0001 27ZM55.0001 79.0001C41.7452 79.0001 31 68.2549 31 55.0001C31 41.7452 41.7452 31 55.0001 31C68.2549 31 79.0001 41.7452 79.0001 55.0001C78.9858 68.2491 68.2491 78.9858 55.0001 79.0001Z" fill="#009966"/>
<path d="M45 54.9999C47.2091 54.9999 48.9999 53.2091 48.9999 51C48.9999 48.7908 47.2091 47 45 47C42.7908 47 41 48.7908 41 51C41 53.2091 42.7908 54.9999 45 54.9999Z" fill="#009966"/>
<path d="M65 54.9999C67.2091 54.9999 69 53.2091 69 51C69 48.7908 67.2091 47 65 47C62.7909 47 61 48.7908 61 51C61 53.2091 62.7909 54.9999 65 54.9999Z" fill="#009966"/>
<path d="M62.6585 61.7588C61.9979 60.8735 60.7447 60.6914 59.8595 61.3521C59.8211 61.3807 59.784 61.4106 59.7478 61.4419C56.9195 63.5077 53.08 63.5077 50.2517 61.4419C49.416 60.7196 48.153 60.8116 47.4308 61.6472C46.7084 62.4829 46.8004 63.7459 47.6361 64.4682C47.6722 64.4995 47.7094 64.5293 47.7477 64.5579C52.0287 67.83 57.9707 67.83 62.2517 64.5579C63.1371 63.8972 63.3192 62.644 62.6585 61.7588Z" fill="#009966"/>
</svg>
