<svg width="30" height="30" viewBox="0 0 30 30" fill="none" xmlns="http://www.w3.org/2000/svg">
<path d="M14.7408 0C6.59977 0 0 6.59977 0 14.7408C0 22.0424 5.31435 28.0893 12.2823 29.2602V17.8161H8.72642V13.6979H12.2823V10.6612C12.2823 7.13785 14.4343 5.21781 17.5779 5.21781C19.0834 5.21781 20.3773 5.33 20.7529 5.37941V9.06228L18.5726 9.06334C16.8634 9.06334 16.5339 9.87538 16.5339 11.0674V13.6958H20.6122L20.0803 17.814H16.5339V29.3587C23.8272 28.471 29.4814 22.2701 29.4814 14.7366C29.4814 6.59977 22.8817 0 14.7408 0Z" fill="white"/>
</svg>
