<svg width="31" height="30" viewBox="0 0 31 30" fill="none" xmlns="http://www.w3.org/2000/svg">
<path d="M15.6032 0C7.49724 0 0.923828 6.57341 0.923828 14.6793C0.923828 22.7853 7.49724 29.3587 15.6032 29.3587C23.7091 29.3587 30.2825 22.7853 30.2825 14.6793C30.2825 6.57341 23.7091 0 15.6032 0ZM22.3056 11.4454C22.3121 11.5899 22.3152 11.735 22.3152 11.8808C22.3152 16.3331 18.9263 21.4671 12.7287 21.4673H12.7289H12.7287C10.8259 21.4673 9.0553 20.9096 7.56421 19.9538C7.82784 19.985 8.09618 20.0004 8.36788 20.0004C9.94656 20.0004 11.3993 19.462 12.5527 18.5582C11.0777 18.5308 9.83411 17.5567 9.40495 16.2179C9.61035 16.2574 9.82157 16.2789 10.0382 16.2789C10.3457 16.2789 10.6436 16.2374 10.9267 16.1601C9.38502 15.8515 8.22363 14.489 8.22363 12.8574C8.22363 12.8422 8.22363 12.8285 8.22408 12.8144C8.67811 13.0669 9.19731 13.2187 9.75012 13.2357C8.84543 12.6321 8.25073 11.6002 8.25073 10.4312C8.25073 9.81386 8.41761 9.23552 8.707 8.73759C10.3686 10.7763 12.8517 12.1171 15.652 12.258C15.5942 12.0112 15.5644 11.7541 15.5644 11.4897C15.5644 9.62974 17.0734 8.12072 18.9341 8.12072C19.9033 8.12072 20.7787 8.5304 21.3935 9.18534C22.1611 9.03393 22.8819 8.75349 23.5331 8.36756C23.2811 9.15399 22.7471 9.81386 22.0514 10.2311C22.733 10.1496 23.3825 9.96886 23.9862 9.70052C23.5353 10.3763 22.9635 10.9699 22.3056 11.4454V11.4454Z" fill="white"/>
</svg>
