<svg width="15" height="15" viewBox="0 0 15 15" fill="none" xmlns="http://www.w3.org/2000/svg">
<path d="M12.8033 2.19669C11.3868 0.780144 9.50329 0 7.5 0C5.4966 0 3.61324 0.780144 2.19669 2.19669C0.780144 3.61324 0 5.4966 0 7.5C0 9.50329 0.780144 11.3868 2.19669 12.8033C3.61324 14.2199 5.4966 15 7.5 15C9.50329 15 11.3868 14.2199 12.8033 12.8033C14.2199 11.3868 15 9.50329 15 7.5C15 5.4966 14.2199 3.61324 12.8033 2.19669ZM3.75996 12.9605C4.07364 11.1544 5.63873 9.82224 7.5 9.82224C9.36138 9.82224 10.9264 11.1544 11.24 12.9605C10.1752 13.6922 8.8868 14.1211 7.5 14.1211C6.1132 14.1211 4.82483 13.6922 3.75996 12.9605ZM5.11528 6.55861C5.11528 5.24357 6.18507 4.17389 7.5 4.17389C8.81493 4.17389 9.88472 5.24368 9.88472 6.55861C9.88472 7.87354 8.81493 8.94333 7.5 8.94333C6.18507 8.94333 5.11528 7.87354 5.11528 6.55861ZM12.0013 12.3509C11.7648 11.5101 11.295 10.7473 10.6365 10.1514C10.2325 9.78573 9.77268 9.49722 9.2783 9.29386C10.1719 8.71101 10.7637 7.70267 10.7637 6.55861C10.7637 4.75903 9.29958 3.29498 7.5 3.29498C5.70042 3.29498 4.23637 4.75903 4.23637 6.55861C4.23637 7.70267 4.82826 8.71101 5.7217 9.29386C5.22743 9.49722 4.76749 9.78561 4.36352 10.1513C3.70514 10.7471 3.23524 11.51 2.9987 12.3508C1.69579 11.1408 0.878906 9.41414 0.878906 7.5C0.878906 3.84911 3.84911 0.878906 7.5 0.878906C11.1509 0.878906 14.1211 3.84911 14.1211 7.5C14.1211 9.41425 13.3042 11.1409 12.0013 12.3509Z" fill="#131313"/>
</svg>
