<svg width="110" height="110" viewBox="0 0 110 110" fill="none" xmlns="http://www.w3.org/2000/svg">
<circle cx="54.6792" cy="54.6792" r="52.6792" fill="#F6F6F6" stroke="#009966" stroke-width="4"/>
<g clip-path="url(#clip0)">
<path d="M74.2102 33.8584H34.9076C34.0092 33.8584 33.2764 34.5966 33.2764 35.5016V75.5338C33.2764 76.4387 34.0092 77.177 34.9076 77.177H74.2102C75.1085 77.177 75.8414 76.4387 75.8414 75.5338V35.5016C75.8414 34.5966 75.1085 33.8584 74.2102 33.8584ZM72.579 73.8549H36.6806C37.4844 69.1158 41.6215 65.5793 46.4206 65.5793H46.7988C48.8319 65.5793 50.7823 66.1985 52.4371 67.3535C52.8036 67.6035 53.2645 67.6988 53.7019 67.6155C54.1392 67.5202 54.5175 67.2582 54.7539 66.8772C57.5908 62.2929 62.4726 59.5662 67.8272 59.5662H72.579V73.8549ZM72.579 56.2797H67.8272C61.8697 56.2797 56.4442 59.0184 52.8981 63.8051C51.0305 62.8168 48.9265 62.3048 46.8106 62.3048H46.4324C42.6144 62.3048 39.0565 63.948 36.5506 66.8296V37.1448H72.5908V56.2797H72.579Z" fill="#009966"/>
<path d="M48.7137 42.7415C45.0021 42.7415 41.9761 45.7778 41.9761 49.5286C41.9761 51.3385 42.6735 53.0412 43.9501 54.3272C45.2267 55.6132 46.917 56.3157 48.7137 56.3157C52.4253 56.3157 55.4513 53.2794 55.4513 49.5405C55.4513 45.7778 52.4371 42.7415 48.7137 42.7415ZM48.7137 53.0174C46.7988 53.0174 45.2385 51.4457 45.2385 49.5167C45.2385 47.5877 46.7988 46.0159 48.7137 46.0159C50.6286 46.0159 52.1888 47.5877 52.1888 49.5167C52.1888 51.4457 50.6286 53.0174 48.7137 53.0174Z" fill="#009966"/>
<path d="M76.9173 27H32.2128C29.3404 27 27 29.3576 27 32.2511V78.7489C27 81.6424 29.3404 84 32.2128 84H76.9173C79.4113 84 81.5035 82.2258 82.0118 79.8682V31.1318C81.5035 28.7742 79.4113 27 76.9173 27ZM76.9173 80.7136H32.2128C31.1371 80.7136 30.2624 79.8325 30.2624 78.7489V32.2511C30.2624 31.1675 31.1371 30.2864 32.2128 30.2864H76.9173C77.9929 30.2864 78.8676 31.1675 78.8676 32.2511V78.7489C78.8558 79.8325 77.9811 80.7136 76.9173 80.7136Z" fill="#009966"/>
</g>
<defs>
<clipPath id="clip0">
<rect width="55" height="57" fill="white" transform="translate(27 27)"/>
</clipPath>
</defs>
</svg>
