<svg width="31" height="31" viewBox="0 0 31 31" fill="none" xmlns="http://www.w3.org/2000/svg">
<path d="M15.9237 0C7.59872 0 0.847656 6.75107 0.847656 15.0761C0.847656 23.4011 7.59872 30.1522 15.9237 30.1522C24.2488 30.1522 30.9998 23.4011 30.9998 15.0761C30.9998 6.75107 24.2488 0 15.9237 0ZM11.5428 22.7908H7.87109V11.7444H11.5428V22.7908ZM9.70707 10.236H9.68314C8.45103 10.236 7.65416 9.38782 7.65416 8.32778C7.65416 7.24382 8.47542 6.41912 9.73145 6.41912C10.9875 6.41912 11.7604 7.24382 11.7844 8.32778C11.7844 9.38782 10.9875 10.236 9.70707 10.236ZM24.7822 22.7908H21.111V16.8812C21.111 15.3961 20.5794 14.3832 19.2509 14.3832C18.2366 14.3832 17.6325 15.0664 17.367 15.726C17.27 15.962 17.2463 16.2919 17.2463 16.622V22.7908H13.5748C13.5748 22.7908 13.6229 12.7807 13.5748 11.7444H17.2463V13.3084C17.7342 12.5557 18.6072 11.4851 20.5552 11.4851C22.9709 11.4851 24.7822 13.0639 24.7822 16.4568V22.7908Z" fill="white"/>
</svg>
