<svg width="110" height="110" viewBox="0 0 110 110" fill="none" xmlns="http://www.w3.org/2000/svg">
<circle cx="54.6792" cy="54.6792" r="52.6792" fill="#F6F6F6" stroke="#009966" stroke-width="4"/>
<path d="M57.0006 56.9999H53.0006C51.896 56.9999 51.0006 56.1045 51.0006 54.9999V52.9998C51.0006 51.8952 51.896 50.9998 53.0006 50.9998H57.0006C58.1052 50.9998 59.0006 51.8952 59.0006 52.9998C59.0006 54.1044 59.896 54.9999 61.0005 54.9999C62.105 54.9999 63.0006 54.1044 63.0006 52.9998C63.0006 49.6861 60.3143 46.9998 57.0006 46.9998V44.9998C57.0006 43.8952 56.1051 42.9998 55.0005 42.9998C53.8959 42.9998 53.0005 43.8952 53.0005 44.9998V46.9998C49.6868 46.9998 47.0005 49.6861 47.0005 52.9998V54.9999C47.0005 58.3136 49.6868 60.9999 53.0005 60.9999H57.0006C58.1052 60.9999 59.0006 61.8953 59.0006 62.9999V64.9999C59.0006 66.1045 58.1052 67 57.0006 67H53.0006C51.896 67 51.0006 66.1045 51.0006 64.9999C51.0006 63.8953 50.1051 62.9999 49.0005 62.9999C47.8959 62.9999 47.0005 63.8953 47.0005 64.9999C47.0005 68.3136 49.6868 70.9999 53.0005 70.9999V72.9998C53.0005 74.1045 53.8959 74.9999 55.0005 74.9999C56.1051 74.9999 57.0006 74.1045 57.0006 72.9998V70.9998C60.3143 70.9998 63.0006 68.3135 63.0006 64.9998V62.9998C63.0006 59.6862 60.3143 56.9999 57.0006 56.9999Z" fill="#009966"/>
<path d="M63.714 37.186L66.898 27.632C67.2471 26.584 66.6805 25.4515 65.6325 25.1025C65.4284 25.0346 65.2149 25 65 25H45C43.8954 24.9998 42.9997 25.895 42.9995 26.9996C42.9995 27.2145 43.0341 27.4281 43.102 27.632L46.286 37.186C35.2808 38.5621 27.017 47.9091 27 58.9999V70.9999C27.0066 76.52 31.4798 80.9933 37 80.9999H72.9999C78.52 80.9933 82.9933 76.52 82.9999 70.9999V58.9999C82.9829 47.9091 74.7192 38.5621 63.714 37.186ZM62.226 29L59.5579 37H50.4419L47.7739 29H62.226ZM78.9999 70.9999C78.9999 74.3136 76.3136 76.9999 72.9999 76.9999H37C33.6862 76.9999 31 74.3136 31 70.9999V58.9999C31.012 49.0638 39.0639 41.012 48.9999 40.9999H60.9999C70.936 41.012 78.9879 49.0638 78.9999 58.9999V70.9999Z" fill="#009966"/>
</svg>
