<svg width="563" height="439" viewBox="0 0 563 439" fill="none" xmlns="http://www.w3.org/2000/svg">
<path d="M562.261 400.423H526.069V400.75H562.261V400.423Z" fill="#EBEBEB"/>
<path d="M431.594 403.988H368.912V404.316H431.594V403.988Z" fill="#EBEBEB"/>
<path d="M524.677 388.259H440.057V388.586H524.677V388.259Z" fill="#EBEBEB"/>
<path d="M35.7926 390.461H9.02441V390.789H35.7926V390.461Z" fill="#EBEBEB"/>
<path d="M125.159 390.461H48.1953V390.789H125.159V390.461Z" fill="#EBEBEB"/>
<path d="M275.843 395.992H172.181V396.321H275.843V395.992Z" fill="#EBEBEB"/>
<path d="M29.8766 283.149H0.366211V379.333H29.8766V283.149Z" fill="#FAFAFA"/>
<path d="M55.7121 304.252H26.2017V379.333H55.7121V304.252Z" fill="#FAFAFA"/>
<path d="M74.5876 242.385H45.0771V379.333H74.5876V242.385Z" fill="#FAFAFA"/>
<path d="M94.2008 131.338H64.6904V379.333H94.2008V131.338Z" fill="#FAFAFA"/>
<path d="M167.197 150.645H88.0063V379.333H167.197V150.645Z" fill="#FAFAFA"/>
<path d="M475.094 379.333H508.808V313.507H475.094V379.333Z" fill="#FAFAFA"/>
<path d="M445.556 379.333H479.27V327.951H445.556V379.333Z" fill="#FAFAFA"/>
<path d="M424.007 379.333H457.722V285.6H424.007V379.333Z" fill="#FAFAFA"/>
<path d="M401.596 379.333H435.311V209.603H401.596V379.333Z" fill="#FAFAFA"/>
<path d="M419.72 171.984H316.253V379.333H419.72V171.984Z" fill="#F0F0F0"/>
<path d="M409.865 180.675H404.937V205.907H409.865V180.675Z" fill="#F5F5F5"/>
<path d="M409.865 220.142H404.937V245.374H409.865V220.142Z" fill="#F5F5F5"/>
<path d="M409.865 259.595H404.937V284.827H409.865V259.595Z" fill="#F5F5F5"/>
<path d="M409.865 299.049H404.937V324.281H409.865V299.049Z" fill="#F5F5F5"/>
<path d="M409.865 338.516H404.937V363.748H409.865V338.516Z" fill="#F5F5F5"/>
<path d="M392.409 180.675H387.481V205.907H392.409V180.675Z" fill="#F5F5F5"/>
<path d="M392.409 220.142H387.481V245.374H392.409V220.142Z" fill="#F5F5F5"/>
<path d="M392.409 259.595H387.481V284.827H392.409V259.595Z" fill="#F5F5F5"/>
<path d="M392.409 299.049H387.481V324.281H392.409V299.049Z" fill="#F5F5F5"/>
<path d="M392.409 338.516H387.481V363.748H392.409V338.516Z" fill="#F5F5F5"/>
<path d="M374.954 180.675H370.026V205.907H374.954V180.675Z" fill="#F5F5F5"/>
<path d="M374.954 220.142H370.026V245.374H374.954V220.142Z" fill="#F5F5F5"/>
<path d="M374.954 259.595H370.026V284.827H374.954V259.595Z" fill="#F5F5F5"/>
<path d="M374.954 299.049H370.026V324.281H374.954V299.049Z" fill="#F5F5F5"/>
<path d="M374.954 338.516H370.026V363.748H374.954V338.516Z" fill="#F5F5F5"/>
<path d="M357.498 180.675H352.57V205.907H357.498V180.675Z" fill="#F5F5F5"/>
<path d="M357.498 220.142H352.57V245.374H357.498V220.142Z" fill="#F5F5F5"/>
<path d="M357.498 259.595H352.57V284.827H357.498V259.595Z" fill="#F5F5F5"/>
<path d="M357.498 299.049H352.57V324.281H357.498V299.049Z" fill="#F5F5F5"/>
<path d="M357.498 338.516H352.57V363.748H357.498V338.516Z" fill="#F5F5F5"/>
<path d="M340.028 180.675H335.101V205.907H340.028V180.675Z" fill="#F5F5F5"/>
<path d="M340.028 220.142H335.101V245.374H340.028V220.142Z" fill="#F5F5F5"/>
<path d="M340.028 259.595H335.101V284.827H340.028V259.595Z" fill="#F5F5F5"/>
<path d="M340.028 299.049H335.101V324.281H340.028V299.049Z" fill="#F5F5F5"/>
<path d="M340.028 338.516H335.101V363.748H340.028V338.516Z" fill="#F5F5F5"/>
<path opacity="0.5" d="M316.253 171.984H337.564L346.835 379.333H316.253V171.984Z" fill="#E0E0E0"/>
<path d="M265.389 91.8706L326.748 102.802V379.332H265.389V91.8706Z" fill="#F0F0F0"/>
<path d="M265.389 91.8706H216.293V379.332H265.389V91.8706Z" fill="#E6E6E6"/>
<path d="M216.293 117.168L326.749 117.168V115.701L216.293 115.701V117.168Z" fill="#E0E0E0"/>
<path d="M216.293 132.819H326.749V131.351H216.293V132.819Z" fill="#E0E0E0"/>
<path d="M216.293 148.469H326.749V147.001H216.293V148.469Z" fill="#E0E0E0"/>
<path d="M216.293 164.107H326.749V162.639H216.293V164.107Z" fill="#E0E0E0"/>
<path d="M216.293 179.77H326.749V178.302H216.293V179.77Z" fill="#E0E0E0"/>
<path d="M216.293 195.421H326.749V193.953H216.293V195.421Z" fill="#E0E0E0"/>
<path d="M216.293 211.071H326.749V209.603H216.293V211.071Z" fill="#E0E0E0"/>
<path d="M216.293 226.721H326.749V225.253H216.293V226.721Z" fill="#E0E0E0"/>
<path d="M216.293 242.385H326.749V240.917H216.293V242.385Z" fill="#E0E0E0"/>
<path d="M216.293 258.035H326.749V256.567H216.293V258.035Z" fill="#E0E0E0"/>
<path d="M216.293 273.686H326.749V272.217H216.293V273.686Z" fill="#E0E0E0"/>
<path d="M216.293 289.323H326.749V287.855H216.293V289.323Z" fill="#E0E0E0"/>
<path d="M216.293 304.986H326.749V303.518H216.293V304.986Z" fill="#E0E0E0"/>
<path d="M216.293 320.637H326.749V319.169H216.293V320.637Z" fill="#E0E0E0"/>
<path d="M216.293 336.288H326.749V334.819H216.293V336.288Z" fill="#E0E0E0"/>
<path d="M216.293 351.938H326.749V350.47H216.293V351.938Z" fill="#E0E0E0"/>
<path d="M216.293 367.601H326.749V366.133H216.293V367.601Z" fill="#E0E0E0"/>
<path d="M189.442 30.7764H138.119V379.332H189.442V30.7764Z" fill="#F0F0F0"/>
<path d="M189.442 30.7765H138.119L157.008 0H230.506L189.442 30.7765Z" fill="#F0F0F0"/>
<path d="M189.441 30.7765L230.505 0V379.333H189.441V30.7765Z" fill="#EBEBEB"/>
<path d="M230.506 47.0171H138.119V48.8783H230.506V47.0171Z" fill="#E0E0E0"/>
<path d="M230.506 66.7437H138.119V68.605H230.506V66.7437Z" fill="#E0E0E0"/>
<path d="M230.506 86.4707H138.119V88.332H230.506V86.4707Z" fill="#E0E0E0"/>
<path d="M230.506 106.21H138.119V108.072H230.506V106.21Z" fill="#E0E0E0"/>
<path d="M230.506 125.938H138.119V127.799H230.506V125.938Z" fill="#E0E0E0"/>
<path d="M230.506 145.664H138.119V147.525H230.506V145.664Z" fill="#E0E0E0"/>
<path d="M230.506 165.391H138.119V167.252H230.506V165.391Z" fill="#E0E0E0"/>
<path d="M230.506 185.118H138.119V186.979H230.506V185.118Z" fill="#E0E0E0"/>
<path d="M230.506 204.845H138.119V206.706H230.506V204.845Z" fill="#E0E0E0"/>
<path d="M230.506 224.585H138.119V226.446H230.506V224.585Z" fill="#E0E0E0"/>
<path d="M230.506 244.312H138.119V246.173H230.506V244.312Z" fill="#E0E0E0"/>
<path d="M230.506 264.039H138.119V265.9H230.506V264.039Z" fill="#E0E0E0"/>
<path d="M230.506 283.765H138.119V285.627H230.506V283.765Z" fill="#E0E0E0"/>
<path d="M230.506 303.492H138.119V305.353H230.506V303.492Z" fill="#E0E0E0"/>
<path d="M230.506 323.219H138.119V325.08H230.506V323.219Z" fill="#E0E0E0"/>
<path d="M230.506 342.959H138.119V344.82H230.506V342.959Z" fill="#E0E0E0"/>
<path d="M230.506 362.686H138.119V364.547H230.506V362.686Z" fill="#E0E0E0"/>
<path d="M129.21 199.444H73.1816V379.332H129.21V199.444Z" fill="#F0F0F0"/>
<path d="M93.1989 208.738H84.2065V237.614H93.1989V208.738Z" fill="#E6E6E6"/>
<path d="M115.262 208.738H106.27V237.614H115.262V208.738Z" fill="#E6E6E6"/>
<path d="M93.1989 246.134H84.2065V275.01H93.1989V246.134Z" fill="#E6E6E6"/>
<path d="M115.262 246.134H106.27V275.01H115.262V246.134Z" fill="#E6E6E6"/>
<path d="M93.1989 283.516H84.2065V312.392H93.1989V283.516Z" fill="#E6E6E6"/>
<path d="M115.262 283.516H106.27V312.392H115.262V283.516Z" fill="#E6E6E6"/>
<path d="M93.1989 320.912H84.2065V349.788H93.1989V320.912Z" fill="#E6E6E6"/>
<path d="M115.262 320.912H106.27V349.788H115.262V320.912Z" fill="#E6E6E6"/>
<path d="M129.196 199.444H73.1816L86.3221 186.979H142.35L129.196 199.444Z" fill="white"/>
<path d="M129.196 199.444L142.35 186.979L155.491 199.444V379.333H129.196V199.444Z" fill="#E6E6E6"/>
<path d="M284 438.526C433.059 438.526 553.895 431.883 553.895 423.688C553.895 415.494 433.059 408.851 284 408.851C134.941 408.851 14.105 415.494 14.105 423.688C14.105 431.883 134.941 438.526 284 438.526Z" fill="#F5F5F5"/>
<path d="M485.84 383.121H243.702V312.052H457.137L477.057 327.296C479.81 329.4 482.028 332.057 483.548 335.074C485.068 338.091 485.851 341.39 485.84 344.729V383.121Z" fill="#9C2D17"/>
<path opacity="0.5" d="M485.84 383.121H243.702V312.052H457.137L477.057 327.296C479.81 329.4 482.028 332.057 483.548 335.074C485.068 338.091 485.851 341.39 485.84 344.729V383.121Z" fill="#131313"/>
<path d="M242.31 376.711C242.31 350.771 254.838 329.747 270.15 329.747H240.611C225.202 329.747 212.771 350.719 212.771 376.711C212.771 402.703 225.299 423.688 240.611 423.688H270.205C254.768 423.688 242.31 402.651 242.31 376.711Z" fill="#263238"/>
<path d="M270.205 423.675C285.612 423.675 298.101 402.649 298.101 376.711C298.101 350.773 285.612 329.747 270.205 329.747C254.799 329.747 242.31 350.773 242.31 376.711C242.31 402.649 254.799 423.675 270.205 423.675Z" fill="#263238"/>
<path d="M272.446 413.333C283.371 413.333 292.227 396.937 292.227 376.711C292.227 356.485 283.371 340.088 272.446 340.088C261.522 340.088 252.666 356.485 252.666 376.711C252.666 396.937 261.522 413.333 272.446 413.333Z" fill="white"/>
<path d="M81.5197 376.711C81.5197 350.771 94.0477 329.747 109.36 329.747H79.8214C64.412 329.747 51.9814 350.719 51.9814 376.711C51.9814 402.703 64.5094 423.688 79.8214 423.688H109.415C94.0059 423.688 81.5197 402.651 81.5197 376.711Z" fill="#263238"/>
<path d="M109.415 423.675C124.822 423.675 137.311 402.649 137.311 376.711C137.311 350.773 124.822 329.747 109.415 329.747C94.0089 329.747 81.5195 350.773 81.5195 376.711C81.5195 402.649 94.0089 423.675 109.415 423.675Z" fill="#263238"/>
<path d="M433.473 376.711C433.473 350.771 446.001 329.747 461.313 329.747H431.775C416.379 329.747 403.935 350.719 403.935 376.711C403.935 402.703 416.463 423.688 431.775 423.688H461.368C445.973 423.688 433.473 402.651 433.473 376.711Z" fill="#263238"/>
<path d="M461.368 423.675C476.775 423.675 489.264 402.649 489.264 376.711C489.264 350.773 476.775 329.747 461.368 329.747C445.962 329.747 433.473 350.773 433.473 376.711C433.473 402.649 445.962 423.675 461.368 423.675Z" fill="#263238"/>
<path d="M463.624 413.333C474.548 413.333 483.404 396.937 483.404 376.711C483.404 356.485 474.548 340.088 463.624 340.088C452.699 340.088 443.843 356.485 443.843 376.711C443.843 396.937 452.699 413.333 463.624 413.333Z" fill="white"/>
<path d="M209.347 389.818H173.559L171.554 387.983C169.495 386.041 166.702 384.947 163.787 384.942H74.3369C71.4221 384.947 68.6283 386.041 66.5695 387.983L65.3446 389.124H62.0873C59.5564 389.124 57.0505 388.653 54.7135 387.738C52.3765 386.823 50.2545 385.483 48.4695 383.793C46.6844 382.104 45.2715 380.099 44.3119 377.894C43.3522 375.689 42.8649 373.327 42.8777 370.944V343.221H245.859L229.712 376.278C228.223 380.242 225.464 383.673 221.816 386.098C218.169 388.523 213.812 389.823 209.347 389.818Z" fill="#9C2D17"/>
<path opacity="0.2" d="M209.347 389.818H173.559L171.554 387.983C169.495 386.041 166.702 384.947 163.787 384.942H74.3369C71.4221 384.947 68.6283 386.041 66.5695 387.983L65.3446 389.124H62.0873C59.5564 389.124 57.0505 388.653 54.7135 387.738C52.3765 386.823 50.2545 385.483 48.4695 383.793C46.6844 382.104 45.2715 380.099 44.3119 377.894C43.3522 375.689 42.8649 373.327 42.8777 370.944V343.221H245.859L229.712 376.278C228.223 380.242 225.464 383.673 221.816 386.098C218.169 388.523 213.812 389.823 209.347 389.818Z" fill="#131313"/>
<path d="M420.639 225.031C420.516 225.033 420.395 225.001 420.291 224.939C420.211 224.897 420.141 224.84 420.085 224.772C420.029 224.704 419.988 224.626 419.965 224.543C419.942 224.46 419.936 224.373 419.949 224.288C419.962 224.203 419.993 224.121 420.04 224.047L429.784 208.318C429.824 208.235 429.883 208.16 429.955 208.099C430.028 208.038 430.113 207.992 430.206 207.964C430.299 207.936 430.397 207.927 430.494 207.937C430.59 207.947 430.684 207.976 430.768 208.022C430.852 208.068 430.925 208.13 430.982 208.204C431.039 208.279 431.079 208.363 431.099 208.453C431.12 208.543 431.119 208.636 431.099 208.725C431.079 208.815 431.039 208.9 430.981 208.974L421.237 224.703C421.176 224.802 421.089 224.884 420.984 224.942C420.879 224.999 420.76 225.03 420.639 225.031Z" fill="#263238"/>
<path d="M472.031 303.282V285.404C472.031 276.006 457.527 231.663 437.579 223.353C417.632 215.042 369.371 211.346 338.97 212.866C308.569 214.387 267.978 274.262 267.978 274.262L272.391 325.749C278.571 325.749 298.254 323.992 301.135 374.928C301.329 378.519 302.982 381.903 305.752 384.377C308.522 386.851 312.198 388.227 316.016 388.219H422.448C426.024 388.217 429.478 386.998 432.174 384.786C434.87 382.575 436.626 379.521 437.12 376.187C439.904 358.033 447.17 325.709 464.695 325.709C476.987 325.709 485.798 335.619 485.798 346.983C485.802 334.498 482.582 322.2 476.416 311.147L472.031 303.282Z" fill="#9C2D17"/>
<path d="M227.61 212.867C172.25 212.867 109.527 274.262 109.527 274.262H268.034C268.034 274.262 308.583 214.4 339.026 212.867H227.61Z" fill="#9C2D17"/>
<path opacity="0.9" d="M231.006 212.867C184.374 212.867 135.459 256.436 121.191 270.16C120.837 270.499 120.597 270.93 120.502 271.398C120.407 271.865 120.461 272.349 120.658 272.788C120.854 273.227 121.184 273.601 121.606 273.863C122.028 274.126 122.523 274.265 123.029 274.262H250.898C256.045 274.276 261.122 273.146 265.718 270.964C270.313 268.782 274.297 265.61 277.346 261.705C291.099 244.063 317.589 213.955 339.026 212.867H231.006Z" fill="#EBD5D1"/>
<path d="M268.034 274.262L209.486 317.766L51.9259 317.294C51.9259 317.294 42.8779 329.681 42.8779 343.221H245.859C249.186 334.924 260.851 325.749 272.447 325.749C272.447 310.308 268.034 274.262 268.034 274.262Z" fill="#9C2D17"/>
<path opacity="0.2" d="M229.712 304.947C229.546 304.946 229.385 304.888 229.26 304.785C229.135 304.681 229.053 304.539 229.03 304.384C229.006 304.214 229.054 304.041 229.163 303.904C229.272 303.767 229.435 303.676 229.615 303.65C243.669 301.504 256.82 295.743 267.616 287.003C269.751 285.313 271.14 282.934 271.513 280.331C271.886 277.729 271.217 275.089 269.635 272.926C269.577 272.855 269.535 272.775 269.511 272.689C269.487 272.602 269.482 272.513 269.497 272.425C269.511 272.337 269.544 272.253 269.594 272.177C269.644 272.102 269.71 272.037 269.787 271.986C269.865 271.935 269.953 271.9 270.045 271.882C270.138 271.864 270.233 271.864 270.326 271.882C270.418 271.9 270.506 271.936 270.583 271.987C270.661 272.038 270.726 272.103 270.776 272.178C272.55 274.61 273.301 277.577 272.881 280.501C272.462 283.425 270.903 286.097 268.507 287.999C257.522 296.902 244.132 302.763 229.823 304.934L229.712 304.947Z" fill="#131313"/>
<path d="M51.9258 317.294C51.9258 317.294 79.5987 286.924 109.527 274.262H268.034L209.486 317.766L51.9258 317.294Z" fill="#9C2D17"/>
<path d="M174.491 317.294H70.5508V320.139H174.491V317.294Z" fill="#263238"/>
<path d="M172.334 311.606L177.902 306.363C179.154 305.185 180.738 304.371 182.467 304.016L224.52 295.392C225.998 295.087 227.533 295.132 228.988 295.523L231.243 296.113C232.744 296.511 234.114 297.26 235.225 298.291C236.336 299.322 237.152 300.601 237.596 302.009C238.041 303.417 238.1 304.908 237.768 306.343C237.436 307.778 236.724 309.11 235.697 310.216L226.649 319.955C225.089 321.631 222.908 322.681 220.552 322.891L179.725 326.378C178.377 326.499 177.016 326.339 175.741 325.908C174.466 325.478 173.307 324.788 172.347 323.888C170.621 322.258 169.65 320.051 169.647 317.749C169.645 315.448 170.611 313.239 172.334 311.606Z" fill="white"/>
<path d="M73.4879 314.385L68.8804 306.271C68.2317 305.135 67.27 304.184 66.0964 303.519C64.9816 302.889 63.7135 302.54 62.414 302.506C61.1146 302.471 59.8276 302.752 58.677 303.322L55.1831 305.052C53.4671 305.907 52.1626 307.346 51.536 309.076L49.4063 315.014C49.0521 315.992 48.9273 317.03 49.0405 318.057C49.1537 319.085 49.5021 320.077 50.0618 320.965C50.6215 321.854 51.3792 322.617 52.2825 323.203C53.1859 323.789 54.2135 324.184 55.2944 324.36L64.9132 325.92C66.482 326.175 68.0966 325.96 69.5281 325.303C70.9596 324.647 72.1355 323.583 72.8893 322.262L73.5297 321.148C74.119 320.106 74.4238 318.942 74.4165 317.762C74.4092 316.581 74.0901 315.421 73.4879 314.385Z" fill="white"/>
<path opacity="0.9" d="M300.412 276.006H446.961C448.204 276.007 449.429 275.733 450.539 275.208C451.649 274.683 452.614 273.921 453.355 272.982C454.096 272.043 454.594 270.954 454.809 269.802C455.023 268.649 454.948 267.466 454.589 266.346C451.249 255.86 444.845 239.462 435.227 231.099C434.157 230.178 432.845 229.544 431.427 229.264C414.152 225.817 386.381 223.523 365.78 222.186C356.442 221.585 347.076 222.895 338.327 226.026C329.578 229.158 321.653 234.037 315.097 240.327C307.259 247.783 300.179 255.915 293.953 264.616C293.172 265.718 292.724 266.999 292.656 268.322C292.587 269.645 292.901 270.961 293.564 272.13C294.226 273.299 295.213 274.276 296.419 274.959C297.625 275.641 299.005 276.003 300.412 276.006Z" fill="#EBD5D1"/>
<path d="M205.658 358.583C205.658 362.883 200.981 366.382 195.218 366.382C189.455 366.382 184.778 362.883 184.778 358.583C184.778 354.284 189.442 350.797 195.218 350.797C200.995 350.797 205.658 354.284 205.658 358.583Z" fill="#263238"/>
<path d="M121.54 311.344C124.964 311.344 126.634 314.647 125.27 318.71C123.906 322.774 120.036 326.09 116.598 326.09C113.16 326.09 111.503 322.787 112.868 318.71C114.232 314.634 118.115 311.344 121.54 311.344Z" fill="#263238"/>
<path d="M51.2993 358.583C51.2993 362.883 49.9073 366.382 48.3622 366.382C46.8171 366.382 45.4111 362.883 45.4111 358.583C45.4111 354.284 46.8031 350.797 48.3622 350.797C49.9212 350.797 51.2993 354.284 51.2993 358.583Z" fill="#263238"/>
<path d="M295.901 274.76V270.343C295.9 269.076 296.199 267.824 296.776 266.679C297.354 265.534 298.195 264.524 299.239 263.724C300.284 262.924 301.504 262.354 302.812 262.055C304.12 261.755 305.483 261.734 306.801 261.994L324.646 265.493C326.684 265.894 328.512 266.942 329.826 268.463C331.139 269.983 331.856 271.883 331.857 273.843V274.76C331.857 277.021 330.904 279.19 329.208 280.79C327.511 282.389 325.21 283.29 322.809 283.293H304.963C302.56 283.293 300.255 282.394 298.556 280.794C296.856 279.194 295.901 277.024 295.901 274.76Z" fill="#263238"/>
<path d="M389.792 224.021C389.792 224.021 387.412 223.798 383.264 223.458C401.61 258.848 396.933 276.006 396.933 276.006H410.937C411.076 254.457 389.792 224.021 389.792 224.021Z" fill="#263238"/>
<path opacity="0.8" d="M235.057 260.159C234.774 262.94 233.401 265.522 231.206 267.403C229.011 269.283 226.151 270.327 223.184 270.33H151.036C145.774 270.33 143.867 264.799 147.682 260.683C154.564 253.303 162.038 246.432 170.037 240.13C183.623 229.356 200.494 223.759 216.265 224.794L222.223 225.201C224.794 225.389 227.232 226.355 229.174 227.954C231.115 229.553 232.456 231.7 232.997 234.074C235.103 242.618 235.797 251.416 235.057 260.159Z" fill="#EBD5D1"/>
<path opacity="0.2" d="M398.603 378.9C398.419 378.9 398.242 378.831 398.111 378.708C397.981 378.585 397.907 378.418 397.907 378.245C397.907 364.98 405.09 310.282 406.969 302.09C408.793 294.133 408.793 285.246 406.969 279.466C406.918 279.299 406.938 279.12 407.027 278.967C407.116 278.815 407.265 278.702 407.442 278.653C407.62 278.608 407.808 278.629 407.969 278.712C408.13 278.796 408.251 278.934 408.306 279.099C410.185 285.076 410.185 294.212 408.306 302.365C406.426 310.518 399.271 365.032 399.271 378.245C399.272 378.414 399.202 378.577 399.077 378.699C398.953 378.821 398.783 378.893 398.603 378.9Z" fill="#131313"/>
<path opacity="0.2" d="M396.752 302.784H379.783C379.461 302.794 379.141 302.734 378.848 302.609C378.555 302.484 378.296 302.297 378.091 302.063C377.887 301.828 377.742 301.553 377.669 301.258C377.595 300.962 377.595 300.655 377.668 300.359L378.016 298.511C378.156 297.846 378.53 297.245 379.079 296.805C379.627 296.365 380.316 296.112 381.036 296.086H398.005C398.327 296.077 398.647 296.137 398.94 296.262C399.233 296.387 399.492 296.574 399.697 296.808C399.901 297.043 400.046 297.318 400.119 297.613C400.193 297.909 400.193 298.216 400.12 298.511L399.772 300.359C399.632 301.025 399.258 301.626 398.709 302.066C398.161 302.506 397.472 302.759 396.752 302.784Z" fill="#131313"/>
<path d="M350.774 421.696L359.182 421.565L361.604 403.214L353.21 403.345L350.774 421.696Z" fill="#B55B52"/>
<path d="M390.906 421.106L399.063 418.76L393.996 401.366L385.839 403.726L390.906 421.106Z" fill="#B55B52"/>
<path d="M398.812 416.453L389.709 420.87C389.561 420.945 389.444 421.065 389.378 421.21C389.313 421.356 389.301 421.518 389.347 421.67L391.295 428.63C391.343 428.799 391.43 428.956 391.551 429.088C391.672 429.221 391.823 429.326 391.993 429.395C392.164 429.464 392.348 429.497 392.534 429.489C392.719 429.481 392.9 429.434 393.063 429.351C395.973 427.883 398.019 426.729 401.708 424.881C403.977 423.78 410.937 420.687 414.069 419.153C417.201 417.62 416.017 414.513 414.598 414.88C408.194 416.492 402.96 416.964 400.26 416.296C399.773 416.175 399.257 416.232 398.812 416.453Z" fill="#263238"/>
<path d="M359.349 420.647L350.176 420.792C350.01 420.795 349.851 420.851 349.725 420.951C349.598 421.051 349.512 421.189 349.48 421.342L347.935 428.394C347.894 428.564 347.896 428.741 347.939 428.91C347.982 429.08 348.066 429.238 348.185 429.372C348.303 429.506 348.452 429.613 348.621 429.685C348.79 429.756 348.975 429.79 349.16 429.783C352.473 429.679 357.247 429.43 361.409 429.364C366.267 429.298 367.687 429.482 373.394 429.364C376.833 429.364 377.737 426.008 376.29 425.733C369.692 424.422 367.116 424.422 361.395 421.198C360.775 420.851 360.07 420.661 359.349 420.647Z" fill="#263238"/>
<path d="M372.113 180.95C374.02 184.554 376.178 188.369 378.336 191.999C380.493 195.63 382.776 199.248 385.212 202.643C385.839 203.482 386.423 204.36 387.063 205.159L388.636 207.178C388.957 207.571 389.138 207.755 389.193 207.847C389.249 207.938 389.277 208.069 389.68 208.096C391.159 207.844 392.533 207.208 393.648 206.26C394.413 205.71 395.193 205.081 395.958 204.412C396.724 203.744 397.49 202.97 398.158 202.354L403.712 205.264C403.248 206.422 402.7 207.548 402.069 208.633C401.448 209.744 400.731 210.804 399.926 211.805C399.069 212.898 398.089 213.9 397.002 214.794C395.711 215.875 394.214 216.716 392.59 217.271C390.555 217.97 388.346 218.084 386.242 217.599C384.27 217.143 382.445 216.244 380.925 214.977C380.588 214.71 380.268 214.425 379.964 214.125L379.519 213.692L379.199 213.352L377.974 212.041C377.152 211.163 376.401 210.258 375.621 209.419C372.648 205.819 369.905 202.055 367.408 198.147C366.184 196.207 364.972 194.215 363.859 192.262C362.745 190.309 361.659 188.329 360.629 186.114L372.113 180.95Z" fill="#B55B52"/>
<path d="M357.052 181.002C354.783 188.264 370.722 208.043 370.722 208.043L386.799 198.304C383.774 192.013 380.04 186.045 375.663 180.504C369.079 172.6 359.53 173.019 357.052 181.002Z" fill="#009966"/>
<g opacity="0.2">
<path opacity="0.2" d="M357.052 181.002C354.783 188.264 370.722 208.043 370.722 208.043L386.799 198.304C383.774 192.013 380.04 186.045 375.663 180.504C369.079 172.6 359.53 173.019 357.052 181.002Z" fill="#131313"/>
</g>
<path opacity="0.2" d="M366.852 189.522C370.151 190.833 375.023 198.357 377.556 203.94L370.736 208.069C366.919 203.272 363.489 198.211 360.477 192.93C362.634 190.676 365.098 188.827 366.852 189.522Z" fill="#131313"/>
<path d="M397.197 203.77L403.016 194.909L408.097 202.551C406.874 204.59 404.889 206.127 402.529 206.863L397.197 203.77Z" fill="#B55B52"/>
<path d="M411.131 195.001V197.741C411.132 198.596 410.817 199.426 410.241 200.087L408.125 202.551L403.044 194.909L408.292 193.114C408.613 193.007 408.956 192.974 409.293 193.018C409.631 193.062 409.952 193.181 410.23 193.366C410.508 193.551 410.735 193.796 410.892 194.08C411.049 194.365 411.131 194.681 411.131 195.001Z" fill="#B55B52"/>
<path d="M405.452 206.326L396.292 206.195L401.359 188.329L410.519 188.46L405.452 206.326Z" fill="#009966"/>
<path d="M406.384 206.326L397.225 206.195L402.292 188.329L411.451 188.46L406.384 206.326Z" fill="#263238"/>
<path opacity="0.2" d="M361.604 403.228L360.351 412.678L351.943 412.809L353.196 403.346L361.604 403.228Z" fill="#131313"/>
<path opacity="0.2" d="M385.839 403.726L394.01 401.366L396.613 410.332L388.442 412.691L385.839 403.726Z" fill="#131313"/>
<path d="M321.584 184.817C328.447 212.631 326.957 240.222 327.709 246.173L372.517 243.027C376.819 197.819 366.629 174.868 366.629 174.868C366.629 174.868 363.748 174.344 359.836 173.963C358.611 173.845 357.275 173.741 355.897 173.675C355.131 173.675 354.366 173.61 353.572 173.596C347.203 173.69 340.845 174.127 334.53 174.907C333.333 175.051 332.122 175.209 330.938 175.392L327.765 175.943H327.639C326.614 176.135 325.64 176.519 324.776 177.073C323.912 177.628 323.175 178.34 322.61 179.168C322.045 179.997 321.663 180.924 321.486 181.894C321.31 182.865 321.343 183.858 321.584 184.817Z" fill="#009966"/>
<g opacity="0.2">
<path opacity="0.2" d="M321.584 184.817C328.447 212.631 326.957 240.222 327.709 246.173L372.517 243.027C376.819 197.819 366.629 174.868 366.629 174.868C366.629 174.868 363.748 174.344 359.836 173.963C358.611 173.845 357.275 173.741 355.897 173.675C355.131 173.675 354.366 173.61 353.572 173.596C347.203 173.69 340.845 174.127 334.53 174.907C333.333 175.051 332.122 175.209 330.938 175.392L327.765 175.943H327.639C326.614 176.135 325.64 176.519 324.776 177.073C323.912 177.628 323.175 178.34 322.61 179.168C322.045 179.997 321.663 180.924 321.486 181.894C321.31 182.865 321.343 183.858 321.584 184.817Z" fill="#131313"/>
</g>
<path opacity="0.2" d="M329.17 190.689L324.02 196.915C324.027 196.993 324.027 197.072 324.02 197.151C324.744 201.371 325.301 205.5 325.718 209.485C330.66 203.757 329.936 193.415 329.17 190.689Z" fill="#131313"/>
<path d="M336.687 162.612C337.759 166.859 337.689 171.578 334.46 174.959C338.037 177.843 342.673 181.133 349.967 180.871C357.261 180.609 355.632 175.969 353.503 173.622C347.28 172.679 347.266 168.864 347.211 164.67C347.208 164.246 347.062 163.833 346.795 163.491C346.527 163.15 346.151 162.897 345.721 162.769L338.873 160.699C338.583 160.611 338.274 160.598 337.978 160.661C337.682 160.723 337.408 160.859 337.186 161.054C336.963 161.248 336.8 161.495 336.712 161.769C336.625 162.043 336.616 162.334 336.687 162.612Z" fill="#B55B52"/>
<path opacity="0.2" d="M347.224 164.906L340.334 165.745C340.487 166.034 340.682 166.309 340.863 166.584C342.171 168.55 345.039 169.848 348.018 170.32C347.373 168.583 347.103 166.742 347.224 164.906Z" fill="#131313"/>
<path d="M356.161 148.115C359.989 148.718 367.144 144.629 365.474 139.176C363.33 141.706 356.161 140.854 356.161 140.854V148.115Z" fill="#263238"/>
<path d="M341.211 153.883C341.629 157.527 336.854 164.015 331.175 162.114C333.959 160.253 333.513 153.45 333.513 153.45L341.211 153.883Z" fill="#263238"/>
<path d="M335.602 146.805C334.571 154.59 333.541 159.113 336.896 163.844C341.921 170.883 352.723 169.087 356.203 161.787C359.335 155.233 360.491 143.554 353.085 139.071C351.463 138.08 349.599 137.495 347.671 137.372C345.742 137.248 343.811 137.589 342.061 138.363C340.311 139.137 338.8 140.318 337.669 141.795C336.539 143.272 335.827 144.996 335.602 146.805Z" fill="#B55B52"/>
<path d="M334.46 154.669C336.478 156.675 342.032 148.482 341.016 145.494C343.104 146.359 347.113 144.707 346.863 141.457C353.113 144.603 362.175 147.093 362.314 141.457C362.453 135.82 356.746 131.56 351.178 131.115C351.846 132.806 350.078 133.527 346.445 132.806C342.812 132.085 328.808 126.016 330.353 138.14C325.119 138.429 324.437 144.668 334.46 154.669Z" fill="#263238"/>
<path d="M330.368 151.641C330.657 153.597 331.759 155.364 333.43 156.557C335.657 158.116 337.049 156.465 337.258 154.001C337.453 151.772 337.258 148.286 334.599 147.696C334.021 147.577 333.421 147.596 332.852 147.752C332.284 147.908 331.766 148.194 331.346 148.586C330.925 148.979 330.615 149.463 330.445 149.997C330.274 150.53 330.247 151.096 330.368 151.641Z" fill="#B55B52"/>
<path d="M342.993 245.111L372.448 243.053C372.448 243.053 376.262 299.979 375.969 324.11C375.677 349.224 363.441 410.791 363.441 410.791L349.215 411C349.215 411 350.343 351.282 350.343 326.627C350.343 293.426 342.951 245.111 342.951 245.111" fill="#263238"/>
<path opacity="0.2" d="M354.379 304.292C354.769 305.93 365.724 352.082 369.26 379.005C371.139 367.811 373.074 355.241 374.382 344.139L354.379 304.292Z" fill="#131313"/>
<path d="M356.551 244.181C356.551 244.181 378.976 295.903 384.029 318.592C389.597 343.431 398.436 406.255 398.436 406.255L383.221 408.484C383.221 408.484 371.71 361.519 365.265 337.533C357.943 310.19 328.906 266.896 327.681 246.199L356.551 244.181Z" fill="#263238"/>
<path d="M400.343 407.474L381.44 411.643L379.06 404.787L399.703 401.458L400.343 407.474Z" fill="#009966"/>
<path d="M365.279 411.092L348.324 411.341L348.241 406.19L367.172 405.639L365.279 411.092Z" fill="#009966"/>
<path d="M347.127 150.842C347.002 151.471 347.252 152.035 347.684 152.153C348.115 152.271 348.575 151.786 348.7 151.156C348.825 150.527 348.575 149.964 348.129 149.846C347.684 149.728 347.252 150.213 347.127 150.842Z" fill="#263238"/>
<path d="M355.368 152.493C355.242 153.109 355.493 153.686 355.925 153.804C356.356 153.922 356.815 153.437 356.941 152.808C357.066 152.179 356.815 151.602 356.384 151.497C355.952 151.392 355.493 151.864 355.368 152.493Z" fill="#263238"/>
<path d="M352.653 152.336C353.067 154.393 353.779 156.387 354.769 158.261C354.252 158.486 353.689 158.603 353.12 158.603C352.55 158.603 351.987 158.486 351.47 158.261L352.653 152.336Z" fill="#A02724"/>
<path d="M350.064 160.187C349.319 160.042 348.613 159.754 347.991 159.341C347.368 158.929 346.842 158.4 346.445 157.789C346.42 157.743 346.415 157.691 346.431 157.642C346.446 157.593 346.481 157.552 346.529 157.527C346.576 157.507 346.628 157.504 346.677 157.519C346.726 157.533 346.767 157.564 346.793 157.605C347.247 158.275 347.861 158.835 348.586 159.24C349.312 159.645 350.128 159.884 350.969 159.938C351.014 159.949 351.053 159.974 351.081 160.008C351.109 160.043 351.125 160.085 351.125 160.128C351.125 160.172 351.109 160.214 351.081 160.248C351.053 160.283 351.014 160.307 350.969 160.318C350.664 160.299 350.362 160.255 350.064 160.187Z" fill="#263238"/>
<path d="M346.306 148.037C346.241 148.01 346.18 147.974 346.125 147.932C346.055 147.858 346.017 147.762 346.017 147.663C346.017 147.564 346.055 147.469 346.125 147.395C346.585 146.986 347.142 146.686 347.749 146.52C348.357 146.353 348.998 146.325 349.619 146.438C349.719 146.465 349.805 146.528 349.857 146.614C349.908 146.7 349.923 146.801 349.897 146.896C349.871 146.99 349.807 147.07 349.718 147.119C349.629 147.168 349.524 147.183 349.424 147.159C348.926 147.074 348.413 147.103 347.929 147.242C347.445 147.381 347.003 147.626 346.64 147.958C346.594 147.994 346.54 148.019 346.482 148.033C346.424 148.046 346.364 148.048 346.306 148.037Z" fill="#263238"/>
<path d="M359.808 150.54C359.745 150.521 359.687 150.486 359.641 150.441C359.595 150.395 359.561 150.339 359.544 150.278C359.431 149.821 359.203 149.396 358.878 149.04C358.553 148.684 358.142 148.407 357.679 148.233C357.578 148.203 357.493 148.137 357.444 148.048C357.394 147.96 357.384 147.857 357.414 147.762C357.446 147.666 357.517 147.587 357.61 147.54C357.704 147.494 357.814 147.484 357.915 147.512C358.51 147.734 359.039 148.088 359.457 148.544C359.874 149.001 360.166 149.547 360.309 150.134C360.326 150.181 360.332 150.231 360.327 150.281C360.322 150.331 360.306 150.379 360.279 150.422C360.253 150.465 360.217 150.503 360.175 150.532C360.132 150.562 360.083 150.582 360.031 150.593C359.952 150.603 359.873 150.584 359.808 150.54Z" fill="#263238"/>
<path d="M401.958 416.479C401.292 416.785 400.592 417.018 399.87 417.174C399.841 417.196 399.804 417.209 399.766 417.209C399.728 417.209 399.691 417.196 399.661 417.174C399.639 417.143 399.626 417.107 399.626 417.069C399.626 417.032 399.639 416.995 399.661 416.964C399.842 416.676 401.485 414.107 402.529 414.107C402.647 414.107 402.763 414.137 402.863 414.195C402.964 414.253 403.046 414.336 403.1 414.435C403.209 414.59 403.276 414.767 403.295 414.952C403.315 415.138 403.286 415.324 403.211 415.496C402.917 415.943 402.477 416.287 401.958 416.479ZM400.246 416.689C401.266 416.547 402.191 416.046 402.835 415.287C402.884 415.168 402.901 415.04 402.884 414.914C402.867 414.789 402.817 414.669 402.738 414.566C402.654 414.435 402.585 414.422 402.515 414.422C401.972 414.422 400.928 415.693 400.246 416.689Z" fill="#009966"/>
<path d="M399.912 417.161H399.801C399.765 417.156 399.731 417.142 399.701 417.121C399.672 417.101 399.649 417.074 399.634 417.043C399.128 416.016 398.963 414.869 399.16 413.753C399.219 413.619 399.305 413.497 399.416 413.395C399.526 413.294 399.657 413.215 399.801 413.163C399.933 413.1 400.085 413.083 400.23 413.114C400.374 413.145 400.503 413.223 400.594 413.333C401.193 414.041 400.594 416.309 399.982 417.082C399.976 417.099 399.967 417.115 399.955 417.128C399.943 417.142 399.928 417.153 399.912 417.161ZM399.912 413.582C399.761 413.655 399.642 413.776 399.578 413.923C399.411 414.809 399.528 415.721 399.912 416.545C400.371 415.614 400.691 413.989 400.343 413.582C400.343 413.582 400.232 413.451 399.995 413.582H399.912Z" fill="#009966"/>
<path d="M360.198 421.735C360.162 421.722 360.131 421.698 360.109 421.668C360.087 421.638 360.076 421.602 360.076 421.565C360.076 421.528 360.087 421.492 360.109 421.462C360.131 421.432 360.162 421.408 360.198 421.395C360.574 421.198 363.929 419.533 364.959 420.084C365.054 420.135 365.133 420.207 365.192 420.294C365.25 420.381 365.285 420.479 365.293 420.582C365.314 420.751 365.292 420.922 365.229 421.082C365.166 421.241 365.064 421.384 364.931 421.499C364.026 422.273 361.618 421.998 360.254 421.762L360.198 421.735ZM364.736 420.359C363.398 420.432 362.099 420.81 360.95 421.46C362.196 421.795 363.528 421.702 364.708 421.198C364.797 421.121 364.864 421.024 364.903 420.917C364.942 420.809 364.951 420.694 364.931 420.582C364.933 420.541 364.922 420.501 364.899 420.466C364.877 420.431 364.845 420.403 364.806 420.385L364.736 420.359Z" fill="#009966"/>
<path d="M360.198 421.735C360.171 421.715 360.149 421.689 360.135 421.659C360.12 421.63 360.113 421.598 360.114 421.565C360.188 420.446 360.625 419.375 361.367 418.498C361.672 418.253 362.067 418.131 362.467 418.157C363.024 418.157 363.177 418.472 363.219 418.681C363.386 419.573 361.409 421.303 360.435 421.749C360.399 421.771 360.357 421.782 360.314 421.78C360.271 421.777 360.23 421.762 360.198 421.735ZM362.578 418.55C362.514 418.534 362.447 418.534 362.383 418.55C362.238 418.535 362.09 418.549 361.951 418.592C361.811 418.635 361.684 418.705 361.576 418.799C360.958 419.492 360.584 420.349 360.504 421.25C361.534 420.661 362.871 419.284 362.773 418.76C362.773 418.681 362.745 418.603 362.578 418.55Z" fill="#009966"/>
<path d="M334.961 187.281C332.177 191.934 329.393 196.902 326.887 201.791C324.364 206.57 322.201 211.511 320.415 216.576C320.206 217.192 320.053 217.795 319.858 218.398C319.788 218.673 319.663 219.067 319.621 219.25C319.576 219.401 319.539 219.554 319.51 219.709C319.39 220.533 319.414 221.369 319.579 222.186C320.14 224.43 321.055 226.582 322.294 228.57C325.183 233.151 328.55 237.449 332.344 241.402L328.307 245.963C322.924 242.611 318.14 238.474 314.137 233.708C311.906 231.052 310.178 228.055 309.028 224.847C308.365 222.932 308.069 220.922 308.151 218.909C308.151 218.372 308.263 217.808 308.332 217.271C308.402 216.733 308.485 216.458 308.569 216.039C308.736 215.279 308.889 214.479 309.07 213.732C310.629 207.91 312.745 202.234 315.39 196.771C317.927 191.403 320.809 186.185 324.02 181.146L334.961 187.281Z" fill="#B55B52"/>
<path d="M326.219 176.546C318.466 178.551 310.907 199.064 310.907 199.064L329.574 203.94C332.844 199.621 335.454 194.891 337.327 189.889C341.253 179.914 335.601 174.134 326.219 176.546Z" fill="#009966"/>
<g opacity="0.2">
<path opacity="0.2" d="M326.219 176.546C318.466 178.551 310.907 199.064 310.907 199.064L329.574 203.94C332.844 199.621 335.454 194.891 337.327 189.889C341.253 179.914 335.601 174.134 326.219 176.546Z" fill="#131313"/>
</g>
<path d="M328.767 240.052L337.286 242.162L333.903 249.699C333.903 249.699 326.261 248.178 326.303 244.259L328.767 240.052Z" fill="#B55B52"/>
<path d="M340.557 247.274L338.038 253.238L333.903 249.699L337.286 242.162L340.557 247.274Z" fill="#B55B52"/>
</svg>
