<svg width="542" height="295" viewBox="0 0 542 295" fill="none" xmlns="http://www.w3.org/2000/svg">
<path d="M516.755 95.0155C517.724 96.0248 518.467 97.2074 518.939 98.4928C519.412 99.7781 519.605 101.14 519.507 102.497C519.291 105.214 518.414 107.847 516.945 110.194C514.257 114.795 509.229 118.532 504.407 121.175C501.64 115.964 503.347 109.39 504.407 106.115C506.122 100.904 512.573 92.544 516.724 95.0155" fill="#EBEBEB"/>
<path d="M505.948 131.076C506.256 129.583 506.978 128.194 508.04 127.049C509.102 125.903 510.467 125.043 511.996 124.555C513.531 124.088 515.149 123.914 516.756 124.042C518.363 124.169 519.927 124.597 521.357 125.299C522.685 125.925 523.997 126.878 524.321 128.277C524.426 128.926 524.346 129.589 524.091 130.2C523.835 130.81 523.413 131.346 522.867 131.753C521.759 132.559 520.444 133.072 519.056 133.242C514.313 133.987 509.656 133.927 505.948 131.098" fill="#EBEBEB"/>
<path d="M493.963 143.724C494.13 143.399 494.326 143.087 494.548 142.793L496.24 140.322C497.695 138.267 499.703 135.297 502.913 132.878C505.601 130.78 508.835 129.398 512.281 128.873C513.328 128.728 514.39 128.703 515.443 128.798C515.727 128.819 516.01 128.857 516.289 128.91C516.487 128.91 516.582 128.962 516.582 128.977C515.167 128.897 513.747 128.952 512.344 129.141C508.964 129.748 505.803 131.154 503.158 133.227C499.995 135.572 497.987 138.483 496.477 140.501C495.726 141.52 495.118 142.347 494.675 142.905C494.467 143.199 494.229 143.474 493.963 143.724Z" fill="#E0E0E0"/>
<path d="M512.439 101.812C512.405 101.967 512.357 102.119 512.297 102.267L511.838 103.54C511.427 104.649 510.811 106.234 510.036 108.192C508.455 112.108 506.249 117.49 503.648 123.379C501.047 129.267 498.564 134.545 496.707 138.356C495.782 140.255 495.015 141.781 494.477 142.823C494.216 143.314 494.003 143.716 493.845 144.029C493.777 144.172 493.695 144.31 493.6 144.438C493.637 144.287 493.693 144.139 493.766 143.999C493.916 143.679 494.098 143.255 494.335 142.756L496.446 138.23C498.232 134.404 500.675 129.111 503.276 123.222C505.877 117.334 508.146 111.974 509.767 108.081L511.688 103.473C511.909 102.966 512.083 102.549 512.226 102.229C512.28 102.083 512.352 101.944 512.439 101.812Z" fill="#E0E0E0"/>
<path d="M497.205 131.128C497.963 128.001 497.918 124.749 497.073 121.642C496.229 118.535 494.61 115.662 492.351 113.262C491.196 112.048 489.497 110.902 487.868 111.453C486.239 112.004 485.718 113.917 485.686 115.547C485.682 118.95 486.748 122.277 488.748 125.111C490.748 127.944 493.595 130.157 496.928 131.47" fill="#EBEBEB"/>
<path d="M491.093 118.123C491.373 118.343 491.625 118.593 491.844 118.867C492.13 119.155 492.395 119.461 492.635 119.783C492.928 120.163 493.291 120.565 493.615 121.071C493.991 121.604 494.337 122.156 494.651 122.723C495.026 123.367 495.361 124.031 495.655 124.711C496.33 126.277 496.812 127.911 497.094 129.58C497.348 131.251 497.395 132.945 497.236 134.627C497.164 135.36 497.045 136.088 496.88 136.808C496.75 137.438 496.578 138.059 496.367 138.669C496.208 139.175 496.021 139.672 495.805 140.158C495.658 140.531 495.484 140.894 495.283 141.245C495.144 141.558 494.972 141.857 494.77 142.138C494.683 142.138 495.418 140.821 496.098 138.587C496.283 137.983 496.434 137.369 496.548 136.748C496.695 136.037 496.801 135.319 496.865 134.597C497.003 132.941 496.948 131.276 496.699 129.632C496.417 127.995 495.953 126.39 495.315 124.845C494.999 124.138 494.706 123.468 494.358 122.865C494.059 122.298 493.73 121.747 493.37 121.212C492.042 119.232 490.983 118.175 491.093 118.123Z" fill="#E0E0E0"/>
<path d="M25.4935 48.6152C25.4935 48.6152 18.2202 50.8485 25.2721 65.5138C32.3241 80.1791 37.36 87.5341 37.36 87.5341C37.36 87.5341 38.5696 90.9213 35.5654 91.3084C32.5612 91.6955 26.0785 90.4225 24.5606 93.7948C22.9795 97.2862 25.5884 100.763 31.0038 103.956C36.4192 107.15 48.0169 114.542 49.0605 115.212C50.104 115.882 51.0685 117.445 49.0605 118.041C47.0524 118.636 32.245 119.411 33.0672 126.006C33.8894 132.602 50.5389 139.183 52.3256 139.927C54.1122 140.672 54.5312 141.416 54.3336 142.369C54.136 143.322 49.1316 143.113 44.9258 143.53C40.7199 143.947 35.9212 145.064 36.7354 148.831C37.5497 152.597 47.1868 160.868 71.4258 164.188L82.7626 165.037L89.3876 156.275C102.369 136.719 101.894 124.45 99.3726 121.428C96.8506 118.406 92.8108 121.115 89.7829 123.885C86.755 126.654 83.6481 130.361 82.7626 129.892C81.8772 129.423 81.5214 128.649 82.0748 126.87C82.6282 125.091 88.0911 108.899 83.2765 104.046C78.4619 99.1919 68.2556 109.316 66.4847 110.388C64.7138 111.46 64.0735 109.718 64.2 108.549C64.3264 107.381 65.8285 94.2563 66.7456 88.3009C67.6627 82.3454 66.5163 78.251 62.6821 77.1344C58.9822 76.0326 55.8041 81.5265 53.5509 83.4323C51.2978 85.338 49.3372 82.2784 49.3372 82.2784C49.3372 82.2784 46.6413 73.9259 39.3048 59.3648C31.9683 44.8037 25.3354 48.7269 25.3354 48.7269" fill="#EBEBEB"/>
<path d="M83.2368 167.561C77.8925 156.841 68.7377 137.649 60.7845 121.212C52.8314 104.775 45.6213 89.9015 40.3324 79.1668L34.0632 66.4519L32.3634 62.9977L31.9286 62.0895C31.869 61.9834 31.8162 61.874 31.7705 61.762C31.7705 61.762 31.8338 61.8587 31.9444 62.0597L32.4109 62.9531C32.8141 63.7496 33.407 64.9035 34.1738 66.3849C35.6997 69.3626 37.8737 73.6878 40.5459 79.0402C45.8901 89.7526 53.1397 104.611 61.1008 121.048C69.0618 137.486 78.1771 156.722 83.4661 167.471" fill="#E0E0E0"/>
<path d="M33.5889 95.9165C33.8601 95.9745 34.1248 96.0567 34.3794 96.1622C34.8696 96.3334 35.5811 96.6088 36.4507 96.9512C38.19 97.6435 40.5696 98.6559 43.1785 99.8172L49.8351 102.795L51.859 103.688C52.1131 103.785 52.3567 103.905 52.5863 104.045C52.3132 103.998 52.0476 103.917 51.7957 103.807C51.2977 103.636 50.5941 103.361 49.7244 103.011C47.9852 102.266 45.6214 101.261 43.0204 100.1L36.3401 97.1224L34.3162 96.2366C34.0617 96.156 33.8177 96.0486 33.5889 95.9165Z" fill="#E0E0E0"/>
<path d="M53.3851 103.45C53.2981 103.45 55.2982 98.7008 57.8518 92.9315C60.4053 87.1622 62.5952 82.5095 62.6426 82.5095C62.6901 82.5095 60.7374 87.259 58.1759 93.0357C55.6145 98.8124 53.4799 103.45 53.3851 103.45Z" fill="#E0E0E0"/>
<path d="M64.3896 129.17C64.5314 128.943 64.6984 128.731 64.8877 128.537C65.2672 128.083 65.7494 127.525 66.3186 126.862C67.5203 125.448 69.1805 123.483 70.9277 121.257C72.6748 119.031 74.1848 116.976 75.2679 115.473L76.5486 113.694C76.6937 113.469 76.8604 113.257 77.0467 113.061C76.9516 113.309 76.8213 113.545 76.6593 113.761C76.3905 114.207 75.9873 114.833 75.4735 115.599C74.4457 117.14 72.9673 119.232 71.2044 121.458C69.4414 123.684 67.7654 125.634 66.5084 127.011C65.8759 127.696 65.362 128.247 64.9905 128.619C64.8148 128.825 64.613 129.01 64.3896 129.17Z" fill="#E0E0E0"/>
<path d="M44.894 126.111C45.1585 126.094 45.4241 126.109 45.6846 126.155L47.7796 126.401C49.5426 126.632 51.9776 126.967 54.6655 127.354C57.3535 127.741 59.7805 128.098 61.5356 128.396L63.6148 128.754C63.8716 128.781 64.1239 128.839 64.3658 128.925C64.1014 128.941 63.8358 128.926 63.5753 128.88L61.4882 128.634C59.7173 128.404 57.2823 128.069 54.5944 127.681C51.9064 127.294 49.4794 126.937 47.7243 126.639L45.653 126.282C45.394 126.252 45.1395 126.194 44.894 126.111Z" fill="#E0E0E0"/>
<path d="M51.5352 150.014C51.8661 150.006 52.197 150.029 52.5234 150.081L55.2113 150.394C57.4724 150.669 60.5951 151.071 64.042 151.54C67.4889 152.009 70.6117 152.448 72.8648 152.791L75.5369 153.2C75.8663 153.243 76.1914 153.31 76.5093 153.401C76.1758 153.409 75.8422 153.387 75.5132 153.334L72.8332 153.022C70.5721 152.746 67.4415 152.337 63.9946 151.868C60.5477 151.399 57.4249 150.96 55.1718 150.625L52.5076 150.208C52.1777 150.172 51.8522 150.107 51.5352 150.014Z" fill="#E0E0E0"/>
<path d="M75.9399 153.163C76.1165 152.871 76.3202 152.595 76.5487 152.337C76.9914 151.771 77.5764 151.041 78.28 150.156C79.7426 148.309 81.7507 145.756 83.8852 142.875C86.0198 139.994 87.8855 137.344 89.2137 135.431L90.7948 133.146C90.9739 132.858 91.1775 132.584 91.4036 132.327C91.2654 132.635 91.0987 132.932 90.9055 133.213C90.5656 133.771 90.0596 134.575 89.4192 135.55C88.1385 137.515 86.3044 140.195 84.1619 143.076C82.0195 145.957 79.9877 148.503 78.4698 150.312C77.6792 151.213 77.0863 151.942 76.6436 152.434C76.4346 152.698 76.1989 152.942 75.9399 153.163Z" fill="#E0E0E0"/>
<path d="M260.618 136.689C240.363 127.093 232.742 105.192 230.37 84.899C229.975 81.5119 229.034 78.013 230.283 74.8269C231.533 71.6407 235.193 69.0724 238.616 70.0625C241.454 70.874 243.059 73.6283 244.941 75.8319C247.42 78.7758 250.734 80.9981 254.499 82.2414C256.949 83.0454 259.875 83.3432 261.946 81.8692C264.784 79.8443 264.531 75.7798 263.993 72.4298C262.992 66.1816 261.991 59.9383 260.989 53.7C260.452 50.35 259.922 46.9331 260.539 43.5981C261.155 40.263 263.148 36.9801 266.397 35.6252C269.646 34.2704 274.121 35.5359 275.338 38.7221C275.844 40.0471 275.765 41.5062 276.081 42.8834C276.398 44.2606 277.315 45.7048 278.777 45.9058C280.24 46.1068 281.544 44.9604 282.453 43.8288C285.616 39.9504 287.434 35.2456 289.102 30.5929C290.77 25.9402 292.343 21.1907 295.11 17.0443C297.877 12.8978 302.044 9.34686 307.095 8.37911C312.147 7.41135 318.045 9.63719 320.053 14.1782C322.061 18.7192 319.879 23.9228 317.278 28.1809C313.438 34.5055 308.645 40.2727 303.048 45.3028C302.036 46.2036 300.945 47.1788 300.676 48.4815C300.249 50.819 302.834 52.7322 305.293 53.1491C308.076 53.6181 310.914 52.9704 313.736 52.896C316.559 52.8215 319.745 53.5734 321.176 55.8737C323.16 59.1045 320.67 63.1096 318.013 65.8714C312.741 71.3992 306.496 76.0303 299.553 79.5615C297.071 80.8195 294.438 81.9883 292.588 84.028C290.739 86.0678 289.932 89.239 291.569 91.4202C293.205 93.6014 296.597 93.9215 299.269 93.0654C301.941 92.2093 304.178 90.4748 306.653 89.1944C311.278 86.7899 317.642 86.2167 321.389 89.7974C323.848 92.1349 324.591 95.7528 324.03 99.0208C323.468 102.289 321.769 105.252 319.903 108.036C313.388 117.766 304.423 126.111 293.64 131.359C282.856 136.607 272.5 139.041 260.626 136.696" fill="#EBEBEB"/>
<path d="M264.199 123.274C266.074 111.79 268.645 100.417 271.899 89.2092L274.413 80.3728C275.244 77.477 276.066 74.6035 277.054 71.8416C278.962 66.5385 281.182 61.3393 283.703 56.2681C286.074 51.4144 288.501 46.8883 290.818 42.6673C293.134 38.4464 295.387 34.5605 297.585 31.0989C301.033 25.62 304.938 20.4075 309.262 15.5105C310.788 13.7759 312.021 12.4657 312.867 11.5947L313.831 10.6047C313.937 10.4859 314.053 10.3762 314.179 10.2771C314.096 10.4086 313.998 10.5309 313.887 10.6419L312.962 11.6766C312.171 12.5774 310.954 13.9099 309.459 15.6668C305.225 20.6012 301.388 25.8268 297.98 31.2999C295.806 34.7689 293.593 38.6623 291.3 42.8832C289.007 47.1042 286.596 51.6377 284.248 56.484C281.745 61.5525 279.538 66.7465 277.639 72.0426C276.659 74.797 275.844 77.6408 275.014 80.544C274.184 83.4473 273.362 86.3953 272.516 89.373C269.264 100.558 266.68 111.906 264.776 123.364" fill="#E0E0E0"/>
<path d="M277.235 71.7971C276.992 71.3566 276.802 70.8923 276.666 70.4125C276.342 69.5117 275.876 68.1792 275.401 66.5638C274.389 63.2883 273.148 58.7324 271.804 53.7C270.46 48.6677 269.148 44.1341 268.089 40.8884C267.559 39.2655 267.116 37.9553 266.8 37.0545C266.605 36.5936 266.461 36.1145 266.373 35.6252C266.648 36.0464 266.871 36.496 267.037 36.9652C267.432 37.8436 267.938 39.139 268.531 40.7544C269.709 43.9703 271.093 48.5039 272.445 53.5437L275.852 66.4447C276.268 67.9931 276.624 69.2934 276.919 70.3455C277.083 70.8164 277.189 71.3035 277.235 71.7971Z" fill="#E0E0E0"/>
<path d="M321.768 57.5112C321.187 57.7153 320.586 57.8673 319.974 57.9653C318.819 58.2259 317.136 58.5907 315.08 59.1043C310.953 60.1019 305.301 61.6652 299.15 63.6455C292.999 65.6257 287.513 67.6729 283.592 69.2437C281.623 69.9881 280.05 70.6879 278.959 71.142C278.408 71.4118 277.831 71.6312 277.235 71.7971C277.732 71.4584 278.261 71.1644 278.816 70.9187C279.876 70.3976 281.425 69.668 283.37 68.8342C287.26 67.1518 292.738 65.0525 298.905 63.0499C304.166 61.3318 309.517 59.8708 314.938 58.6726C317.017 58.211 318.717 57.9281 319.895 57.7271C320.51 57.5983 321.138 57.5259 321.768 57.5112Z" fill="#E0E0E0"/>
<path d="M264.65 122.403C264.496 122.262 264.363 122.102 264.254 121.927C263.978 121.532 263.646 121.048 263.235 120.438C262.349 119.173 261.124 117.311 259.645 114.996C256.681 110.358 252.799 103.83 248.617 96.5716C244.435 89.3134 240.616 82.7922 237.754 78.1396L234.355 72.601L233.438 71.1121C233.318 70.9409 233.222 70.7557 233.153 70.5613C233.309 70.7041 233.442 70.867 233.549 71.0452L234.568 72.534C235.454 73.7995 236.679 75.6606 238.158 77.9832C241.122 82.621 245.012 89.1497 249.226 96.4078C253.439 103.666 257.218 110.21 260.08 114.899L263.48 120.445C263.851 121.048 264.152 121.555 264.397 121.934C264.5 122.081 264.585 122.238 264.65 122.403Z" fill="#E0E0E0"/>
<path d="M322.638 95.6709C322.463 95.7973 322.272 95.9023 322.069 95.9836L320.393 96.7503L314.187 99.6238C308.946 102.058 301.743 105.49 293.798 109.301C285.853 113.113 278.603 116.477 273.306 118.808C270.658 119.969 268.508 120.892 266.982 121.502L265.251 122.187C265.055 122.284 264.844 122.352 264.626 122.388C264.803 122.264 264.994 122.159 265.195 122.076L266.871 121.279L273.085 118.406C278.327 115.979 285.521 112.547 293.474 108.728C301.427 104.909 308.661 101.552 313.958 99.2218C316.606 98.0605 318.757 97.1374 320.282 96.527L322.014 95.8421C322.211 95.7553 322.422 95.6976 322.638 95.6709Z" fill="#E0E0E0"/>
<path d="M230.331 292.595L125.248 292.141C119.181 292.106 113.377 289.807 109.106 285.75C104.836 281.692 102.447 276.206 102.464 270.493L103.579 22.4262C103.614 16.7109 106.055 11.2421 110.366 7.21886C114.677 3.19565 120.507 0.946381 126.576 0.964217L231.659 1.41832C237.723 1.45375 243.526 3.75001 247.796 7.80446C252.066 11.8589 254.456 17.3413 254.444 23.0515L253.329 271.118C253.298 276.836 250.858 282.309 246.547 286.335C242.235 290.362 236.404 292.613 230.331 292.595Z" fill="#455A64"/>
<path d="M231.509 9.97943L211.136 9.8901C209.795 9.91359 208.518 10.4369 207.586 11.3454C206.654 12.2538 206.142 13.4733 206.163 14.7363V18.2203C206.174 18.8456 206.053 19.4667 205.808 20.0481C205.564 20.6295 205.199 21.1598 204.737 21.6085C204.274 22.0572 203.722 22.4157 203.112 22.6633C202.502 22.9109 201.847 23.0429 201.183 23.0516L161.464 22.8804C160.124 22.8434 158.853 22.3082 157.93 21.3917C157.007 20.4753 156.507 19.2521 156.539 17.9895V14.5056C156.562 13.2513 156.06 12.0387 155.142 11.1304C154.223 10.222 152.961 9.69083 151.629 9.65188H144.467L126.639 9.52533C122.389 9.50554 118.303 11.0761 115.282 13.8918C112.261 16.7075 110.551 20.5378 110.528 24.5405L109.444 266.674C109.426 270.677 111.096 274.523 114.087 277.366C117.079 280.21 121.147 281.818 125.398 281.838L230.276 282.292C232.381 282.301 234.468 281.919 236.417 281.169C238.365 280.418 240.138 279.313 241.633 277.918C243.129 276.522 244.318 274.863 245.132 273.034C245.946 271.206 246.37 269.245 246.38 267.262L247.463 25.136C247.472 23.1544 247.067 21.1905 246.27 19.3564C245.473 17.5222 244.301 15.8538 242.819 14.4464C241.338 13.039 239.577 11.9201 237.636 11.1537C235.695 10.3872 233.613 9.98821 231.509 9.97943Z" fill="#FAFAFA"/>
<path d="M161.765 258.865L200.455 221.107L237.256 256.431L161.765 258.865Z" fill="#EBEBEB"/>
<path d="M206.487 216.231L246.807 178.638C246.807 180.305 246.459 256.587 246.459 256.587L206.487 216.231Z" fill="#EBEBEB"/>
<path d="M171.995 195.119L194.85 216.641L149.724 260.488L128.877 236.941L171.995 195.119Z" fill="#EBEBEB"/>
<path d="M109.445 251.101L122.75 239.994L141.178 260.488H109.445V252.649" fill="#EBEBEB"/>
<path d="M126.64 38.856C125.234 37.879 123.912 36.7986 122.687 35.6251C122.687 35.0593 122.687 35.4688 122.687 35.3422L122.742 35.2975L122.837 35.2156L123.035 35.0444L123.414 34.7094L124.134 34.0841L125.375 33.0419C125.751 32.6802 126.176 32.3673 126.64 32.1113C126.358 32.5161 126.017 32.8819 125.628 33.1982L124.442 34.3L123.738 34.9402L123.359 35.2826L123.169 35.4539L123.066 35.5358L123.019 35.5804V35.2975C124.323 36.3931 125.533 37.5829 126.64 38.856Z" fill="#263238"/>
<path d="M235.936 33.1758C235.938 33.337 235.888 33.4949 235.794 33.6295C235.7 33.7641 235.566 33.8693 235.408 33.9317C235.25 33.994 235.076 34.0107 234.908 33.9796C234.741 33.9486 234.586 33.8711 234.465 33.7571C234.344 33.6432 234.262 33.4979 234.229 33.3398C234.196 33.1816 234.214 33.0178 234.28 32.8692C234.346 32.7206 234.458 32.5939 234.601 32.5053C234.744 32.4167 234.911 32.3701 235.082 32.3716C235.309 32.3716 235.526 32.4563 235.686 32.6072C235.846 32.758 235.936 32.9625 235.936 33.1758Z" fill="#263238"/>
<path d="M235.691 35.3869C235.812 35.5003 235.894 35.6448 235.927 35.8023C235.961 35.9597 235.944 36.1229 235.879 36.2713C235.814 36.4196 235.703 36.5464 235.561 36.6356C235.42 36.7248 235.253 36.7725 235.082 36.7725C234.912 36.7725 234.745 36.7248 234.604 36.6356C234.462 36.5464 234.351 36.4196 234.286 36.2713C234.221 36.1229 234.204 35.9597 234.237 35.8023C234.271 35.6448 234.353 35.5003 234.474 35.3869C234.636 35.2369 234.855 35.1528 235.082 35.1528C235.31 35.1528 235.529 35.2369 235.691 35.3869Z" fill="#263238"/>
<path d="M235.936 38.7368C235.916 38.9377 235.817 39.1241 235.658 39.2598C235.499 39.3955 235.293 39.4707 235.079 39.4707C234.864 39.4707 234.658 39.3955 234.499 39.2598C234.34 39.1241 234.241 38.9377 234.221 38.7368C234.209 38.6242 234.223 38.5106 234.261 38.4033C234.299 38.2959 234.36 38.1972 234.441 38.1135C234.521 38.0298 234.62 37.9629 234.73 37.9171C234.84 37.8713 234.958 37.8477 235.079 37.8477C235.199 37.8477 235.317 37.8713 235.427 37.9171C235.537 37.9629 235.636 38.0298 235.716 38.1135C235.797 38.1972 235.858 38.2959 235.896 38.4033C235.934 38.5106 235.948 38.6242 235.936 38.7368Z" fill="#263238"/>
<path d="M178.027 96.7502C156.196 96.7502 138.5 113.409 138.5 133.97C138.5 154.527 156.196 171.183 178.027 171.183C199.866 171.183 217.554 154.52 217.554 133.97C217.554 113.413 199.866 96.7502 178.027 96.7502ZM178.027 167.127C158.587 167.127 142.823 152.291 142.823 133.978C142.823 115.661 158.587 100.829 178.027 100.829C197.475 100.829 213.235 115.665 213.235 133.978C213.227 152.279 197.471 167.127 178.027 167.127ZM183.28 136.237C183.28 137.947 181.799 139.342 179.987 139.342C178.238 139.342 176.801 138.056 176.698 136.432L165.077 122.81L179.991 133.139C181.799 133.139 183.28 134.526 183.28 136.237ZM159.297 141.401L162.151 144.093L156.794 149.141L153.936 146.446L159.297 141.401ZM156.81 132.012H149.234V128.208H156.81V132.012ZM158.439 111.289L163.796 116.338L160.938 119.025L155.581 113.977L158.439 111.289ZM180.047 113.03H176.007V105.895H180.047V113.03ZM196.473 120.465L193.611 117.777L198.976 112.729L201.83 115.42L196.473 120.465ZM207.985 128.208V132.012H200.413V128.208H207.985ZM197.854 142.164L203.219 147.209L200.365 149.896L195 144.852L197.854 142.164Z" fill="#EBEBEB"/>
<path d="M509.332 192.127H70.7061V252.73H509.332V192.127Z" fill="#9C2D17"/>
<g opacity="0.5">
<path opacity="0.5" d="M509.332 192.127H70.7061V252.73H509.332V192.127Z" fill="#131313"/>
</g>
<path d="M132.492 292.056C155.799 290.579 173.421 271.59 171.853 249.644C170.284 227.698 150.119 211.104 126.812 212.581C103.506 214.058 85.8838 233.046 87.4522 254.993C89.0207 276.939 109.186 293.533 132.492 292.056Z" fill="#263238"/>
<path d="M87.3638 251.644C87.3638 251.681 87.3638 251.718 87.3638 251.748C87.2834 256.978 88.2977 262.172 90.3489 267.033C92.4001 271.894 95.448 276.327 99.3187 280.079C103.189 283.831 107.807 286.828 112.908 288.9C118.008 290.971 123.492 292.077 129.047 292.152C134.601 292.228 140.117 291.273 145.279 289.341C150.442 287.41 155.149 284.54 159.134 280.895C163.118 277.25 166.301 272.902 168.501 268.099C170.701 263.296 171.875 258.132 171.955 252.902C171.955 252.865 171.955 252.828 171.955 252.798L87.3638 251.644Z" fill="#263238"/>
<path d="M99.9574 251.919C99.8704 257.45 101.527 262.88 104.718 267.523C107.909 272.167 112.491 275.815 117.884 278.006C123.277 280.197 129.239 280.833 135.016 279.834C140.792 278.834 146.125 276.243 150.338 272.39C154.551 268.536 157.456 263.592 158.685 258.184C159.914 252.775 159.412 247.145 157.242 242.005C155.073 236.866 151.333 232.447 146.496 229.309C141.66 226.171 135.943 224.454 130.07 224.375C122.199 224.27 114.605 227.112 108.958 232.277C103.311 237.442 100.074 244.507 99.9574 251.919Z" fill="#FAFAFA"/>
<path d="M455.539 292.042C478.859 290.768 496.667 271.934 495.314 249.975C493.961 228.016 473.96 211.247 450.64 212.521C427.32 213.795 409.512 232.629 410.864 254.588C412.217 276.547 432.219 293.316 455.539 292.042Z" fill="#263238"/>
<path d="M410.787 251.644C410.787 251.681 410.787 251.718 410.787 251.748C410.707 256.978 411.721 262.172 413.772 267.033C415.823 271.894 418.871 276.327 422.742 280.079C426.613 283.831 431.23 286.828 436.331 288.9C441.432 290.971 446.916 292.077 452.47 292.152C458.025 292.228 463.54 291.273 468.703 289.341C473.865 287.41 478.573 284.54 482.557 280.895C486.542 277.25 489.725 272.902 491.925 268.099C494.124 263.296 495.298 258.132 495.379 252.902C495.379 252.865 495.379 252.828 495.379 252.798L410.787 251.644Z" fill="#263238"/>
<path d="M423.381 251.919C423.294 257.45 424.951 262.88 428.141 267.523C431.332 272.167 435.914 275.815 441.307 278.006C446.7 280.197 452.662 280.833 458.439 279.834C464.216 278.834 469.548 276.243 473.761 272.39C477.974 268.536 480.879 263.592 482.108 258.184C483.337 252.775 482.835 247.145 480.665 242.005C478.496 236.866 474.756 232.447 469.92 229.309C465.083 226.171 459.367 224.454 453.494 224.375C445.622 224.27 438.028 227.112 432.382 232.277C426.735 237.442 423.497 244.507 423.381 251.919Z" fill="#FAFAFA"/>
<path d="M185.086 158.032C185.086 158.032 122.805 162.357 99.7045 167.233C83.4345 170.665 52.0646 176.598 52.444 195.179L54.9343 208.504C54.9343 208.504 43.305 213.507 43.305 226.281C43.305 239.055 40.4669 258.857 67.6309 259.654C72.1056 259.78 80.6042 259.654 80.6042 259.654C80.6042 259.654 75.3944 205.176 128.537 203.583C182.604 201.96 179.015 259.155 179.015 259.155H404.668C404.668 259.155 395.403 203.434 453.605 203.323C511.807 203.211 502.952 259.52 502.952 259.52C502.952 259.52 524.361 261.262 534.322 244.318C544.283 227.375 541.698 215.286 541.698 215.286L541.366 204.573C541.303 202.815 540.533 201.145 539.212 199.902C537.891 198.658 536.118 197.933 534.251 197.873C534.251 197.873 538.141 170.91 532.172 166.243C526.203 161.575 493.497 133.413 493.497 133.413L495.078 132.498C495.664 132.149 496.133 131.651 496.431 131.061C496.729 130.471 496.843 129.814 496.76 129.166C496.677 128.517 496.401 127.904 495.963 127.398C495.526 126.891 494.945 126.512 494.287 126.304C481.867 122.284 457.312 114.326 451.541 112.428C450.677 112.139 449.776 111.958 448.861 111.892C445.414 111.646 435.658 111.066 417.752 110.887C395.94 110.664 309.341 110.887 309.341 110.887C309.341 110.887 279.536 113.195 262.934 120.073C245.526 127.309 185.086 158.032 185.086 158.032Z" fill="#9C2D17"/>
<g opacity="0.4">
<path opacity="0.4" d="M59.1006 224.792C56.8396 224.36 53.3769 224.323 51.6534 225.76C50.3727 226.832 50.0327 228.566 49.843 230.167C49.4799 232.359 49.5334 234.595 50.0011 236.77C50.2396 237.856 50.7138 238.885 51.394 239.79C52.0742 240.696 52.9457 241.46 53.954 242.033C56.0253 243.09 58.8555 242.919 60.4604 241.289C61.9309 239.8 62.0969 237.567 62.0415 235.579C61.9862 232.705 62.2313 230.271 61.67 227.45C61.5462 226.851 61.2754 226.287 60.8794 225.805C60.6825 225.516 60.4174 225.273 60.1047 225.096C59.7921 224.919 59.4404 224.813 59.0769 224.785" fill="#131313"/>
</g>
<path d="M54.9503 208.504C61.5594 208.504 67.971 208.162 74.5723 207.76C75.2914 207.79 75.9998 207.587 76.5803 207.187C76.8459 206.876 77.0434 206.518 77.1614 206.135C77.2795 205.751 77.3158 205.35 77.2681 204.953C77.2681 201.618 77.1258 197.822 74.4379 195.648C72.7935 194.323 70.5403 193.906 68.3821 193.72C63.0225 193.174 57.601 193.681 52.46 195.208L54.9503 208.504Z" fill="#FAFAFA"/>
<path d="M194.629 258.374V257.927L194.581 256.609C194.542 255.433 194.486 253.713 194.407 251.465C194.273 246.947 194.075 240.343 193.822 231.939C193.569 223.534 193.277 213.328 192.937 201.64C192.85 198.715 192.771 195.685 192.676 192.596C192.621 191.017 192.695 189.437 192.897 187.869L193.253 185.471L193.775 183.067C194.594 179.782 195.773 176.586 197.293 173.531C198.859 170.328 200.794 167.297 203.064 164.493L242.142 141.312L252.696 135.059C256.254 132.833 259.988 130.869 263.867 129.185C267.834 127.426 271.904 125.883 276.058 124.562C278.129 123.877 280.256 123.319 282.382 122.723C284.509 122.128 286.675 121.637 288.873 121.235C297.16 119.565 305.584 118.569 314.053 118.257C322.178 117.89 330.319 117.915 338.442 118.331H338.671L338.616 118.547L328.117 162.774C326.177 165.773 324.587 168.96 323.374 172.28C322.179 175.429 321.642 178.766 321.792 182.107C322.061 185.375 322.156 188.576 322.243 191.68C322.33 194.784 322.37 197.792 322.433 200.717C322.615 212.405 322.662 222.596 322.694 230.993C322.725 239.391 322.694 245.994 322.694 250.505C322.694 252.738 322.694 254.473 322.694 255.649C322.694 256.222 322.694 256.661 322.694 256.967C322.694 257.272 322.694 257.413 322.694 257.413C322.694 257.413 322.694 257.257 322.694 256.967C322.694 256.676 322.694 256.222 322.694 255.649C322.694 254.473 322.694 252.753 322.694 250.505C322.694 245.994 322.622 239.391 322.567 231.001C322.512 222.611 322.433 212.39 322.219 200.717C322.156 197.799 322.088 194.789 322.014 191.687C321.919 188.583 321.824 185.397 321.547 182.129C321.387 178.746 321.924 175.366 323.128 172.176C324.334 168.829 325.924 165.616 327.872 162.595V162.647C331.09 149.032 334.608 134.173 338.331 118.413L338.513 118.636C330.408 118.225 322.286 118.205 314.179 118.577C305.731 118.885 297.328 119.881 289.063 121.555C286.873 121.964 284.738 122.537 282.596 123.044C280.453 123.55 278.358 124.197 276.271 124.875C272.117 126.197 268.047 127.743 264.081 129.505C260.221 131.178 256.505 133.129 252.965 135.341L242.403 141.595L203.325 164.724V164.687C201.059 167.472 199.129 170.486 197.57 173.672C196.051 176.704 194.874 179.878 194.06 183.141C192.281 189.521 193.174 195.797 193.19 201.64L193.98 231.939C194.194 240.336 194.36 246.947 194.471 251.458C194.526 253.691 194.558 255.433 194.589 256.609C194.589 257.18 194.589 257.619 194.589 257.927C194.629 258.225 194.629 258.374 194.629 258.374Z" fill="#812816" stroke="#812816" stroke-linejoin="round"/>
<path d="M338.157 119.559H338.529L339.612 119.522L343.81 119.425L359.376 119.143L411.854 118.294H411.957L412.02 118.368L419.373 126.847C426.82 135.461 433.919 143.649 440.37 151.094L442.742 153.848C443.51 154.771 444.17 155.769 444.711 156.826C445.69 158.784 446.222 160.915 446.273 163.079C446.323 165.244 445.891 167.394 445.003 169.392L442.632 174.603L435.374 190.414L433.382 194.702L432.852 195.819C432.734 196.065 432.662 196.191 432.662 196.191C432.662 196.191 432.71 196.057 432.813 195.804C432.915 195.551 433.097 195.156 433.303 194.673C433.753 193.675 434.394 192.216 435.224 190.355L442.339 174.498C443.699 171.134 446.094 167.59 445.928 163.272C445.893 161.078 445.354 158.917 444.347 156.937C443.817 155.909 443.17 154.938 442.418 154.042L440.046 151.287L419.025 127.063L411.681 118.584L411.839 118.659L359.352 119.403L343.786 119.574H339.588H338.513L338.157 119.559Z" fill="#812816" stroke="#812816" stroke-linejoin="round"/>
<path d="M311.633 185.278C311.633 185.278 311.855 185.278 312.258 185.189C312.851 185.089 313.416 184.877 313.918 184.563C314.715 184.074 315.311 183.344 315.61 182.494C315.791 181.966 315.866 181.41 315.831 180.856C315.812 180.238 315.645 179.632 315.341 179.084C314.988 178.461 314.463 177.938 313.822 177.57C313.181 177.202 312.447 177.003 311.697 176.993H306.368H294.154C293.122 176.994 292.129 177.361 291.371 178.02C290.631 178.654 290.159 179.518 290.043 180.454C289.923 181.358 290.099 182.275 290.549 183.082C291.007 183.84 291.719 184.434 292.573 184.772C293.418 185.045 294.315 185.149 295.205 185.077H297.79H302.439L309.167 185.137L310.993 185.174C311.207 185.17 311.422 185.184 311.633 185.218C311.421 185.242 311.207 185.254 310.993 185.256H309.167L302.439 185.315H297.79H295.205C294.755 185.315 294.32 185.315 293.837 185.315C293.354 185.287 292.878 185.184 292.43 185.01C291.493 184.647 290.711 184 290.209 183.171C289.707 182.3 289.51 181.302 289.647 180.32C289.772 179.276 290.3 178.311 291.131 177.609C291.962 176.908 293.038 176.519 294.154 176.516H306.368H311.704C312.511 176.532 313.298 176.753 313.983 177.155C314.668 177.557 315.224 178.126 315.594 178.801C315.911 179.388 316.081 180.035 316.092 180.692C316.118 181.273 316.029 181.854 315.831 182.404C315.497 183.289 314.853 184.04 314.005 184.534C313.482 184.847 312.89 185.043 312.274 185.107C312.068 185.188 311.853 185.245 311.633 185.278Z" fill="#02809C" stroke="#812816"/>
<path d="M428.638 185.278C428.638 185.278 428.859 185.278 429.263 185.189C429.856 185.089 430.421 184.877 430.923 184.563C431.719 184.074 432.316 183.344 432.615 182.494C432.796 181.966 432.871 181.41 432.836 180.856C432.817 180.238 432.65 179.632 432.346 179.084C431.992 178.461 431.468 177.938 430.827 177.57C430.186 177.202 429.452 177.003 428.701 176.993H423.373H411.159C410.127 176.994 409.134 177.361 408.376 178.02C407.636 178.654 407.164 179.518 407.048 180.454C406.928 181.358 407.104 182.275 407.554 183.082C408.012 183.84 408.724 184.434 409.577 184.772C410.423 185.045 411.319 185.149 412.21 185.077H414.795H419.444L426.171 185.137L427.998 185.174C428.212 185.17 428.427 185.184 428.638 185.218C428.425 185.242 428.212 185.254 427.998 185.256H426.171L419.444 185.315H414.795H412.21C411.759 185.315 411.325 185.315 410.842 185.315C410.359 185.287 409.883 185.184 409.435 185.01C408.498 184.647 407.716 184 407.214 183.171C406.712 182.3 406.515 181.302 406.652 180.32C406.776 179.276 407.304 178.311 408.135 177.609C408.966 176.908 410.042 176.519 411.159 176.516H423.373H428.709C429.516 176.532 430.303 176.753 430.988 177.155C431.672 177.557 432.229 178.126 432.599 178.801C432.915 179.388 433.086 180.035 433.097 180.692C433.122 181.273 433.034 181.854 432.836 182.404C432.502 183.289 431.858 184.04 431.01 184.534C430.487 184.847 429.894 185.043 429.278 185.107C429.073 185.188 428.858 185.245 428.638 185.278Z" fill="#02809C" stroke="#812816"/>
<path d="M531.167 167.307H507.766C506.193 167.307 504.65 167.711 503.303 168.476C501.956 169.241 500.856 170.337 500.122 171.647C499.518 172.731 499.183 173.929 499.139 175.153C499.095 176.376 499.344 177.592 499.869 178.712L509.039 198.343L532.472 198.127C532.472 198.127 537.46 173.24 531.167 167.307Z" fill="#FAFAFA"/>
<path d="M206.171 164.531L326.915 162.431L405.498 161.076L431.413 146.984C431.906 146.714 432.332 146.349 432.663 145.912C432.994 145.475 433.223 144.977 433.335 144.45C433.446 143.924 433.437 143.381 433.309 142.858C433.181 142.335 432.936 141.843 432.591 141.416L416.455 121.458C415.626 120.43 414.558 119.595 413.333 119.017C412.108 118.439 410.758 118.133 409.388 118.123L321.492 117.453C321.492 117.453 288.398 115.636 262.317 129.364C234.892 143.858 206.171 164.531 206.171 164.531Z" fill="#263238"/>
<path d="M261.503 119.515C261.503 119.515 267.559 122.113 263.622 124.517C259.685 126.922 198.511 163.228 198.511 163.228L184.446 157.235C209.357 144.185 234.513 131.493 261.503 119.515Z" fill="#455A64"/>
<path d="M200.487 164.151L200.107 164.24L198.993 164.471L194.7 165.305C190.968 166.005 185.561 166.987 178.888 168.074C165.449 170.248 146.854 172.779 126.165 174.461C120.987 174.886 115.888 175.206 111.049 175.533C106.211 175.861 101.452 176.121 96.9772 176.501C88.02 177.246 80.0036 178.466 73.4893 180.29C68.3114 181.646 63.3283 183.591 58.6502 186.082C56.9663 186.916 55.7646 187.734 54.9187 188.226L53.9542 188.799L53.6143 188.985C53.7157 188.908 53.8212 188.836 53.9305 188.769L54.8713 188.159C55.7093 187.645 56.8951 186.804 58.5712 185.926C63.2209 183.366 68.1928 181.366 73.3707 179.97C79.9008 178.102 87.9409 176.844 96.906 176.092C101.389 175.69 106.1 175.407 110.986 175.102C115.872 174.796 120.924 174.439 126.094 174.015C146.775 172.332 165.393 169.846 178.809 167.739C185.521 166.69 190.929 165.752 194.668 165.097L198.977 164.352L200.1 164.159L200.487 164.151Z" fill="#812816" stroke="#812816" stroke-linejoin="round"/>
<path d="M540.52 215.063C540.52 215.175 532.472 215.257 522.55 215.257C512.629 215.257 504.573 215.175 504.573 215.063C504.573 214.951 512.621 214.869 522.55 214.869C532.48 214.869 540.52 214.958 540.52 215.063Z" fill="#812816" stroke="#812816" stroke-linejoin="round"/>
<path d="M393.292 234.403C393.292 234.515 347.866 234.597 291.838 234.597C235.81 234.597 190.375 234.515 190.375 234.403C190.375 234.292 235.794 234.209 291.838 234.209C347.881 234.209 393.292 234.299 393.292 234.403Z" fill="#812816" stroke="#812816" stroke-linejoin="round"/>
<path d="M75.252 215.703C75.252 215.815 68.8246 215.897 60.9031 215.897C52.9815 215.897 46.5542 215.815 46.5542 215.703C46.5542 215.591 52.9815 215.509 60.9031 215.509C68.8246 215.509 75.252 215.599 75.252 215.703Z" fill="#812816" stroke="#812816" stroke-linejoin="round"/>
<path d="M492.888 132.639C492.888 132.639 487.496 138.319 489.615 142.488C491.734 146.657 513.64 161.263 513.64 161.263L529.539 164.069L492.888 132.639Z" fill="#455A64"/>
<path d="M341.731 122.463L338.157 158.821L402.13 157.101L427.911 142.987L411.222 122.463H341.731Z" fill="#455A64"/>
<path d="M221.318 160.682C221.318 160.682 259.914 134.433 275.141 129.215C289.837 124.183 297.498 122.917 311.301 122.515C324.496 122.158 332.536 122.515 332.536 122.515L322.338 159.476L221.318 160.682Z" fill="#455A64"/>
<path d="M215.674 160.771C215.674 159.641 215.994 158.531 216.6 157.556C217.205 156.58 218.075 155.773 219.121 155.218L227.991 150.528C230.518 149.189 233.369 148.486 236.268 148.488C238.054 148.491 239.828 148.757 241.526 149.277C243.374 149.879 244.983 150.998 246.138 152.484C247.294 153.97 247.941 155.752 247.992 157.593C248.042 158.829 247.827 160.062 247.359 161.218C246.89 162.375 246.179 163.43 245.268 164.321C244.356 165.212 243.263 165.921 242.053 166.404C240.844 166.888 239.543 167.137 238.229 167.136H222.417C220.627 167.132 218.912 166.46 217.648 165.267C216.384 164.074 215.674 162.457 215.674 160.771Z" fill="#9C2D17"/>
<path d="M215.674 160.771C215.674 160.771 215.674 161.054 215.777 161.575C215.896 162.342 216.164 163.081 216.567 163.757C217.206 164.82 218.148 165.694 219.287 166.28C219.997 166.63 220.768 166.857 221.564 166.95C222.471 167.013 223.382 167.031 224.291 167.002L237.818 166.958C239.1 166.99 240.377 166.793 241.581 166.377C242.852 165.93 244.007 165.234 244.972 164.336C245.937 163.438 246.689 162.357 247.178 161.166C247.676 159.909 247.879 158.565 247.771 157.228C247.665 155.91 247.253 154.629 246.563 153.478C245.873 152.326 244.922 151.332 243.779 150.565C242.675 149.846 241.431 149.34 240.118 149.076C236.513 148.273 232.727 148.616 229.351 150.051C228.331 150.483 227.398 151.027 226.473 151.496L223.833 152.88L219.287 155.248C218.143 155.827 217.2 156.703 216.567 157.771C216.168 158.448 215.901 159.187 215.777 159.953C215.698 160.474 215.706 160.757 215.682 160.757C215.652 160.484 215.652 160.21 215.682 159.938C215.771 159.156 216.018 158.398 216.409 157.704C217.031 156.592 217.984 155.676 219.152 155.069L223.667 152.65L226.291 151.243C227.208 150.766 228.141 150.215 229.185 149.754C232.625 148.262 236.495 147.896 240.182 148.711C241.541 148.966 242.834 149.472 243.984 150.2C245.18 150.998 246.174 152.034 246.895 153.234C247.617 154.435 248.048 155.77 248.159 157.146C248.274 158.542 248.064 159.944 247.542 161.255C247.032 162.5 246.246 163.628 245.238 164.565C244.229 165.502 243.02 166.226 241.692 166.69C240.443 167.113 239.121 167.313 237.794 167.278L224.267 167.241C223.347 167.259 222.426 167.232 221.508 167.159C220.676 167.05 219.872 166.798 219.137 166.414C217.972 165.801 217.017 164.886 216.385 163.779C215.999 163.084 215.755 162.326 215.666 161.546C215.647 161.288 215.649 161.029 215.674 160.771Z" fill="#263238"/>
<path d="M98.9691 169.593C98.8182 169.641 98.6615 169.671 98.5026 169.682L97.1665 169.846C96.5815 169.905 95.87 169.987 95.0478 170.121C94.2256 170.255 93.2848 170.352 92.2571 170.546C90.1937 170.888 87.7508 171.394 85.0787 172.035C82.1841 172.787 79.3317 173.676 76.5326 174.7C73.56 175.809 70.8009 177.022 68.3343 178.221C65.8677 179.419 63.7332 180.625 62.0097 181.705C61.1164 182.218 60.3416 182.739 59.638 183.194C58.9344 183.648 58.3573 184.02 57.883 184.347L56.7841 185.092C56.6582 185.183 56.5231 185.263 56.3809 185.33C56.4856 185.22 56.6022 185.12 56.7287 185.032L57.7881 184.236C58.2466 183.893 58.8158 183.491 59.5036 183.022C60.1914 182.553 60.9425 182.032 61.8753 181.533C63.6146 180.424 65.765 179.211 68.1999 177.968C73.5307 175.284 79.177 173.198 85.0233 171.752C87.7113 171.097 90.17 170.613 92.2492 170.307C93.2848 170.129 94.2256 170.039 95.0557 169.935C95.8858 169.831 96.6369 169.764 97.1824 169.727L98.5342 169.63C98.6781 169.608 98.8234 169.595 98.9691 169.593Z" fill="white"/>
<path d="M494.683 132.371C493.581 132.622 492.448 132.732 491.315 132.699C489.985 132.661 488.662 132.507 487.362 132.237C485.647 131.858 483.964 131.36 482.326 130.749C480.5 130.101 478.555 129.26 476.452 128.433L473.171 127.19C472.041 126.766 470.847 126.401 469.645 125.984C464.368 124.301 458.988 122.922 453.534 121.852C443.617 119.909 433.549 118.734 423.429 118.339C421.484 118.242 419.729 118.242 418.179 118.205H414.226L411.728 118.257H410.851C410.924 118.244 410.999 118.244 411.072 118.257L411.72 118.212L414.226 118.086L418.179 118.019C419.76 118.019 421.484 118.019 423.429 118.108C433.577 118.42 443.676 119.566 453.613 121.532C459.079 122.59 464.468 123.972 469.748 125.671C470.95 126.088 472.12 126.461 473.282 126.892L476.563 128.165C478.666 129.021 480.603 129.855 482.413 130.518C484.029 131.131 485.691 131.629 487.386 132.007C488.667 132.296 489.975 132.47 491.291 132.528C492.122 132.555 492.955 132.527 493.782 132.446L494.422 132.371H494.683Z" fill="#812816" stroke="#812816" stroke-linejoin="round"/>
<path d="M114.314 133.398C111.152 117.11 109.025 114.609 107.239 109.004C105.452 103.398 102.614 99.7577 99.0801 98.4699C96.7083 97.6064 84.7944 93.5641 80.6518 94.9041C76.5988 96.261 72.7402 98.0864 69.1648 100.338C66.3901 102.071 64.2873 104.605 63.1722 107.559L56.8477 124.361L67.9789 134.783L73.5604 123.617L79.6162 137.016L78.7228 150.528L113.453 159.327C116.583 154.563 116.109 142.637 114.314 133.398Z" fill="#009966"/>
<g opacity="0.2">
<path opacity="0.2" d="M105.294 115.629C103.76 124.108 103.515 125.307 101.981 133.756C101.452 136.667 99.9101 141.2 97.7123 143.315C96.0837 144.87 94.4868 146.367 92.2178 146.873C90.1149 147.342 86.9131 147.394 84.9367 146.575C82.9602 145.756 81.2684 142.109 82.0827 140.24C85.0315 140.836 85.9407 141.729 88.4784 140.24C90.692 138.915 93.8385 135.982 95.0402 133.786C100.108 124.555 101.507 124.227 105.318 115.629" fill="#131313"/>
</g>
<path d="M80.1302 132.059C79.5685 131.346 79.0562 130.6 78.5965 129.825L75.0231 124.294L71.3548 118.852C70.808 118.12 70.3141 117.354 69.8765 116.559C70.0667 116.722 70.2341 116.907 70.3745 117.11C70.6749 117.475 71.094 118.018 71.592 118.696C72.6039 120.051 73.9637 121.949 75.3709 124.086C76.7782 126.222 78.0036 128.202 78.8495 129.654C79.2764 130.398 79.64 130.964 79.8298 131.381C79.9668 131.591 80.0682 131.819 80.1302 132.059Z" fill="#263238"/>
<path d="M104.369 147.267C104.118 147.39 103.853 147.488 103.579 147.557C103.255 147.659 102.925 147.744 102.59 147.81C102.154 147.922 101.71 148.009 101.262 148.071C100.103 148.265 98.9292 148.367 97.7522 148.376C96.3079 148.379 94.8661 148.261 93.4435 148.026C92.0224 147.774 90.6281 147.403 89.2772 146.917C88.1843 146.515 87.1269 146.032 86.1149 145.473C85.6722 145.242 85.3244 144.989 84.9765 144.788C84.6886 144.612 84.4115 144.421 84.1464 144.215C83.9054 144.059 83.6851 143.877 83.4902 143.672C83.5377 143.612 84.518 144.334 86.2572 145.235C87.2769 145.752 88.3336 146.203 89.4195 146.582C92.0884 147.519 94.9118 148.005 97.7601 148.019C98.9208 148.02 100.08 147.948 101.231 147.803C103.16 147.542 104.346 147.193 104.369 147.267Z" fill="#263238"/>
<path d="M90.4312 121.89C90.368 122.18 86.6365 129.178 86.6365 129.178L69.0225 120.438L67.2279 113.291C66.9317 112.144 66.1649 111.153 65.0953 110.537C64.0256 109.92 62.7401 109.728 61.52 110.001L56.3259 112.004C56.1117 112.082 55.9216 112.21 55.7726 112.375C55.6236 112.54 55.5203 112.737 55.4721 112.949C55.4009 113.306 55.4721 113.693 56.1599 113.612C57.4485 113.515 60.1127 113.247 60.1127 113.247L58.8874 117.319C58.5639 118.386 58.6885 119.529 59.2352 120.512L60.0258 121.919L61.7413 124.532H61.7018C61.7018 124.532 78.8256 141.096 88.439 142.175C94.2181 142.823 100.764 127.57 100.764 127.57L90.4312 121.89Z" fill="#B78876"/>
<path d="M59.9863 113.522C59.9863 113.522 60.1207 113.351 60.4132 113.165C60.8049 112.908 61.272 112.773 61.7493 112.778C61.9985 112.791 62.2394 112.867 62.4466 112.998C62.6539 113.129 62.8199 113.31 62.9273 113.522C63.0933 113.857 62.9826 114.08 62.9273 114.065C62.8719 114.051 62.9273 113.857 62.7375 113.604C62.6209 113.443 62.4672 113.31 62.2878 113.213C62.1084 113.116 61.9081 113.059 61.7019 113.046C61.274 113.052 60.8538 113.154 60.4765 113.344C60.2314 113.455 60.01 113.552 59.9863 113.522Z" fill="#AA6550"/>
<path d="M62.2076 116.061C62.2076 116.061 62.089 115.927 61.923 115.726C61.7109 115.469 61.4295 115.271 61.1083 115.152C60.787 115.033 60.4378 114.997 60.0968 115.048C59.828 115.048 59.662 115.138 59.6462 115.108C59.6304 115.078 59.7727 114.967 60.0573 114.877C60.4334 114.774 60.8354 114.791 61.2002 114.925C61.565 115.06 61.872 115.305 62.0732 115.622C62.2155 115.875 62.2313 116.054 62.2076 116.061Z" fill="#AA6550"/>
<path d="M94.0838 99.8025L89.3403 121.086L101.99 128.24L106.844 115.16C106.844 115.16 104.804 99.2739 94.0838 99.8025Z" fill="#009966"/>
<path d="M101.958 128.24C101.604 128.099 101.26 127.935 100.93 127.748L98.1475 126.26L88.6606 121.101L88.542 121.034V120.907C88.8819 119.321 89.2456 117.609 89.6251 115.852C90.1943 113.202 90.7477 110.686 91.2062 108.408C91.4671 107.262 91.6806 106.175 91.9177 105.14C92.1322 104.183 92.4722 103.256 92.9297 102.378C93.5924 101.075 94.7654 100.063 96.2026 99.5566C96.5917 99.4304 97.0007 99.3675 97.4122 99.3705C97.5536 99.3614 97.6956 99.3765 97.8312 99.4152C97.2918 99.4322 96.7585 99.5277 96.2501 99.6981C94.8921 100.237 93.7978 101.236 93.1826 102.497C92.7552 103.364 92.4394 104.277 92.2419 105.214C92.0284 106.234 91.8071 107.329 91.5699 108.468C91.0797 110.775 90.5421 113.291 89.9887 115.912C89.6093 117.676 89.2377 119.381 88.8977 120.967L88.8029 120.773L98.2344 126.051L100.962 127.614C101.312 127.796 101.645 128.005 101.958 128.24Z" fill="#263238"/>
<path d="M105.824 114.527C105.893 115.19 105.872 115.858 105.76 116.515C105.595 118.106 105.293 119.682 104.859 121.227C104.425 122.774 103.865 124.287 103.183 125.753C102.936 126.377 102.603 126.967 102.195 127.51C102.388 126.875 102.629 126.253 102.914 125.649C104.114 122.687 104.973 119.612 105.476 116.478C105.548 115.821 105.664 115.17 105.824 114.527Z" fill="#263238"/>
<path d="M37.2415 232.914L37.0992 244.274C37.0992 244.274 24.7821 247.959 24.5449 250.058L47.9301 251.101L48.9262 233.406L37.2415 232.914Z" fill="#455A64"/>
<path d="M44.4201 243.641C44.6421 243.716 44.8269 243.865 44.9393 244.06C45.0516 244.255 45.0835 244.483 45.0289 244.698C44.9592 244.911 44.8052 245.09 44.5991 245.198C44.3929 245.306 44.1505 245.335 43.9221 245.279C43.6877 245.198 43.4931 245.039 43.375 244.832C43.257 244.624 43.2238 244.384 43.2817 244.155C43.381 243.942 43.5641 243.773 43.7925 243.684C44.021 243.596 44.277 243.593 44.5071 243.678" fill="#E0E0E0"/>
<path d="M47.9301 251.101V249.314L25.4936 248.979C25.4936 248.979 24.4264 249.358 24.5133 250.058L47.9301 251.101Z" fill="#E0E0E0"/>
<path d="M36.7277 244.148C36.7277 244.252 37.2969 244.326 37.8345 244.698C38.3721 245.07 38.625 245.532 38.7673 245.495C38.9096 245.457 38.7673 244.832 38.0637 244.393C37.3601 243.954 36.704 244.043 36.7277 244.148Z" fill="#263238"/>
<path d="M34.2217 244.989C34.2217 245.093 34.6802 245.301 35.0122 245.77C35.3443 246.239 35.4629 246.731 35.5814 246.731C35.7 246.731 35.7949 246.128 35.3285 245.547C34.862 244.966 34.2296 244.892 34.2217 244.989Z" fill="#263238"/>
<path d="M32.6876 247.691C32.7904 247.691 32.9802 247.192 32.6876 246.589C32.3951 245.986 31.8971 245.733 31.8496 245.845C31.8022 245.956 32.1105 246.262 32.3161 246.761C32.5216 247.259 32.5612 247.676 32.6876 247.691Z" fill="#263238"/>
<path d="M37.0595 241.557C37.1069 241.661 37.6366 241.557 38.2849 241.602C38.9331 241.646 39.4154 241.892 39.4786 241.803C39.5419 241.713 39.0833 241.304 38.3244 241.229C37.5654 241.155 37.012 241.475 37.0595 241.557Z" fill="#263238"/>
<g opacity="0.3">
<path opacity="0.3" d="M37.2177 235.162L37.186 237.187L48.6889 237.604L48.7916 235.78L37.2177 235.162Z" fill="#131313"/>
</g>
<path d="M37.1387 239.264C37.5162 239.382 37.921 239.4 38.3087 239.316C38.7345 239.264 39.1516 239.162 39.5499 239.011C39.788 238.928 40.018 238.826 40.2378 238.706C40.3744 238.646 40.4998 238.565 40.6093 238.468C40.6886 238.394 40.7395 238.298 40.7538 238.194C40.7681 238.09 40.7451 237.984 40.6884 237.894C40.634 237.817 40.5615 237.753 40.4765 237.706C40.3915 237.66 40.2963 237.633 40.1982 237.626C40.0495 237.619 39.9005 237.632 39.7555 237.664C39.5044 237.709 39.2583 237.776 39.0203 237.865C38.6179 238.017 38.2421 238.225 37.9055 238.482C37.3363 238.937 37.115 239.331 37.1703 239.354C37.2256 239.376 37.5023 239.063 38.0716 238.698C38.4063 238.488 38.7675 238.318 39.1468 238.192C39.3685 238.121 39.5958 238.066 39.8267 238.028C40.0796 237.976 40.2931 237.984 40.3484 238.088C40.4038 238.192 40.3484 238.147 40.3484 238.214C40.2666 238.284 40.1763 238.344 40.0796 238.393C39.8662 238.505 39.6527 238.609 39.4472 238.698C39.0747 238.85 38.6883 238.97 38.2929 239.056C37.9038 239.102 37.5182 239.171 37.1387 239.264Z" fill="#263238"/>
<path d="M37.3046 239.428C37.5396 239.123 37.6644 238.755 37.6603 238.378C37.7042 237.972 37.6721 237.561 37.5655 237.165C37.5018 236.928 37.4117 236.699 37.2967 236.48C37.2411 236.332 37.1456 236.199 37.0195 236.096C36.8934 235.993 36.741 235.923 36.5773 235.892C36.474 235.888 36.3718 235.913 36.2833 235.963C36.1948 236.013 36.1239 236.087 36.0792 236.175C36.0094 236.301 35.9614 236.436 35.9369 236.577C35.8973 236.823 35.8973 237.074 35.9369 237.321C35.9801 237.737 36.1323 238.136 36.3796 238.483C36.8065 239.078 37.2809 239.227 37.2888 239.19C37.2967 239.153 36.9409 238.914 36.6168 238.348C36.4314 238.024 36.3234 237.666 36.3006 237.299C36.2878 237.084 36.3065 236.869 36.3559 236.659C36.4033 236.428 36.5061 236.242 36.601 236.271C36.6958 236.301 36.9014 236.458 36.9884 236.651C37.0955 236.846 37.1829 237.051 37.2492 237.262C37.3628 237.622 37.4214 237.995 37.4232 238.371C37.3599 239.011 37.2176 239.406 37.3046 239.428Z" fill="#263238"/>
<path d="M84.9131 150.647C84.9131 150.647 48.3728 136.205 37.0676 135.602C29.9524 135.215 24.6082 139.503 25.5727 146.411C26.0549 149.873 36.1505 190.333 36.1505 190.333L51.5351 183.722L44.1353 155.739L74.1771 169.481L84.9131 150.647Z" fill="#263238"/>
<path d="M39.5422 148.659C39.4237 148.756 40.6332 150.223 41.9139 152.166C43.1947 154.109 44.0485 155.784 44.1908 155.731C44.3331 155.679 43.6769 153.885 42.3725 151.905C41.068 149.925 39.6766 148.57 39.5422 148.659Z" fill="#455A64"/>
<path d="M36.5537 150.267C36.4747 150.394 38.3167 151.496 40.5066 152.999C42.6965 154.503 44.3409 155.821 44.4594 155.717C44.578 155.612 42.9969 154.071 40.7991 152.582C38.6013 151.094 36.617 150.148 36.5537 150.267Z" fill="#455A64"/>
<path d="M113.413 159.327C113.413 159.327 108.82 164.903 104.44 166.429C98.9064 168.342 58.2235 186.424 58.2235 186.424C58.2235 186.424 50.8395 238.08 51.4245 235.921L34.3877 235.534L36.2376 187.958C36.459 181.868 41.6452 174.871 47.2187 171.759L84.9132 150.647L113.413 159.327Z" fill="#263238"/>
<path d="M35.9136 196.668C35.9677 196.453 35.9916 196.233 35.9847 196.013C35.9847 195.536 36.048 194.919 36.0875 194.144C36.1843 191.854 36.4112 189.57 36.7674 187.303C37.2665 183.952 38.5286 180.742 40.4673 177.893C41.6669 176.255 43.1469 174.816 44.847 173.635C46.6919 172.369 48.6224 171.218 50.6261 170.188C58.8243 165.766 65.9 161.255 71.1336 158.166C73.7424 156.602 75.877 155.359 77.3316 154.51L79.0235 153.528C79.2281 153.421 79.4214 153.297 79.6006 153.156C79.3828 153.23 79.1736 153.325 78.976 153.438C78.5728 153.639 77.9799 153.937 77.2289 154.339C75.7189 155.136 73.5685 156.342 70.9043 157.86C65.6154 160.883 58.5002 165.342 50.3494 169.771C48.3251 170.813 46.3761 171.979 44.515 173.263C42.7723 174.48 41.2596 175.965 40.0404 177.655C38.0901 180.578 36.846 183.869 36.3958 187.295C36.0702 189.578 35.9012 191.878 35.8898 194.182C35.8898 194.926 35.8898 195.574 35.8898 196.058C35.8784 196.261 35.8863 196.466 35.9136 196.668Z" fill="#455A64"/>
<path d="M98.3764 164.769C98.0607 164.308 97.712 163.868 97.3328 163.451C96.5475 162.376 96.0024 161.162 95.7306 159.882C95.4588 158.602 95.466 157.284 95.7517 156.007C95.9273 155.483 96.0647 154.948 96.1628 154.406C95.779 154.838 95.5082 155.348 95.3722 155.895C94.9673 157.217 94.9077 158.612 95.1983 159.96C95.482 161.308 96.1117 162.571 97.0324 163.637C97.7519 164.493 98.3448 164.814 98.3764 164.769Z" fill="#455A64"/>
<path d="M40.6488 235.534C40.6768 235.45 40.6927 235.362 40.6963 235.274C40.6963 235.065 40.7595 234.812 40.7991 234.492C40.886 233.748 40.9967 232.765 41.139 231.515C41.4157 228.864 41.811 225.09 42.3011 220.445C42.5304 218.107 42.7913 215.547 43.0917 212.8C43.3921 210.053 43.6688 207.112 43.8823 204.015C44.0957 200.918 44.4436 197.68 45.0444 194.338C45.6312 190.909 46.6944 187.567 48.2067 184.4C49.7861 181.269 51.8716 178.389 54.389 175.861C56.7479 173.509 59.3307 171.366 62.105 169.459C66.8598 166.306 71.7981 163.405 76.8966 160.771C81.2211 158.434 84.668 156.439 86.9527 154.935C88.107 154.191 88.9766 153.588 89.5616 153.163L90.2178 152.679C90.3654 152.57 90.4365 152.511 90.4312 152.501C90.3432 152.534 90.2607 152.579 90.1862 152.635L89.4984 153.081C88.8975 153.476 88.0042 154.057 86.842 154.779C84.5178 156.223 81.055 158.166 76.7069 160.466C71.5667 163.062 66.5933 165.94 61.8125 169.087C59.0012 170.999 56.3861 173.155 54.0016 175.526C51.4393 178.088 49.3186 181.012 47.7166 184.191C46.1979 187.398 45.1346 190.78 44.5543 194.248C43.9613 197.598 43.6609 200.851 43.4159 203.926C43.1708 207 42.9257 209.963 42.6253 212.71C42.3249 215.457 42.1351 218.018 41.9217 220.363C41.5027 225.016 41.1311 228.79 40.9335 231.448C40.828 232.728 40.749 233.721 40.6963 234.425C40.6963 234.745 40.6568 235.006 40.6409 235.207C40.6251 235.408 40.633 235.534 40.6488 235.534Z" fill="#455A64"/>
<path d="M80.7863 68.715C80.2125 67.3237 79.1309 66.1705 77.7356 65.4624C76.3403 64.7543 74.7227 64.5377 73.1731 64.8514C72.4913 65.0862 71.7783 65.2315 71.0544 65.2832C70.1769 65.1416 69.3145 64.9274 68.4771 64.6429C67.5282 64.4981 66.556 64.6907 65.7495 65.1832C64.9429 65.6758 64.3597 66.4331 64.1131 67.308C63.3705 67.1381 62.5975 67.1227 61.8479 67.2628C61.0984 67.4029 60.3902 67.6953 59.7729 68.1194C59.1675 68.5608 58.7377 69.1813 58.5526 69.8809C58.3676 70.5805 58.4382 71.3184 58.753 71.9756C59.0614 72.519 59.5436 72.9508 59.8519 73.5091C60.3184 74.4247 60.1049 75.5265 60.4291 76.4868C60.7333 77.1851 61.2402 77.7887 61.8917 78.2284C62.5432 78.6681 63.3131 78.9262 64.1131 78.9732C65.7228 79.0511 67.3333 78.8363 68.8566 78.3404" fill="#263238"/>
<path d="M73.426 98.1574C73.2284 96.7132 73.1019 95.7008 73.1019 95.7008C73.1019 95.7008 68.0027 95.7008 65.9867 89.7453C64.9668 86.7675 64.287 81.7947 63.8759 77.6854C63.786 76.81 63.8853 75.9266 64.1678 75.0883C64.4503 74.25 64.9101 73.4743 65.5195 72.8079C66.129 72.1415 66.8754 71.5982 67.7139 71.2108C68.5523 70.8234 69.4654 70.5998 70.3981 70.5537L83.9327 69.8911L84.2252 71.8639L87.7907 96.3708C87.9196 97.2593 87.8608 98.1631 87.6175 99.0301C87.3742 99.8971 86.9512 100.71 86.373 101.423C85.7948 102.135 85.0727 102.733 84.2483 103.182C83.4238 103.631 82.5132 103.922 81.5689 104.039C80.6239 104.158 79.6631 104.1 78.7418 103.869C77.8205 103.637 76.9568 103.237 76.2002 102.691C75.4436 102.144 74.8091 101.462 74.333 100.685C73.857 99.9066 73.5487 99.0478 73.426 98.1574Z" fill="#B78876"/>
<path d="M65.7657 81.1917C65.799 81.3953 65.9148 81.5788 66.0887 81.7038C66.2626 81.8287 66.4812 81.8853 66.6985 81.8617C66.8061 81.8554 66.9112 81.8284 67.0073 81.7824C67.1033 81.7364 67.1884 81.6724 67.2573 81.5943C67.3261 81.5162 67.3773 81.4257 67.4077 81.3283C67.438 81.2309 67.4469 81.1287 67.4337 81.028C67.4043 80.8227 67.2895 80.6368 67.1145 80.5112C66.9396 80.3856 66.7189 80.3305 66.5009 80.358C66.3933 80.3643 66.2882 80.3913 66.1922 80.4373C66.0961 80.4833 66.011 80.5473 65.9421 80.6254C65.8733 80.7035 65.8221 80.794 65.7917 80.8914C65.7614 80.9888 65.7525 81.091 65.7657 81.1917Z" fill="#263238"/>
<path d="M65.4177 80.0898C65.5363 80.1717 66.0897 79.6432 66.9989 79.5092C67.908 79.3753 68.58 79.7028 68.6986 79.5837C68.8172 79.4646 68.6037 79.3604 68.2875 79.2115C67.8588 79.0135 67.3745 78.9483 66.904 79.0254C66.4385 79.0909 66.0084 79.2973 65.6786 79.6134C65.4177 79.8516 65.3545 80.0526 65.4177 80.0898Z" fill="#263238"/>
<path d="M74.2402 79.8367C74.2735 80.0398 74.3896 80.2226 74.5638 80.3463C74.738 80.47 74.9566 80.5249 75.1731 80.4992C75.2806 80.4937 75.3858 80.4677 75.4822 80.4226C75.5787 80.3775 75.6643 80.3143 75.7339 80.237C75.8035 80.1596 75.8555 80.0697 75.8869 79.9727C75.9182 79.8757 75.9282 79.7737 75.9162 79.673C75.8829 79.4694 75.7671 79.2859 75.5932 79.161C75.4192 79.0361 75.2007 78.9795 74.9834 79.003C74.8751 79.0084 74.7692 79.0347 74.6721 79.0802C74.5751 79.1258 74.4891 79.1897 74.4194 79.2678C74.3497 79.346 74.2978 79.4369 74.267 79.5347C74.2362 79.6326 74.2271 79.7354 74.2402 79.8367Z" fill="#263238"/>
<path d="M74.2245 78.9285C74.3431 79.0178 74.8965 78.4819 75.8057 78.3554C76.7148 78.2289 77.3868 78.5415 77.5054 78.4224C77.624 78.3033 77.4106 78.2066 77.0943 78.0503C76.6635 77.8588 76.1814 77.794 75.7108 77.8642C75.2471 77.9347 74.8185 78.1403 74.4854 78.4522C74.2245 78.6903 74.1692 78.8838 74.2245 78.9285Z" fill="#263238"/>
<path d="M72.0345 85.6582C71.5387 85.5952 71.0361 85.5952 70.5403 85.6582C70.311 85.6582 70.0897 85.6582 70.0264 85.5168C69.9537 85.3012 69.9537 85.0698 70.0264 84.8542C70.1529 84.3034 70.2873 83.7227 70.4296 83.1197C70.8156 81.6398 71.0799 80.1341 71.2202 78.616C70.7022 80.073 70.3083 81.5666 70.0422 83.0825C69.9157 83.6929 69.7892 84.2736 69.6785 84.8319C69.5681 85.1078 69.5681 85.4121 69.6785 85.688C69.7247 85.7585 69.787 85.8185 69.8608 85.8636C69.9347 85.9086 70.0182 85.9376 70.1055 85.9485C70.2367 85.9641 70.3695 85.9641 70.5008 85.9485C71.023 85.9132 71.5383 85.8157 72.0345 85.6582Z" fill="#263238"/>
<path d="M73.1021 95.7008C76.1575 95.2878 79.0312 94.0842 81.4031 92.2241C81.4031 92.2241 79.9959 96.7505 73.4262 97.1301L73.1021 95.7008Z" fill="#AA6550"/>
<path d="M74.7621 85.8443C74.6119 85.8443 74.7621 86.7673 74.0506 87.5416C73.3391 88.3158 72.2797 88.3679 72.2876 88.4944C72.2955 88.621 72.5485 88.6433 72.9912 88.5838C73.561 88.5116 74.0836 88.2471 74.4617 87.8393C74.832 87.4531 75.0252 86.9447 74.9993 86.4249C74.9756 86.0378 74.8254 85.8294 74.7621 85.8443Z" fill="#263238"/>
<path d="M73.4338 75.6681C73.5603 75.884 74.4378 75.6681 75.5051 75.601C76.5724 75.534 77.4657 75.7053 77.5685 75.4819C77.6713 75.2585 77.4341 75.1841 77.0546 75.0128C76.5514 74.806 76.0044 74.7112 75.4559 74.7357C74.9075 74.7603 74.3725 74.9035 73.8923 75.1543C73.5445 75.3553 73.3785 75.5638 73.4338 75.6681Z" fill="#263238"/>
<path d="M65.3305 77.6037C65.5202 77.7675 66.1211 77.4771 66.8405 77.358C67.5599 77.2389 68.2319 77.2835 68.3426 77.0602C68.39 76.956 68.2556 76.7773 67.9552 76.6433C67.5508 76.4738 67.1005 76.427 66.6666 76.5092C66.2336 76.5811 65.8355 76.779 65.5281 77.0751C65.2989 77.3133 65.2435 77.5218 65.3305 77.6037Z" fill="#263238"/>
<path d="M63.1645 74.9981C63.1645 74.9981 66.7458 76.1371 70.8568 73.5464C73.5526 71.8491 76.8256 70.7845 77.6399 71.2461C78.4542 71.7077 78.9839 74.477 81.9485 74.9684C81.9485 74.9684 82.4703 80.3284 84.7076 79.8668C86.2888 79.5393 85.3717 73.6283 84.7076 70.256C84.5689 69.604 84.2024 69.0145 83.6665 68.5814C83.1307 68.1483 82.4563 67.8966 81.7509 67.8663L77.5846 67.71L72.3826 69.0797L66.8011 70.5091L62.5479 72.1841L63.1645 74.9981Z" fill="#263238"/>
<path d="M84.2095 77.6853C84.2885 77.6332 87.7433 75.9209 88.3837 79.4719C89.024 83.0229 85.1107 82.8889 85.0791 82.7921C85.0475 82.6953 84.2095 77.6853 84.2095 77.6853Z" fill="#B78876"/>
<path d="M85.9884 81.2587C85.9884 81.2587 86.0674 81.2959 86.186 81.3257C86.3525 81.3629 86.5278 81.3389 86.6762 81.2587C86.8912 81.0737 87.051 80.8389 87.1398 80.5777C87.2286 80.3165 87.2432 80.038 87.1821 79.7698C87.1364 79.4646 87.0204 79.1724 86.8422 78.9138C86.7848 78.8091 86.7018 78.7188 86.6001 78.6502C86.4984 78.5816 86.3809 78.5367 86.2572 78.5192C86.1787 78.5129 86.1002 78.5325 86.0354 78.5746C85.9705 78.6167 85.9231 78.6787 85.9014 78.75C85.9014 78.8542 85.9014 78.9212 85.9014 78.9361C85.9014 78.951 85.8145 78.884 85.8145 78.7351C85.8212 78.6439 85.8601 78.5574 85.9251 78.4895C86.0164 78.3996 86.141 78.3463 86.273 78.3406C86.4338 78.3434 86.5911 78.3853 86.7296 78.4623C86.8681 78.5392 86.9832 78.6486 87.0635 78.7798C87.2798 79.061 87.4184 79.3884 87.4667 79.7326C87.5451 80.046 87.5223 80.3743 87.4012 80.6754C87.28 80.9765 87.0661 81.2366 86.7868 81.4224C86.6905 81.4655 86.5852 81.4878 86.4785 81.4878C86.3719 81.4878 86.2666 81.4655 86.1702 81.4224C86.0121 81.348 85.9805 81.2736 85.9884 81.2587Z" fill="#AA6550"/>
<path d="M64.9746 65.998C64.9746 65.998 65.1011 66.1915 65.3699 66.4744C65.7549 66.8756 66.2459 67.1735 66.7929 67.3379C67.6057 67.5852 68.4743 67.6212 69.3069 67.4421C70.3423 67.2052 71.3593 66.9017 72.3507 66.5339C73.377 66.1534 74.4734 65.9686 75.5762 65.9905C76.5088 66.0223 77.3913 66.3963 78.0349 67.0327C78.4732 67.4481 78.7395 67.9972 78.7859 68.5811C78.8188 68.7929 78.7801 69.0091 78.6752 69.199C78.6357 69.199 78.6752 68.9756 78.6278 68.596C78.5292 68.0686 78.2518 67.5854 77.8372 67.2188C77.228 66.6691 76.4199 66.3578 75.5762 66.3478C74.5235 66.3486 73.4803 66.5355 72.5009 66.8987C71.493 67.2762 70.4538 67.575 69.3939 67.792C68.499 67.9663 67.5701 67.8992 66.7139 67.5985C66.1326 67.3975 65.6268 67.0403 65.2592 66.5712C64.9746 66.2287 64.9746 66.0054 64.9746 65.998Z" fill="#455A64"/>
<path d="M77.7112 69.3999C77.7112 69.3999 77.5214 69.2138 77.1262 68.9532C76.5624 68.6284 75.9135 68.4582 75.2525 68.4619C74.2502 68.4583 73.2623 68.6858 72.3748 69.1244C71.2657 69.6885 70.1197 70.1858 68.9437 70.6133C67.828 70.9394 66.653 71.0462 65.4917 70.9272C64.3303 70.8081 63.2073 70.4656 62.1923 69.921C61.5782 69.5957 61.0165 69.1896 60.5242 68.715C60.3325 68.5537 60.172 68.3622 60.0498 68.1492C60.7498 68.7318 61.5129 69.2433 62.3267 69.6753C64.3258 70.6633 66.6579 70.8693 68.8172 70.2486C69.9765 69.807 71.1112 69.31 72.2167 68.7596C73.1603 68.31 74.2121 68.0996 75.2683 68.1492C75.9861 68.1751 76.6772 68.412 77.2447 68.8267C77.4522 68.9747 77.6133 69.1728 77.7112 69.3999Z" fill="#455A64"/>
<path d="M66.0027 129.892L47.6456 115.16L41.5898 116.448C41.5898 116.448 47.9698 128.939 52.5867 133.518C52.5867 133.518 57.1483 139.265 64.6746 136.778C72.2008 134.292 66.0027 129.892 66.0027 129.892Z" fill="#B78876"/>
<path d="M46.2539 98.9314H38.451C38.1565 98.9464 37.8694 99.0231 37.6103 99.1558C37.3513 99.2885 37.1269 99.4739 36.9535 99.6985C36.7801 99.923 36.6621 100.181 36.6079 100.454C36.5538 100.727 36.565 101.008 36.6406 101.276L44.491 115.666C44.6398 115.94 44.8663 116.17 45.1454 116.331C45.4245 116.491 45.7452 116.575 46.0721 116.574H55.559C55.782 116.551 55.9954 116.476 56.1802 116.356C56.3649 116.236 56.5153 116.075 56.6178 115.887C56.7203 115.699 56.7719 115.49 56.7678 115.279C56.7638 115.068 56.7043 114.861 56.5946 114.676L49.0288 100.584C48.7713 100.096 48.3763 99.6835 47.887 99.392C47.3977 99.1006 46.8328 98.9413 46.2539 98.9314Z" fill="#455A64"/>
<path d="M45.7323 99.8025H37.9293C37.7054 99.8012 37.4848 99.8542 37.2889 99.9564C37.093 100.059 36.9284 100.207 36.8108 100.386C36.6933 100.566 36.6268 100.771 36.6178 100.981C36.6087 101.192 36.6575 101.401 36.7593 101.589L44.4199 115.666C44.5702 115.939 44.797 116.168 45.0758 116.328C45.3545 116.488 45.6745 116.574 46.0011 116.574H55.4089C55.5381 116.569 55.6639 116.535 55.7755 116.473C55.887 116.412 55.9809 116.325 56.0487 116.222C56.1166 116.118 56.1565 116 56.1648 115.879C56.1732 115.757 56.1498 115.636 56.0967 115.525L48.523 101.44C48.2671 100.949 47.8699 100.535 47.3766 100.245C46.8833 99.9557 46.3136 99.8023 45.7323 99.8025Z" fill="#263238"/>
<path d="M45.0683 105.683L40.3249 107.47L39.313 111.073L41.5977 116.433L49.9541 117.594L47.5033 115.234L47.8116 113.172C47.8116 113.172 50.1833 112.48 50.1833 112.145C50.1833 111.81 49.8908 110.656 49.5351 110.619C48.5992 110.82 47.6818 111.091 46.7918 111.43C46.7918 111.43 49.6932 109.264 49.6141 108.914C49.5351 108.564 49.2188 107.678 48.6417 107.574C48.0646 107.47 43.3686 109.562 43.3686 109.562L42.578 111.192L41.914 108.579C41.914 108.579 46.0961 107.477 45.0683 105.683Z" fill="#B78876"/>
<path d="M45.6691 114.14C45.6691 114.14 45.5505 113.991 45.5031 113.693C45.4531 113.314 45.4986 112.929 45.636 112.57C45.7733 112.21 45.9986 111.886 46.2936 111.624C46.5308 111.43 46.7126 111.363 46.7285 111.386C46.3677 111.762 46.0716 112.189 45.8509 112.651C45.7102 113.136 45.6489 113.638 45.6691 114.14Z" fill="#AA6550"/>
<path d="M43.4082 113.358C43.5008 112.974 43.5642 112.583 43.5979 112.19C43.6171 111.75 43.6969 111.315 43.8351 110.894C43.9254 110.625 44.0831 110.379 44.2949 110.178C44.5067 109.977 44.7665 109.827 45.0526 109.741C46.1831 109.353 47.2109 109.041 47.954 108.81C48.3513 108.669 48.7615 108.562 49.1794 108.49C48.8114 108.688 48.4217 108.847 48.0172 108.966C47.282 109.234 46.2543 109.577 45.1396 109.956C44.8792 110.041 44.6417 110.178 44.4439 110.358C44.2683 110.534 44.1337 110.742 44.0486 110.969C43.9038 111.371 43.8109 111.789 43.7719 112.212C43.7565 112.617 43.6313 113.012 43.4082 113.358Z" fill="#AA6550"/>
<path d="M42.3168 112.554C42.242 112.263 42.242 111.96 42.3168 111.669C42.4038 111.192 42.5224 110.82 42.5935 110.828C42.6677 111.119 42.6677 111.422 42.5935 111.713C42.5066 112.19 42.388 112.562 42.3168 112.554Z" fill="#AA6550"/>
<path d="M14.8522 244.416C16.0905 244.777 17.2386 245.37 18.2275 246.159C19.2165 246.949 20.026 247.918 20.6076 249.009C21.7601 251.201 22.3633 253.613 22.3706 256.058C22.5287 260.763 20.4574 265.825 18.0145 269.942C13.3423 267.113 11.4765 261.269 10.7176 258.292C9.5317 253.542 10.4409 244.282 14.8522 244.408" fill="#009966"/>
<path d="M24.0153 276.94C23.5283 275.654 23.4107 274.269 23.6744 272.927C23.9382 271.584 24.574 270.331 25.5174 269.295C26.4801 268.274 27.6494 267.445 28.9567 266.856C30.264 266.267 31.683 265.929 33.1306 265.863C34.4588 265.773 35.9451 265.937 36.8542 266.86C37.2538 267.315 37.5172 267.861 37.6172 268.444C37.7173 269.026 37.6504 269.623 37.4234 270.173C36.9509 271.268 36.179 272.226 35.1861 272.95C31.921 275.57 28.2528 277.535 24.0153 276.94Z" fill="#009966"/>
<path d="M20.9005 291.881C20.8646 291.559 20.8646 291.235 20.9005 290.913C20.9005 290.221 20.9637 289.335 21.0032 288.27C21.0342 285.338 21.5681 282.429 22.5844 279.657C23.6471 276.88 25.4752 274.418 27.8812 272.525C28.6114 271.969 29.4072 271.495 30.2529 271.111C30.5534 270.969 30.8063 270.902 30.9645 270.835C31.1226 270.768 31.2174 270.754 31.2253 270.768C29.2749 271.677 27.5353 272.941 26.1076 274.487C24.68 276.033 23.5926 277.831 22.9085 279.776C21.9192 282.521 21.3677 285.388 21.272 288.285C21.193 289.394 21.1218 290.295 21.0586 290.92C21.0341 291.244 20.9812 291.565 20.9005 291.881Z" fill="#263238"/>
<path d="M14.8207 251.525C14.868 251.659 14.905 251.796 14.9313 251.934C14.9999 252.242 15.0868 252.637 15.1922 253.118C15.4136 254.145 15.714 255.642 16.0619 257.488C16.7655 261.21 17.643 266.309 18.5047 271.982C19.3665 277.654 20.0068 282.806 20.4179 286.543C20.6235 288.411 20.7737 289.922 20.8686 290.972C20.9055 291.468 20.9371 291.87 20.9634 292.178C20.9861 292.316 20.9861 292.457 20.9634 292.595C20.924 292.458 20.8975 292.319 20.8844 292.178C20.8448 291.873 20.7895 291.478 20.7184 290.98C20.5761 289.9 20.3863 288.404 20.1491 286.573C19.6748 282.85 18.987 277.699 18.1411 272.026C17.2952 266.354 16.4413 261.269 15.8089 257.547C15.4927 255.723 15.2397 254.235 15.0183 253.155C14.9393 252.664 14.876 252.269 14.8207 251.964C14.8 251.818 14.8 251.671 14.8207 251.525Z" fill="#263238"/>
<path d="M17.2794 280.744C16.3494 278.007 14.7407 275.518 12.5865 273.483C10.4322 271.448 7.79439 269.926 4.89116 269.041C3.40488 268.602 1.53913 268.446 0.54301 269.57C-0.45311 270.694 0.084478 272.406 0.851333 273.679C2.5008 276.309 4.94082 278.42 7.86329 279.745C10.7858 281.069 14.0596 281.549 17.2715 281.123" fill="#009966"/>
<path d="M6.21149 273.344C6.52949 273.397 6.84174 273.477 7.14436 273.582C7.5078 273.683 7.86425 273.805 8.21164 273.947C8.62274 274.118 9.10499 274.267 9.59514 274.52C10.137 274.77 10.6647 275.046 11.1763 275.347C11.7784 275.688 12.3616 276.058 12.9235 276.456C15.5106 278.286 17.584 280.683 18.9634 283.439C19.2632 284.037 19.5271 284.651 19.754 285.278C19.9619 285.818 20.1335 286.37 20.2679 286.93C20.3907 287.391 20.4857 287.859 20.5525 288.33C20.6212 288.682 20.6661 289.037 20.6869 289.394C20.7196 289.696 20.7249 290 20.7027 290.302C20.6157 290.302 20.5604 289 19.9991 286.982C19.8495 286.435 19.6701 285.896 19.4615 285.367C19.2347 284.753 18.9707 284.151 18.6709 283.565C17.9698 282.242 17.119 280.994 16.1332 279.843C15.1194 278.696 13.9799 277.653 12.7337 276.731C12.1877 276.334 11.6204 275.964 11.034 275.622C10.5238 275.31 9.99598 275.024 9.45284 274.766C7.51593 273.776 6.17986 273.411 6.21149 273.344Z" fill="#263238"/>
<rect x="126.64" y="58.7842" width="17.3926" height="22.333" fill="#EBEBEB"/>
<rect x="147.985" y="58.7842" width="17.3926" height="22.333" fill="#EBEBEB"/>
<rect x="169.33" y="58.7842" width="17.3926" height="22.333" fill="#EBEBEB"/>
<rect x="190.676" y="58.7842" width="17.3926" height="22.333" fill="#EBEBEB"/>
<rect x="212.021" y="58.7842" width="17.3926" height="22.333" fill="#EBEBEB"/>
<path d="M137.372 76.1533H134.656V69.1518L134.683 68.0014L134.727 66.7434C134.275 67.1683 133.962 67.4469 133.786 67.5793L132.31 68.6966L131 67.1572L135.14 64.0537H137.372V76.1533Z" fill="white"/>
<path d="M158.372 76.1533H155.656V69.1518L155.683 68.0014L155.727 66.7434C155.275 67.1683 154.962 67.4469 154.786 67.5793L153.31 68.6966L152 67.1572L156.14 64.0537H158.372V76.1533Z" fill="white"/>
<path d="M178.677 68.8262C179.919 68.8262 180.906 69.1544 181.639 69.811C182.377 70.4676 182.746 71.367 182.746 72.5091C182.746 73.8609 182.304 74.9009 181.419 75.6292C180.534 76.3575 179.269 76.7217 177.622 76.7217C176.192 76.7217 175.038 76.5037 174.159 76.0679V73.8581C174.622 74.0898 175.161 74.2802 175.776 74.4292C176.392 74.5726 176.975 74.6443 177.525 74.6443C179.184 74.6443 180.013 74.0043 180.013 72.7243C180.013 71.5049 179.154 70.8952 177.438 70.8952C177.127 70.8952 176.784 70.9256 176.409 70.9862C176.034 71.0414 175.729 71.1021 175.495 71.1683L174.414 70.6221L174.897 64.4563H181.867V66.6247H177.279L177.042 69L177.35 68.942C177.707 68.8648 178.149 68.8262 178.677 68.8262Z" fill="white"/>
<path d="M204.686 73.6457H203.139V76.1533H200.484V73.6457H195V71.8663L200.634 64.0537H203.139V71.6594H204.686V73.6457ZM200.484 71.6594V69.607C200.484 69.2649 200.499 68.7683 200.528 68.1173C200.558 67.4662 200.581 67.0883 200.599 66.9834H200.528C200.312 67.4359 200.051 67.8773 199.746 68.3076L197.391 71.6594H200.484Z" fill="white"/>
<path d="M224.666 57.5175C224.666 58.2734 224.423 58.9162 223.937 59.4458C223.45 59.9755 222.768 60.3396 221.889 60.5383V60.5879C222.926 60.7093 223.711 61.0072 224.244 61.4817C224.777 61.9507 225.044 62.5852 225.044 63.3852C225.044 64.5494 224.596 65.457 223.699 66.108C222.803 66.7536 221.522 67.0763 219.858 67.0763C218.464 67.0763 217.228 66.8584 216.149 66.4225V64.2459C216.647 64.4832 217.195 64.6763 217.793 64.8252C218.391 64.9742 218.982 65.0487 219.568 65.0487C220.465 65.0487 221.127 64.9052 221.555 64.6183C221.982 64.3314 222.196 63.8707 222.196 63.2362C222.196 62.668 221.95 62.2652 221.458 62.0279C220.966 61.7907 220.181 61.6721 219.103 61.6721H218.127V59.7107H219.12C220.116 59.7107 220.843 59.5893 221.3 59.3465C221.763 59.0982 221.994 58.6762 221.994 58.0803C221.994 57.1644 221.385 56.7065 220.166 56.7065C219.744 56.7065 219.313 56.7727 218.874 56.9051C218.44 57.0375 217.957 57.2665 217.424 57.592L216.167 55.8292C217.339 55.0347 218.736 54.6375 220.359 54.6375C221.689 54.6375 222.738 54.8912 223.506 55.3988C224.279 55.9064 224.666 56.6127 224.666 57.5175Z" fill="white"/>
<path d="M220.518 78.5361C221.76 78.5361 222.747 78.8643 223.479 79.5209C224.218 80.1775 224.587 81.0768 224.587 82.2189C224.587 83.5706 224.145 84.6107 223.26 85.339C222.375 86.0673 221.109 86.4314 219.463 86.4314C218.033 86.4314 216.879 86.2135 216 85.7776V83.5679C216.463 83.7996 217.002 83.99 217.617 84.1389C218.232 84.2824 218.815 84.3541 219.366 84.3541C221.024 84.3541 221.854 83.7141 221.854 82.4341C221.854 81.2147 220.995 80.6051 219.278 80.6051C218.968 80.6051 218.625 80.6354 218.25 80.6961C217.875 80.7513 217.57 80.812 217.336 80.8782L216.255 80.332L216.738 74.1663H223.708V76.3346H219.12L218.883 78.7099L219.19 78.6519C219.548 78.5747 219.99 78.5361 220.518 78.5361Z" fill="white"/>
</svg>
