<svg width="870" height="801" viewBox="0 0 870 801" fill="none" xmlns="http://www.w3.org/2000/svg">
<path d="M14.748 551.099C31.994 353.937 485.128 -13.4544 682.396 3.80092C879.665 21.0562 870.641 508.139 853.396 705.301C836.15 902.462 709.165 695.556 511.896 678.3C367.348 665.657 178.396 653.5 71.3962 653.5C20.8962 653.5 10.139 603.79 14.748 551.099Z" fill="white" fill-opacity="0.35"/>
<path d="M553.289 662.034H529.34V662.346H553.289V662.034Z" fill="#EBEBEB"/>
<path d="M172.787 664.131H164.887V664.443H172.787V664.131Z" fill="#EBEBEB"/>
<path d="M363.656 519.044C393.639 514.177 413.999 485.926 409.133 455.943C404.266 425.96 376.014 405.6 346.031 410.466C316.049 415.333 295.688 443.585 300.555 473.568C305.422 503.55 333.673 523.911 363.656 519.044Z" fill="#F1E069"/>
<path d="M368.86 497.036C379.256 488.712 410.044 488.3 424.596 500.78C439.147 513.26 459.128 533.64 466.204 536.136C473.28 538.632 496.842 529.484 515.849 527.4C534.856 525.316 542.332 544.872 549.396 555.692C556.459 566.512 563.96 566.924 567.292 581.064C570.624 595.204 576.852 605.612 586.424 617.256C595.996 628.9 623.864 644.712 626.772 653.535H319.764L316.444 533.228C324.706 524.904 358.402 505.36 368.86 497.036Z" fill="#F6F6F6"/>
<path d="M123.341 544.872C129.793 538.357 150.647 534.064 162.591 508.268C174.534 482.472 213.759 428.808 228.735 421.382C243.711 413.957 260.271 381.446 266.262 376.816C272.252 372.186 279.99 384.716 282.062 392.204C287.453 411.248 313.262 465.424 328.612 475.82C343.962 486.216 345.036 508.68 349.316 521.584C353.597 534.488 379.842 541.964 385.808 558.6C391.773 575.236 458.192 653.535 458.192 653.535H71.396C91.1394 639.196 98.4933 569.969 123.341 544.872Z" fill="#F6F6F6"/>
<path d="M266.886 394.7C266.886 401.103 264.952 430.755 258.287 437.968C251.623 445.182 257.501 429.095 246.244 437.968C234.987 446.842 230.02 465.137 211.138 471.527C192.256 477.917 193.953 461.818 203.101 452.657C212.249 443.497 223.069 427.423 231.68 422.705C240.291 417.988 266.886 375.007 266.886 394.7Z" fill="#FAFAFA"/>
<path d="M220.348 527.263C229.321 514.858 189.011 529.21 176.805 524.767C164.6 520.324 174.035 514.234 156.276 529.759C138.517 545.284 107.753 560.272 124.389 565.539C141.025 570.805 203.65 550.288 220.348 527.263Z" fill="#F0F0F0"/>
<path d="M450.13 533.44C443.241 525.203 435.366 509.728 425.17 507.02C414.974 504.312 408.122 502.652 410.194 508.892C412.265 515.132 460.863 546.245 450.13 533.44Z" fill="#FAFAFA"/>
<path d="M561.763 577.744C559.991 571.966 554.55 572.128 549.77 562.968C544.99 553.808 537.914 538.22 526.258 537.596C514.601 536.972 496.156 541.552 511.706 553.196C527.256 564.84 567.929 597.912 561.763 577.744Z" fill="#FAFAFA"/>
<path d="M539.212 312.894H302.092C272.14 312.894 356.168 306.654 402.344 296.258C448.52 285.862 452.264 282.53 467.652 293.762C483.039 304.994 528.804 280.034 550.856 295.01C572.908 309.986 578.724 312.894 539.212 312.894Z" fill="#FAFAFA"/>
<path d="M210.551 353.03C240.129 353.03 296.576 350.621 273.937 340.649C251.298 330.678 234.538 350.633 224.654 342.16C214.769 333.686 198.77 332.5 185.491 340.649C172.213 348.799 176.156 336.119 160.144 340.649C137.68 347.002 65.7457 353.03 126.973 353.03H210.551Z" fill="#FAFAFA"/>
<path d="M460.251 460.358C482.84 460.358 525.933 458.51 508.648 450.91C491.364 443.31 478.572 458.51 471.034 452.058C463.496 445.606 451.265 444.683 441.082 450.91C430.898 457.138 433.956 447.453 421.725 450.91C404.615 455.752 349.666 460.358 396.403 460.358H460.251Z" fill="#FAFAFA"/>
<path d="M328.999 693.097C344.636 693.097 357.316 667.987 357.316 637.012C357.316 606.037 344.636 580.927 328.999 580.927H292.732V693.097H328.999Z" fill="#263238"/>
<path d="M292.545 693.097C308.184 693.097 320.862 667.987 320.862 637.012C320.862 606.037 308.184 580.927 292.545 580.927C276.906 580.927 264.228 606.037 264.228 637.012C264.228 667.987 276.906 693.097 292.545 693.097Z" fill="#263238"/>
<path d="M536.629 693.097C552.266 693.097 564.933 667.987 564.933 637.012C564.933 606.037 552.316 580.927 536.629 580.927H500.299V693.097H536.629Z" fill="#263238"/>
<path d="M500.162 693.097C515.801 693.097 528.479 667.987 528.479 637.012C528.479 606.037 515.801 580.927 500.162 580.927C484.523 580.927 471.845 606.037 471.845 637.012C471.845 667.987 484.523 693.097 500.162 693.097Z" fill="#263238"/>
<path d="M143.396 664.855L124.002 660.075C120.721 659.272 117.655 657.759 115.02 655.644C112.385 653.529 110.246 650.863 108.752 647.832C107.429 645.158 105.603 642.764 103.373 640.781L98.6055 636.538C95.8829 634.114 93.7702 631.082 92.4388 627.688C91.1074 624.295 90.5949 620.635 90.9428 617.007L93.5636 589.551C94.0029 584.947 95.8085 580.581 98.7484 577.011C101.688 573.442 105.628 570.833 110.062 569.52L123.927 565.427L173.947 561.857L143.396 664.855Z" fill="#9C2D17"/>
<path d="M185.691 693.097C201.328 693.097 214.008 667.987 214.008 637.012C214.008 606.037 201.328 580.927 185.691 580.927H149.374V693.097H185.691Z" fill="#263238"/>
<path d="M149.237 693.097C164.876 693.097 177.554 667.987 177.554 637.012C177.554 606.037 164.876 580.927 149.237 580.927C133.598 580.927 120.92 606.037 120.92 637.012C120.92 667.987 133.598 693.097 149.237 693.097Z" fill="#263238"/>
<path d="M149.237 681.341C160.21 681.341 169.105 661.494 169.105 637.012C169.105 612.53 160.21 592.683 149.237 592.683C138.264 592.683 129.369 612.53 129.369 637.012C129.369 661.494 138.264 681.341 149.237 681.341Z" fill="white"/>
<path d="M436.564 664.855L485.461 555.58C485.461 555.58 412.303 501.117 319.477 501.117C169.03 501.117 174.197 521.397 123.853 565.427L145.83 580.927C184.93 580.927 188.187 642.903 194.439 660.337C194.907 661.658 195.772 662.802 196.916 663.611C198.061 664.421 199.428 664.855 200.829 664.855H436.564Z" fill="#9C2D17"/>
<path d="M393.32 693.097C408.958 693.097 421.625 667.987 421.625 637.012C421.625 606.037 408.958 580.927 393.32 580.927H356.991V693.097H393.32Z" fill="#263238"/>
<path d="M356.854 693.097C372.493 693.097 385.171 667.987 385.171 637.012C385.171 606.037 372.493 580.927 356.854 580.927C341.215 580.927 328.537 606.037 328.537 637.012C328.537 667.987 341.215 693.097 356.854 693.097Z" fill="#263238"/>
<path d="M356.854 681.341C367.827 681.341 376.722 661.494 376.722 637.012C376.722 612.53 367.827 592.683 356.854 592.683C345.881 592.683 336.986 612.53 336.986 637.012C336.986 661.494 345.881 681.341 356.854 681.341Z" fill="white"/>
<path d="M407.386 655.832C402.88 635.365 381.34 580.952 355.519 580.952L327.539 555.542H485.46C496.393 555.542 544.953 562.257 572.471 580.889C594.698 595.94 597.431 618.791 600.626 652.175C601.287 658.989 595.322 664.842 587.784 664.855C524.51 664.855 447.933 665.092 420.053 665.179C413.9 665.242 408.596 661.31 407.386 655.832Z" fill="#9C2D17"/>
<path opacity="0.8" d="M474.041 555.58H371.094C368.713 555.59 366.365 555.016 364.257 553.908C362.149 552.801 360.344 551.194 359.001 549.228C347.544 532.255 327.264 515.058 312.4 506.908C416.484 506.908 474.041 555.58 474.041 555.58Z" fill="white"/>
<path opacity="0.8" d="M309.854 512.012C322.334 521.048 336.536 535.05 344.511 548.966C344.897 549.629 345.103 550.383 345.107 551.15C345.111 551.918 344.914 552.674 344.535 553.342C344.157 554.01 343.609 554.567 342.948 554.957C342.287 555.348 341.535 555.558 340.767 555.567H172.05C154.154 555.567 160.094 510.989 253.582 507.644C262.393 506.883 282.935 506.858 294.292 506.908C299.886 506.938 305.329 508.724 309.854 512.012Z" fill="white"/>
<path d="M425.232 640.556L479.308 644.637C480.151 644.7 480.939 645.08 481.513 645.701C482.087 646.321 482.405 647.136 482.403 647.982V651.726C482.403 652.613 482.051 653.463 481.423 654.091C480.796 654.718 479.945 655.07 479.058 655.07H425.02C424.132 655.07 423.28 654.718 422.651 654.091C422.021 653.465 421.666 652.614 421.663 651.726V643.951C421.657 643.488 421.746 643.029 421.926 642.603C422.105 642.177 422.371 641.793 422.706 641.474C423.041 641.155 423.439 640.909 423.873 640.751C424.308 640.593 424.771 640.527 425.232 640.556Z" fill="#263238"/>
<path d="M597.119 641.305L582.268 644.3C581.508 644.45 580.824 644.86 580.332 645.458C579.841 646.057 579.572 646.808 579.572 647.582V651.638C579.572 652.079 579.659 652.515 579.828 652.921C579.997 653.328 580.244 653.697 580.556 654.008C580.868 654.319 581.238 654.565 581.646 654.732C582.053 654.899 582.489 654.985 582.929 654.983H598.654C599.128 654.985 599.597 654.886 600.03 654.692C600.462 654.499 600.849 654.216 601.164 653.862C601.479 653.508 601.715 653.091 601.857 652.639C601.999 652.187 602.043 651.71 601.986 651.239L601.15 644.2C601.096 643.736 600.946 643.289 600.709 642.886C600.472 642.484 600.154 642.135 599.774 641.862C599.395 641.59 598.963 641.4 598.505 641.304C598.048 641.208 597.576 641.208 597.119 641.305Z" fill="#263238"/>
<path opacity="0.8" d="M469.736 577.632L394.232 573.963C394.232 573.963 393.458 587.341 421.438 590.187C438.508 591.751 455.589 587.311 469.736 577.632Z" fill="white"/>
<path opacity="0.3" d="M93.5512 589.538C93.7622 587.344 94.2876 585.192 95.1112 583.148L100.228 582.999C100.228 582.999 100.465 602.63 93.052 601.394C92.8442 601.362 92.6396 601.312 92.4404 601.244L93.5512 589.538Z" fill="#131313"/>
<path opacity="0.8" d="M565.033 576.434C567.582 577.802 570.06 579.297 572.458 580.914C576.106 583.357 579.439 586.241 582.38 589.501C581.325 589.801 580.254 590.042 579.173 590.225C562.412 593.107 550.231 577.632 550.231 577.632L565.033 576.434Z" fill="white"/>
<path d="M493.123 598.723H546.55C548.423 598.734 550.248 599.317 551.779 600.396L561.114 606.948C562.174 607.682 563.07 608.628 563.747 609.725C564.423 610.823 564.865 612.048 565.045 613.325L567.429 631.009C567.607 632.153 567.533 633.323 567.213 634.436C566.892 635.549 566.333 636.578 565.574 637.453C564.815 638.327 563.874 639.026 562.817 639.499C561.76 639.973 560.612 640.21 559.454 640.194H502.321C500.613 640.171 498.943 639.682 497.492 638.78C496.04 637.879 494.862 636.599 494.084 635.077L483.414 614.273C482.644 612.856 482.299 611.246 482.418 609.638C482.538 608.029 483.117 606.489 484.088 605.2L486.758 601.768C487.515 600.807 488.482 600.032 489.586 599.504C490.689 598.976 491.9 598.709 493.123 598.723Z" fill="#263238"/>
<path opacity="0.1" d="M211.487 641.866H315.97C316.316 641.865 316.659 641.936 316.977 642.074C317.294 642.213 317.579 642.416 317.814 642.671C318.049 642.925 318.228 643.226 318.34 643.554C318.453 643.882 318.495 644.229 318.466 644.575L317.929 650.652C317.873 651.275 317.585 651.853 317.123 652.274C316.661 652.694 316.058 652.926 315.433 652.924H210.938C210.592 652.925 210.249 652.854 209.931 652.716C209.614 652.577 209.329 652.374 209.094 652.119C208.859 651.864 208.68 651.564 208.568 651.236C208.455 650.908 208.413 650.561 208.442 650.215L208.979 644.125C209.038 643.503 209.329 642.926 209.793 642.507C210.258 642.089 210.862 641.86 211.487 641.866Z" fill="#131313"/>
<path d="M244.796 506.908L251.049 505.697L238.257 561.857H232.266L244.796 506.908Z" fill="#9C2D17"/>
<path d="M267.622 568.172H246.219L245.67 570.419C245.502 570.912 245.458 571.439 245.541 571.953C245.623 572.468 245.831 572.954 246.144 573.37C246.458 573.786 246.869 574.119 247.341 574.34C247.813 574.561 248.332 574.663 248.852 574.637H261.794C263.005 574.58 264.166 574.141 265.112 573.383C266.058 572.626 266.74 571.588 267.06 570.419L267.622 568.172Z" fill="#263238"/>
<path d="M194.003 568.172H172.612L172.063 570.419C171.895 570.912 171.851 571.439 171.934 571.953C172.016 572.468 172.224 572.954 172.537 573.37C172.851 573.786 173.262 574.119 173.734 574.34C174.206 574.561 174.725 574.663 175.245 574.637H188.187C189.398 574.58 190.559 574.141 191.505 573.383C192.451 572.626 193.133 571.588 193.453 570.419L194.003 568.172Z" fill="#263238"/>
<path opacity="0.1" d="M235.898 634.603C235.712 634.603 235.532 634.53 235.399 634.399C235.266 634.268 235.19 634.091 235.187 633.904L233.614 560.372C233.614 560.183 233.686 560.001 233.817 559.864C233.947 559.727 234.124 559.645 234.313 559.636C234.5 559.636 234.679 559.709 234.812 559.84C234.945 559.97 235.021 560.148 235.024 560.335L236.572 633.879C236.572 634.067 236.499 634.247 236.369 634.382C236.239 634.518 236.061 634.597 235.873 634.603H235.898Z" fill="#131313"/>
<path d="M278.255 688.205L270.879 688.093L268.758 670.995L276.133 671.107L278.255 688.205Z" fill="#FF8B7B"/>
<path d="M233.365 688.03L226.625 684.274L231.655 668.412L238.394 672.168L233.365 688.03Z" fill="#FF8B7B"/>
<path d="M225.989 683.388L233.801 687.83C233.929 687.899 234.029 688.01 234.084 688.145C234.138 688.279 234.144 688.428 234.101 688.567L232.129 694.994C232.081 695.15 231.998 695.293 231.886 695.412C231.774 695.531 231.636 695.623 231.483 695.681C231.33 695.739 231.166 695.761 231.003 695.746C230.841 695.73 230.684 695.678 230.544 695.593C228.048 694.133 226.301 692.935 223.131 691.138C221.184 690.039 215.194 686.907 212.51 685.384C209.827 683.862 210.975 680.991 212.211 681.378C217.765 683.101 222.332 683.725 224.691 683.2C225.132 683.098 225.595 683.165 225.989 683.388Z" fill="#263238"/>
<path d="M270.73 687.244L278.779 687.369C278.926 687.369 279.069 687.42 279.183 687.513C279.296 687.607 279.374 687.736 279.403 687.881L280.751 694.458C280.779 694.613 280.772 694.772 280.73 694.924C280.689 695.077 280.614 695.217 280.511 695.337C280.408 695.457 280.28 695.552 280.136 695.615C279.992 695.679 279.835 695.71 279.678 695.706C276.77 695.618 272.577 695.381 268.932 695.319C264.664 695.256 260.97 695.431 255.966 695.319C252.946 695.319 252.222 692.199 253.47 691.937C259.26 690.764 263.965 690.689 268.995 687.706C269.521 687.399 270.12 687.24 270.73 687.244Z" fill="#263238"/>
<path d="M267.248 471.989C263.021 475.448 258.613 478.681 254.044 481.674C251.748 483.159 249.414 484.631 246.931 485.979C244.334 487.45 241.606 488.674 238.781 489.636C237.938 489.905 237.08 490.122 236.21 490.285C235.736 490.372 235.187 490.435 234.663 490.485C234.069 490.534 233.472 490.534 232.878 490.485C231.57 490.378 230.296 490.009 229.134 489.399C228.022 488.806 227.032 488.01 226.214 487.053C224.952 485.537 224.025 483.772 223.493 481.873C223.062 480.339 222.774 478.768 222.632 477.181C222.255 471.502 222.799 465.8 224.242 460.295L229.721 461.057C229.695 466.015 230.181 470.962 231.168 475.821C231.403 476.848 231.733 477.85 232.154 478.816C232.4 479.464 232.788 480.048 233.29 480.526C233.44 480.625 233.502 480.613 233.515 480.526C233.527 480.438 233.515 480.463 233.515 480.438C234.147 480.299 234.765 480.103 235.362 479.852C237.489 478.933 239.538 477.844 241.489 476.594C243.586 475.346 245.695 473.886 247.729 472.414C251.898 469.493 256.103 466.348 260.109 463.253L267.248 471.989Z" fill="#FF8B7B"/>
<path d="M269.494 468.594C266.137 476.17 253.195 484.007 246.019 487.314C243.898 488.288 244.172 491.133 242.912 489.898C242.912 489.898 237.383 479.752 237.383 477.68C237.383 475.608 239.218 476.844 240.715 475.446C246.107 470.454 257.389 459.484 264.427 458.274C273.638 456.651 272.639 461.531 269.494 468.594Z" fill="#009966"/>
<path d="M238.157 476.332C237.445 475.284 234.5 478.03 233.564 479.178C232.628 480.326 235.199 484.494 235.973 486.666C236.747 488.837 235.224 491.146 237.595 491.483C238.843 491.658 242.4 491.196 243.086 490.235C244.696 488.176 239.867 478.853 238.157 476.332Z" fill="#263238"/>
<path opacity="0.2" d="M255.092 482.323C261.133 478.516 267.323 473.499 269.507 468.595C269.644 468.258 269.806 467.946 269.931 467.621L270.056 466.373C261.856 467.771 256.29 476.058 255.092 482.323Z" fill="#131313"/>
<path d="M228.659 463.34L233.414 456.289L225.652 453.119C225.652 453.119 221.259 458.111 224.404 462.467L228.659 463.34Z" fill="#FF8B7B"/>
<path d="M235.411 448.626L228.273 448.389L225.652 453.057L233.414 456.227L235.411 448.626Z" fill="#FF8B7B"/>
<path opacity="0.2" d="M268.758 670.995L269.856 679.806L277.232 679.931L276.134 671.12L268.758 670.995Z" fill="#131313"/>
<path opacity="0.2" d="M238.394 672.168L231.655 668.412L229.071 676.598L235.798 680.355L238.394 672.168Z" fill="#131313"/>
<path d="M305.624 460.944C297.674 488.949 299.284 518.664 298.56 524.68C292.794 524.268 271.104 522.645 259.248 521.759C255.504 479.639 264.415 458.249 264.415 458.249C264.415 458.249 266.911 457.762 270.38 457.412C271.454 457.3 272.614 457.2 273.825 457.138C274.499 457.138 275.173 457.075 275.859 457.063C281.453 457.158 287.036 457.574 292.582 458.311C293.631 458.436 294.691 458.598 295.727 458.76C296.763 458.923 297.624 459.097 298.51 459.272C302.516 460.071 305.624 460.944 305.624 460.944Z" fill="#009966"/>
<path d="M275.859 457.1C272.552 458.872 271.591 465.362 277.993 465.611C284.395 465.861 290.748 461.356 292.582 458.336L275.859 457.1Z" fill="#263238"/>
<path opacity="0.2" d="M297.225 472.962C296.526 475.671 297.324 488.026 300.157 491.083C300.544 487.127 301.056 482.984 301.742 478.766L297.225 472.962Z" fill="#131313"/>
<path d="M292.32 439.366C290.872 444.658 289.088 454.43 292.582 458.298C289.437 460.994 285.83 462.879 279.428 462.629C273.026 462.379 274.012 459.259 275.859 457.063C281.974 456.077 282.099 451.609 281.412 447.353L292.32 439.366Z" fill="#FF8B7B"/>
<path opacity="0.2" d="M287.877 442.624L281.413 447.353C281.598 448.346 281.698 449.352 281.712 450.361C284.021 450.199 287.366 447.865 287.777 445.531C287.985 444.576 288.019 443.591 287.877 442.624Z" fill="#131313"/>
<path d="M275.672 437.332C275.672 437.332 271.154 430.98 272.477 426.013C274.174 419.66 284.408 427.448 275.672 437.332Z" fill="#263238"/>
<path d="M293.568 431.317C292.57 438.568 292.32 442.861 288.414 446.293C282.461 451.509 273.725 447.541 272.527 440.053C271.441 433.401 273.238 422.655 280.589 420.297C282.212 419.764 283.945 419.657 285.621 419.985C287.298 420.313 288.862 421.066 290.164 422.172C291.467 423.278 292.463 424.699 293.059 426.3C293.655 427.901 293.83 429.629 293.568 431.317Z" fill="#FF8B7B"/>
<path d="M276.408 438.979C276.408 440.09 275.385 440.352 274.561 440.851C273.989 441.249 273.508 441.763 273.151 442.361C273.151 442.361 272.09 442.012 272.527 440.128C272.964 438.243 276.408 437.944 276.408 438.979Z" fill="#263238"/>
<path d="M276.92 439.017C276.92 440.926 279.029 440.664 280.664 441.189C281.99 441.602 283.157 442.412 284.009 443.51C284.221 443.03 284.291 442.5 284.209 441.981C284.127 441.463 283.897 440.98 283.547 440.59C281.5 437.906 276.92 437.981 276.92 439.017Z" fill="#263238"/>
<path d="M287.965 424.765C283.422 426.112 270.68 427.523 272.24 421.021C274.411 411.923 280.152 416.665 280.976 417.963C284.633 415.317 300.769 417.626 297.549 422.855C301.056 423.392 303.09 427.211 300.57 429.095C298.049 430.98 294.991 438.667 293.306 438.443C291.268 438.161 289.278 437.603 287.391 436.783L290.86 432.14C290.86 432.14 286.654 428.147 287.965 424.765Z" fill="#263238"/>
<path d="M295.915 423.654C298.411 423.042 300.744 422.768 302.766 424.64C302.616 421.495 298.311 421.058 295.915 423.654Z" fill="#263238"/>
<path d="M296.251 439.628C295.712 440.361 295.032 440.979 294.253 441.448C293.473 441.917 292.608 442.228 291.709 442.361C289.287 442.711 288.401 440.477 289.337 438.368C290.173 436.458 292.445 433.987 294.741 434.624C295.237 434.772 295.689 435.041 296.056 435.407C296.422 435.773 296.693 436.224 296.842 436.72C296.992 437.216 297.016 437.741 296.913 438.248C296.81 438.756 296.583 439.23 296.251 439.628Z" fill="#FF8B7B"/>
<path d="M267.111 678.071L279.591 678.259C279.591 678.259 272.39 628.95 273.513 606.012C273.85 599.036 272.727 589.276 274.574 578.818C276.907 565.627 278.031 560.373 281.038 543.712C283.185 531.831 285.094 523.744 285.094 523.744L259.248 521.822C259.248 521.822 250.799 581.239 251.049 603.741C251.311 627.066 267.111 678.071 267.111 678.071Z" fill="#009966"/>
<path opacity="0.6" d="M267.111 678.071L279.591 678.259C279.591 678.259 272.39 628.95 273.513 606.012C273.85 599.036 272.727 589.276 274.574 578.818C276.907 565.627 278.031 560.373 281.038 543.712C283.185 531.831 285.094 523.744 285.094 523.744L259.248 521.822C259.248 521.822 250.799 581.239 251.049 603.741C251.311 627.066 267.111 678.071 267.111 678.071Z" fill="#131313"/>
<path opacity="0.2" d="M274.573 578.818C273.697 584.288 273.333 589.828 273.488 595.366C271.341 601.432 269.469 607.185 268.159 612.302C265.875 621.25 262.256 634.828 258.736 647.87C254.905 632.594 251.173 614.935 251.061 603.678L274.573 578.818Z" fill="#131313"/>
<path d="M273.188 522.795C273.188 522.795 254.618 569.72 247.58 590.187C239.867 612.551 227.424 672.917 227.424 672.917L239.168 679.569C239.168 679.569 257.464 629.811 265.039 608.033C273.675 583.223 297.487 544.023 298.56 524.742L273.188 522.795Z" fill="#009966"/>
<path opacity="0.6" d="M273.188 522.795C273.188 522.795 254.618 569.72 247.58 590.187C239.867 612.551 227.424 672.917 227.424 672.917L239.168 679.569C239.168 679.569 257.464 629.811 265.039 608.033C273.675 583.223 297.487 544.023 298.56 524.742L273.188 522.795Z" fill="#131313"/>
<path d="M225.876 672.318L239.704 680.168L242.051 676.037L226.738 667.001L225.876 672.318Z" fill="#009966"/>
<path d="M265.538 678.334L280.414 678.571L280.489 673.766L263.866 673.242L265.538 678.334Z" fill="#009966"/>
<path d="M283.859 432.527C283.859 433.126 283.459 433.575 283.072 433.55C282.686 433.525 282.411 433.014 282.461 432.427C282.511 431.841 282.848 431.379 283.235 431.404C283.622 431.429 283.909 431.94 283.859 432.527Z" fill="#263238"/>
<path d="M275.971 432.028C275.971 432.627 275.584 433.076 275.198 433.051C274.811 433.026 274.524 432.515 274.574 431.928C274.623 431.342 274.96 430.88 275.347 430.905C275.734 430.93 276.021 431.441 275.971 432.028Z" fill="#263238"/>
<path d="M277.756 432.49C276.911 434.248 275.828 435.882 274.536 437.344C274.919 437.665 275.368 437.899 275.851 438.028C276.334 438.157 276.839 438.18 277.332 438.093L277.756 432.49Z" fill="#FF5652"/>
<path d="M277.107 441.912C277.775 441.885 278.43 441.72 279.031 441.428C279.633 441.136 280.167 440.723 280.601 440.215C280.618 440.199 280.631 440.179 280.64 440.158C280.649 440.136 280.654 440.113 280.654 440.09C280.654 440.067 280.649 440.044 280.64 440.022C280.631 440.001 280.618 439.982 280.601 439.965C280.569 439.936 280.527 439.919 280.483 439.919C280.439 439.919 280.397 439.936 280.364 439.965C279.871 440.516 279.254 440.944 278.565 441.213C277.875 441.481 277.132 441.584 276.396 441.513C276.35 441.512 276.306 441.529 276.271 441.559C276.237 441.588 276.215 441.63 276.208 441.675C276.205 441.698 276.206 441.722 276.213 441.745C276.219 441.768 276.231 441.789 276.246 441.806C276.262 441.824 276.281 441.838 276.302 441.848C276.324 441.858 276.347 441.863 276.371 441.862C276.615 441.896 276.861 441.912 277.107 441.912Z" fill="#263238"/>
<path d="M285.107 430.518C285.16 430.529 285.215 430.529 285.269 430.518C285.308 430.493 285.341 430.46 285.367 430.422C285.393 430.384 285.411 430.341 285.42 430.296C285.43 430.25 285.43 430.204 285.421 430.158C285.412 430.113 285.394 430.07 285.369 430.031C285.08 429.559 284.682 429.163 284.209 428.876C283.736 428.59 283.2 428.421 282.648 428.384C282.602 428.382 282.555 428.39 282.512 428.407C282.469 428.424 282.43 428.45 282.397 428.482C282.364 428.515 282.339 428.555 282.322 428.598C282.305 428.641 282.297 428.687 282.299 428.733C282.299 428.826 282.335 428.915 282.401 428.981C282.466 429.046 282.555 429.083 282.648 429.083C283.083 429.12 283.503 429.259 283.874 429.489C284.244 429.719 284.556 430.033 284.782 430.406C284.822 430.451 284.873 430.485 284.93 430.505C284.986 430.524 285.047 430.529 285.107 430.518Z" fill="#263238"/>
<path d="M273.051 429.395C273.109 429.4 273.168 429.391 273.222 429.369C273.276 429.348 273.324 429.314 273.363 429.27C273.64 428.93 273.994 428.661 274.395 428.485C274.797 428.31 275.234 428.232 275.672 428.259C275.763 428.27 275.854 428.244 275.926 428.188C275.999 428.132 276.046 428.05 276.059 427.959C276.066 427.914 276.063 427.867 276.052 427.822C276.041 427.776 276.021 427.734 275.993 427.697C275.965 427.66 275.93 427.628 275.89 427.605C275.85 427.581 275.805 427.566 275.759 427.56C275.208 427.521 274.656 427.613 274.148 427.83C273.64 428.047 273.191 428.383 272.839 428.808C272.806 428.841 272.779 428.879 272.761 428.922C272.743 428.965 272.734 429.011 272.734 429.058C272.734 429.104 272.743 429.15 272.761 429.193C272.779 429.236 272.806 429.275 272.839 429.307C272.9 429.355 272.974 429.386 273.051 429.395Z" fill="#263238"/>
<path d="M223.231 683.313C223.803 683.623 224.411 683.862 225.041 684.024C225.066 684.043 225.097 684.052 225.128 684.052C225.159 684.052 225.19 684.043 225.215 684.024C225.233 683.994 225.242 683.959 225.242 683.924C225.242 683.889 225.233 683.855 225.215 683.825C225.066 683.55 223.718 681.104 222.794 681.066C222.693 681.065 222.593 681.091 222.505 681.141C222.417 681.192 222.345 681.265 222.295 681.354C222.192 681.491 222.126 681.653 222.102 681.823C222.078 681.993 222.097 682.166 222.158 682.327C222.397 682.765 222.775 683.111 223.231 683.313ZM224.716 683.562C223.468 683.163 222.694 682.651 222.507 682.165C222.466 682.053 222.454 681.933 222.471 681.815C222.489 681.697 222.535 681.586 222.607 681.491C222.625 681.454 222.654 681.422 222.689 681.4C222.724 681.378 222.765 681.366 222.807 681.366C223.281 681.391 224.155 682.602 224.716 683.562Z" fill="#009966"/>
<path d="M225.003 684.012H225.09C225.122 684.012 225.154 684.002 225.18 683.984C225.207 683.966 225.228 683.941 225.24 683.912C225.24 683.824 226.176 681.89 225.777 680.867C225.732 680.739 225.661 680.622 225.569 680.523C225.477 680.424 225.365 680.346 225.24 680.292C225.124 680.233 224.992 680.213 224.864 680.236C224.735 680.258 224.618 680.322 224.529 680.417C223.992 681.066 224.529 683.188 224.941 683.924C224.95 683.96 224.972 683.991 225.003 684.012ZM225.178 680.679C225.307 680.755 225.404 680.875 225.452 681.016C225.569 681.848 225.434 682.696 225.065 683.45C224.691 682.576 224.479 681.054 224.803 680.679C224.803 680.679 224.891 680.555 225.103 680.679H225.178Z" fill="#009966"/>
<path d="M269.993 688.242C270.024 688.234 270.052 688.217 270.072 688.192C270.092 688.167 270.104 688.137 270.106 688.105C270.114 688.07 270.11 688.033 270.094 688.001C270.078 687.969 270.051 687.944 270.018 687.93C269.694 687.743 266.748 686.195 265.85 686.682C265.765 686.728 265.694 686.794 265.641 686.875C265.589 686.955 265.558 687.048 265.55 687.144C265.532 687.302 265.551 687.462 265.605 687.611C265.659 687.761 265.747 687.896 265.862 688.005C266.661 688.729 268.783 688.467 269.968 688.255L269.993 688.242ZM266.075 686.994C267.248 687.059 268.388 687.41 269.394 688.018C268.302 688.337 267.131 688.248 266.1 687.768C266.024 687.697 265.966 687.609 265.931 687.511C265.897 687.414 265.886 687.309 265.9 687.206C265.898 687.168 265.908 687.129 265.928 687.096C265.948 687.063 265.977 687.036 266.012 687.019L266.075 686.994Z" fill="#009966"/>
<path d="M269.993 688.243C270.017 688.223 270.037 688.198 270.05 688.17C270.063 688.142 270.069 688.111 270.068 688.08C270.007 687.035 269.618 686.035 268.957 685.222C268.828 685.106 268.675 685.019 268.51 684.965C268.344 684.911 268.17 684.893 267.996 684.91C267.522 684.91 267.372 685.185 267.347 685.385C267.198 686.221 268.932 687.881 269.843 688.255C269.893 688.269 269.947 688.265 269.993 688.243ZM267.897 685.272H268.084C268.209 685.259 268.337 685.272 268.457 685.311C268.577 685.35 268.688 685.413 268.783 685.497C269.328 686.145 269.656 686.949 269.719 687.793C268.82 687.232 267.647 685.959 267.734 685.46C267.738 685.415 267.756 685.373 267.785 685.34C267.814 685.306 267.853 685.283 267.897 685.272Z" fill="#009966"/>
<path d="M307.446 465.399C309.068 468.42 310.466 471.402 311.914 474.435C313.361 477.468 314.622 480.563 315.895 483.683C317.168 486.803 318.316 489.923 319.377 493.267L320.138 495.763L320.812 498.259C321.037 499.108 321.211 500.006 321.411 500.868L321.561 501.542L321.698 502.44C321.78 502.986 321.834 503.536 321.86 504.087C321.937 505.975 321.858 507.866 321.623 509.741C321.423 511.513 321.174 513.223 320.874 514.908C320.263 518.277 319.514 521.559 318.678 524.804C317.013 531.267 315.018 537.64 312.7 543.899L307.371 542.426C308.482 536.036 309.555 529.559 310.503 523.182C310.965 519.999 311.39 516.817 311.677 513.672C311.826 512.112 311.939 510.565 311.989 509.054C312.055 507.66 312.018 506.263 311.876 504.874C311.876 504.612 311.814 504.262 311.751 504.087L311.677 503.763L311.527 503.239C311.302 502.527 311.127 501.816 310.878 501.092L310.142 498.921L309.33 496.737C308.22 493.804 306.972 490.884 305.711 488.001C304.451 485.118 303.053 482.16 301.668 479.265C300.282 476.369 298.86 473.424 297.487 470.604L307.446 465.399Z" fill="#FF8B7B"/>
<path d="M305.611 460.957C310.903 462.604 317.904 484.544 320.675 493.879C322.434 495.464 321.548 498.359 321.548 498.359L310.778 503.114C308.282 501.866 306.734 499.258 307.67 497.972C302.029 487.327 297.599 479.365 295.465 473.012C292.308 463.602 297.474 458.348 305.611 460.957Z" fill="#009966"/>
<path d="M308.145 500.506C307.059 501.155 310.391 504.574 311.464 505.573C312.538 506.571 316.12 503.963 318.353 503.314C320.587 502.665 322.784 504.337 323.258 501.991C323.52 500.743 323.258 497.174 322.397 496.425C320.363 494.703 310.766 498.958 308.145 500.506Z" fill="#263238"/>
<path d="M308.769 539.281L303.016 544.074L310.179 549.24C310.179 549.24 314.884 544.248 312.775 541.278L308.769 539.281Z" fill="#FF8B7B"/>
<path d="M299.733 550.775L306.822 554.219L310.179 549.24L303.016 544.073L299.733 550.775Z" fill="#FF8B7B"/>
</svg>
