<svg width="50" height="50" viewBox="0 0 50 50" fill="none" xmlns="http://www.w3.org/2000/svg">
<circle cx="25" cy="25" r="25" fill="#009966"/>
<path fill-rule="evenodd" clip-rule="evenodd" d="M37.4318 43.0283C36.3105 37.1049 31.1386 32.7575 24.9996 32.7575C18.8225 32.7575 13.6241 37.1594 12.5467 43.1396L10.0352 41.0466C10.8359 38.2991 12.3865 35.8075 14.5446 33.8542C15.8912 32.6354 17.4243 31.6741 19.0719 30.9963C16.0938 29.0534 14.1208 25.6923 14.1208 21.8788C14.1208 15.8801 19.0009 11 24.9996 11C30.9982 11 35.8787 15.8801 35.8787 21.8788C35.8787 25.6923 33.9057 29.0534 30.9272 30.9963C32.5752 31.6741 34.1079 32.6358 35.4545 33.8546C37.5672 35.7664 39.0971 38.1939 39.9119 40.8723L37.4993 43.0167L37.4318 43.0283ZM24.9996 13.9297C20.6165 13.9297 17.0505 17.4953 17.0505 21.8788C17.0505 26.2618 20.6165 29.8278 24.9996 29.8278C29.3826 29.8278 32.9486 26.2618 32.9486 21.8788C32.9486 17.4957 29.3826 13.9297 24.9996 13.9297Z" fill="white"/>
</svg>
