<svg width="649" height="425" viewBox="0 0 649 425" fill="none" xmlns="http://www.w3.org/2000/svg">
<path d="M649 369.22H0V369.526H649V369.22Z" fill="#EBEBEB"/>
<path d="M144.935 379.475H101.945V379.781H144.935V379.475Z" fill="#EBEBEB"/>
<path d="M212.223 388.287H173.062V388.593H212.223V388.287Z" fill="#EBEBEB"/>
<path d="M123.44 390.818H73.7915V391.123H123.44V390.818Z" fill="#EBEBEB"/>
<path d="M583.97 390.157H563.332V390.463H583.97V390.157Z" fill="#EBEBEB"/>
<path d="M559.165 390.157H508.128V390.463H559.165V390.157Z" fill="#EBEBEB"/>
<path d="M363.868 379.316H324.5V379.622H363.868V379.316Z" fill="#EBEBEB"/>
<path d="M463.087 379.316H369.501V379.622H463.087V379.316Z" fill="#EBEBEB"/>
<path d="M541.682 215.511H493.331V369.22H541.682V215.511Z" fill="#E6E6E6"/>
<path d="M533.647 369.22H541.681V355.385H525.197L533.647 369.22Z" fill="#F0F0F0"/>
<path d="M344.866 215.511H296.515V369.22H344.866V215.511Z" fill="#E6E6E6"/>
<path d="M541.694 215.511H337.856V363.904H541.694V215.511Z" fill="#F0F0F0"/>
<path d="M535.451 222.087H344.1V262.788H535.451V222.087Z" fill="#E6E6E6"/>
<path d="M448.81 234.737H430.728C422.94 234.737 415.373 229.714 409.96 220.853H469.552C464.165 229.714 456.662 234.737 448.81 234.737Z" fill="#F0F0F0"/>
<path d="M345.904 369.22H337.856V355.385H354.341L345.904 369.22Z" fill="#F0F0F0"/>
<path d="M535.451 269.363H344.1V310.064H535.451V269.363Z" fill="#E6E6E6"/>
<path d="M448.81 281.952H430.728C422.94 281.952 415.373 276.941 409.96 268.068H469.552C464.165 276.99 456.662 281.952 448.81 281.952Z" fill="#F0F0F0"/>
<path d="M535.451 316.64H344.1V357.34H535.451V316.64Z" fill="#E6E6E6"/>
<path d="M448.81 329.278H430.728C422.94 329.278 415.373 324.254 409.96 315.393H469.552C464.165 324.254 456.662 329.278 448.81 329.278Z" fill="#F0F0F0"/>
<path d="M563.708 16.1758H354.912V111.608H563.708V16.1758Z" fill="#F0F0F0"/>
<path d="M571.237 16.1758H358.43V111.608H571.237V16.1758Z" fill="#F5F5F5"/>
<path d="M560.71 103.676V24.1206L368.969 24.1206V103.676L560.71 103.676Z" fill="white"/>
<path d="M500.457 181.802C504.221 145.134 506.83 85.5136 504.805 65.5911C504.766 65.2496 504.651 64.9196 504.468 64.6226C504.285 64.3257 504.037 64.0685 503.741 63.8678C503.348 63.5971 502.882 63.4358 502.397 63.4025C501.911 63.3691 501.426 63.465 500.995 63.6791C500.565 63.8932 500.207 64.217 499.963 64.6134C499.718 65.0098 499.597 65.463 499.613 65.9211C499.964 75.7968 500.379 100.474 498.146 143.044C497.03 164.226 495.434 178.734 496.537 181.802H500.457Z" fill="#F0F0F0"/>
<path d="M511.243 102.845C519.836 92.4316 537.619 84.1937 555.843 82.9347C562.995 82.4336 534.257 95.8661 522.419 109.286C513.242 119.7 502.949 136.86 499.522 146.223C501.534 126.899 502.638 113.283 511.243 102.845Z" fill="#F0F0F0"/>
<path d="M493.24 100.596C484.348 88.9358 463.814 79.9523 441.592 78.9378C432.87 78.5467 466.06 93.1892 478.443 108.198C488.061 119.846 497.913 139.158 500.638 149.754C501.3 127.779 502.144 112.268 493.24 100.596Z" fill="#F0F0F0"/>
<path d="M510.646 68.5243C517.435 59.8341 532.427 52.6962 548.288 51.2417C554.518 50.6673 530.298 62.2419 520.9 73.511C513.593 82.2134 505.831 96.4526 503.494 104.165C503.884 88.3613 503.871 77.2144 510.646 68.5243Z" fill="#F0F0F0"/>
<path d="M496.979 70.3091C489.437 60.4211 472.057 52.831 453.236 51.9754C445.85 51.6454 474.004 64.039 484.388 76.7503C492.539 86.6138 500.899 102.967 503.196 111.939C503.793 93.3116 504.507 80.1848 496.979 70.3091Z" fill="#F0F0F0"/>
<path d="M506.09 142.054C510.996 135.503 522.016 129.991 533.789 128.671C538.41 128.158 520.602 137.141 513.8 145.611C508.517 152.187 502.975 162.869 501.365 168.626C501.378 156.88 501.196 148.606 506.09 142.054Z" fill="#F0F0F0"/>
<path d="M497.134 138.363C492.877 131.861 482.337 126.373 470.59 125.053C465.969 124.54 482.999 133.474 488.983 141.871C493.616 148.398 498.069 158.982 499.107 164.703C500.379 153.067 501.443 144.865 497.134 138.363Z" fill="#F0F0F0"/>
<path d="M498.86 215.511C508.245 215.511 515.994 213.666 516.526 204.853L518.096 179.345H479.637L481.207 204.853C481.74 213.666 489.489 215.511 498.86 215.511Z" fill="#E6E6E6"/>
<path d="M479.858 185.151H517.902C518.647 185.149 519.364 184.888 519.917 184.419C520.471 183.95 520.821 183.306 520.9 182.609L521.485 177.72C521.53 177.321 521.486 176.918 521.356 176.537C521.225 176.155 521.011 175.804 520.727 175.506C520.443 175.207 520.096 174.968 519.707 174.804C519.319 174.64 518.899 174.555 518.473 174.554H479.287C478.861 174.555 478.441 174.64 478.052 174.804C477.664 174.968 477.317 175.207 477.033 175.506C476.749 175.804 476.535 176.155 476.404 176.537C476.274 176.918 476.23 177.321 476.275 177.72L476.846 182.609C476.929 183.307 477.282 183.951 477.837 184.42C478.393 184.889 479.112 185.149 479.858 185.151Z" fill="#F0F0F0"/>
<path d="M357.275 215.511H331.769L339.323 162.87H357.275V215.511Z" fill="#E6E6E6"/>
<path d="M394.709 215.511H346.371L337.363 153.898H385.714L394.709 215.511Z" fill="#F0F0F0"/>
<path d="M401.16 215.511H350.862L341.867 153.898H392.165L401.16 215.511Z" fill="#F5F5F5"/>
<path d="M355.302 210.659L347.722 158.75H387.713L395.293 210.659H355.302Z" fill="white"/>
<path d="M377.848 198.681H368.321C367.492 198.682 366.69 198.401 366.065 197.888C365.44 197.376 365.033 196.667 364.92 195.894L361.779 174.395C361.709 173.938 361.745 173.472 361.884 173.029C362.023 172.586 362.261 172.177 362.583 171.828C362.909 171.483 363.309 171.206 363.756 171.017C364.204 170.827 364.689 170.729 365.179 170.728H374.707C375.535 170.729 376.335 171.012 376.96 171.524C377.584 172.036 377.992 172.743 378.107 173.515L381.249 195.014C381.315 195.471 381.277 195.937 381.137 196.379C380.997 196.821 380.757 197.229 380.435 197.577C380.113 197.924 379.715 198.203 379.269 198.393C378.822 198.584 378.338 198.682 377.848 198.681ZM366.166 195.723C366.238 196.204 366.491 196.644 366.88 196.963C367.268 197.281 367.766 197.458 368.282 197.459H377.809C378.114 197.46 378.415 197.399 378.693 197.281C378.97 197.163 379.218 196.99 379.418 196.774C379.618 196.556 379.766 196.301 379.854 196.025C379.941 195.749 379.965 195.458 379.925 195.173L376.784 173.686C376.712 173.205 376.458 172.765 376.07 172.447C375.681 172.128 375.183 171.952 374.668 171.951H365.14C364.836 171.948 364.534 172.008 364.256 172.126C363.978 172.244 363.73 172.418 363.531 172.635C363.327 172.848 363.176 173.101 363.089 173.376C363.001 173.651 362.979 173.94 363.025 174.224L366.166 195.723Z" fill="#F5F5F5"/>
<path d="M274.527 13.3647H81.9297V204.743H274.527V13.3647Z" fill="#E6E6E6"/>
<path d="M295.178 7.16797H69.4687C69.217 7.16796 68.9678 7.21484 68.7355 7.30589C68.5031 7.39695 68.2922 7.53038 68.1148 7.69852C67.9375 7.86665 67.7972 8.06616 67.7021 8.28556C67.607 8.50496 67.5589 8.73991 67.5606 8.97688C67.5606 9.45339 67.7616 9.91038 68.1194 10.2473C68.4773 10.5843 68.9626 10.7736 69.4687 10.7736H295.178C295.684 10.7736 296.169 10.5843 296.527 10.2473C296.885 9.91038 297.086 9.45339 297.086 8.97688C297.088 8.73991 297.04 8.50496 296.944 8.28556C296.849 8.06616 296.709 7.86665 296.532 7.69852C296.354 7.53038 296.143 7.39695 295.911 7.30589C295.679 7.21484 295.43 7.16796 295.178 7.16797Z" fill="#E6E6E6"/>
<path d="M282.717 13.3647H85.7588V204.743H282.717V13.3647Z" fill="#F0F0F0"/>
<path d="M271.269 193.975V24.1448L97.1942 24.1448V193.975H271.269Z" fill="#FAFAFA"/>
<path d="M136.705 193.975L203.864 24.1328H235.561L168.415 193.975H136.705Z" fill="white"/>
<path d="M175.217 193.975L242.375 24.1328H254.732L187.574 193.975H175.217Z" fill="white"/>
<path d="M271.269 193.963V24.1328H269.815V193.963H271.269Z" fill="#E6E6E6"/>
<g opacity="0.6">
<path opacity="0.6" d="M92.4693 278.371H68.2876L72.1167 3.95361H96.3114L92.4693 278.371Z" fill="#F0F0F0"/>
<path opacity="0.6" d="M101.893 278.371H83.0459L86.888 3.95361H105.722L101.893 278.371Z" fill="#E6E6E6"/>
<path opacity="0.6" d="M116.651 278.371H92.4692L96.3113 3.95361H120.493L116.651 278.371Z" fill="#F0F0F0"/>
<path opacity="0.6" d="M126.074 278.371H107.228L111.07 3.95361H129.917L126.074 278.371Z" fill="#E6E6E6"/>
<path opacity="0.6" d="M140.833 278.371H116.651L120.493 3.95361H144.675L140.833 278.371Z" fill="#F0F0F0"/>
</g>
<g opacity="0.6">
<path opacity="0.6" d="M278.72 278.371H292.388L294.218 3.95361H280.55L278.72 278.371Z" fill="#F0F0F0"/>
<path opacity="0.6" d="M273.398 278.371H284.042L285.885 3.95361H275.228L273.398 278.371Z" fill="#E6E6E6"/>
<path opacity="0.6" d="M265.052 278.371H278.72L280.55 3.95361H266.882L265.052 278.371Z" fill="#F0F0F0"/>
<path opacity="0.6" d="M259.73 278.371H270.374L272.217 3.95361H261.56L259.73 278.371Z" fill="#E6E6E6"/>
<path opacity="0.6" d="M251.384 278.371H265.052L266.882 3.95361H253.214L251.384 278.371Z" fill="#F0F0F0"/>
</g>
<path d="M324.5 424.416C463.493 424.416 576.169 418.222 576.169 410.581C576.169 402.939 463.493 396.745 324.5 396.745C185.507 396.745 72.8306 402.939 72.8306 410.581C72.8306 418.222 185.507 424.416 324.5 424.416Z" fill="#F0F0F0"/>
<path d="M369.437 47.0253C361.649 37.1007 363.453 28.435 369.437 22.2015C376.9 14.3792 389.089 14.4403 397.214 18.437C409.934 24.6827 412.673 52.0487 391.425 55.911C383.886 53.4326 376.539 50.4635 369.437 47.0253Z" fill="#263238"/>
<path d="M394.735 20.1603C402.523 15.8458 400.355 7.47343 407.39 3.04892C417.177 -3.06229 438.27 -0.410017 431.676 14.868C425.082 30.146 448.55 31.026 441.735 46.2063C434.921 61.3865 415.126 70.6511 410.038 48.6507C406.235 32.1627 422.395 10.9202 409.35 13.2057C401.212 14.6235 398.499 22.507 398.499 22.507L394.735 20.1603Z" fill="#263238"/>
<path d="M375.382 84.8659C374.317 87.6404 373.162 90.1582 371.929 92.7616C370.696 95.365 369.333 97.8706 367.905 100.376C365.031 105.634 361.42 110.506 357.171 114.86C355.955 116.079 354.621 117.188 353.186 118.172C351.766 119.12 350.254 119.939 348.669 120.616C345.749 121.847 342.705 122.797 339.583 123.452C333.668 124.738 327.611 125.358 321.54 125.298C320.859 125.287 320.205 125.044 319.7 124.615C319.194 124.185 318.871 123.597 318.79 122.96C318.709 122.323 318.876 121.68 319.26 121.151C319.644 120.621 320.219 120.24 320.879 120.079H321.008C326.438 118.883 331.784 117.369 337.013 115.544C339.471 114.682 341.85 113.631 344.126 112.403C345.14 111.856 346.103 111.23 347.007 110.533C347.882 109.844 348.69 109.083 349.422 108.26C351.094 106.399 352.6 104.413 353.926 102.32C355.327 100.156 356.677 97.9195 357.923 95.585C360.39 90.9649 362.726 86.0271 364.738 81.2848V81.2114C365.272 79.8937 366.339 78.8296 367.706 78.2531C369.073 77.6767 370.627 77.6351 372.026 78.1375C373.426 78.6399 374.556 79.6453 375.168 80.9323C375.78 82.2194 375.824 83.6827 375.291 85.0004L375.382 84.8659Z" fill="#B55B52"/>
<path d="M373.694 75.8215C362.973 76.9704 357.067 92.1139 357.067 92.1139L368.048 106.683C368.048 106.683 381.028 92.835 382.157 86.6505C383.287 80.2827 381.612 74.9537 373.694 75.8215Z" fill="#263238"/>
<path opacity="0.2" d="M367.827 85.0857C371.423 82.959 375.342 84.1324 378.678 88.0803C379.368 89.2132 379.83 90.4562 380.041 91.747C376.796 97.2837 368.035 106.671 368.035 106.671L363.012 100.009C362.635 96.0737 365.504 86.3935 367.827 85.0857Z" fill="#131313"/>
<path d="M323.501 120.616L315.414 116.51L315.193 126.434C315.193 126.434 320.593 127.534 324.163 124.821L323.501 120.616Z" fill="#B55B52"/>
<path d="M307.302 116.852L308.717 124.955L315.246 126.434L315.466 116.51L307.302 116.852Z" fill="#B55B52"/>
<path d="M348.059 98.9949L340.972 93.5193L292.686 161.83L299.838 167.306C307.989 173.588 325.396 163.395 338.778 144.523C352.16 125.652 356.21 105.277 348.059 98.9949Z" fill="#F3D220"/>
<path opacity="0.1" d="M348.059 98.9949L340.972 93.5193L292.686 161.83L299.838 167.306C307.989 173.588 325.396 163.395 338.778 144.523C352.16 125.652 356.21 105.277 348.059 98.9949Z" fill="#131313"/>
<path d="M332.85 137.219C345.732 118.046 349.005 98.232 340.16 92.9628C331.315 87.6937 313.702 98.9648 300.821 118.138C287.939 137.31 284.666 157.124 293.511 162.393C302.356 167.663 319.969 156.391 332.85 137.219Z" fill="#F3D220"/>
<path d="M307.873 138.877L314.363 129.661C313.703 127.771 313.672 125.738 314.272 123.831C315.015 121.427 316.168 119.152 317.686 117.096C319.054 115.019 320.845 113.216 322.955 111.792C324.76 110.667 326.304 110.398 327.563 110.985L329.147 108.76L330.523 109.824L328.965 112.061C329.388 112.683 329.671 113.381 329.796 114.11C329.921 114.84 329.885 115.586 329.692 116.302C329.187 118.459 328.31 120.523 327.096 122.413L324.176 121.289C325.084 119.985 325.538 118.447 325.474 116.888L319.386 125.444C320.224 127.383 320.397 129.52 319.879 131.555C318.225 136.441 315.062 140.752 310.793 143.937C308.82 145.224 307.068 145.595 305.536 145.049L303.966 147.273L302.59 146.21L304.083 144.096C303.618 143.369 303.319 142.558 303.205 141.717C303.091 140.875 303.164 140.02 303.421 139.207C304.123 136.481 305.279 133.878 306.847 131.494L309.833 132.839C309.171 133.938 308.64 135.102 308.249 136.31C307.967 137.139 307.84 138.007 307.873 138.877ZM324.202 115.727C323.478 115.794 322.796 116.077 322.255 116.534C320.749 117.707 319.635 119.264 319.049 121.02C318.781 121.766 318.705 122.562 318.828 123.342L324.202 115.727ZM309.041 140.172C309.44 140.229 309.847 140.202 310.233 140.092C310.62 139.982 310.975 139.792 311.273 139.537C313.13 138.176 314.49 136.305 315.167 134.183C315.427 133.333 315.404 132.429 315.103 131.592L309.041 140.172Z" fill="white"/>
<path opacity="0.1" d="M338.843 116.192C339.803 110.203 338.843 105.399 335.831 103.04C329.199 97.9193 315.063 106.231 304.147 121.594C299.559 127.922 296.172 134.953 294.14 142.372C295.256 135.357 298.955 126.715 304.809 118.416C315.673 103.053 329.861 94.7537 336.493 99.8626C340.076 102.613 340.725 108.736 338.843 116.192Z" fill="#131313"/>
<path d="M432.948 344.054L422.045 345.032L416.489 321.113L427.392 320.135L432.948 344.054Z" fill="#B55B52"/>
<path d="M493.681 329.265L483.544 333.005L473.77 310.32L483.907 306.58L493.681 329.265Z" fill="#B55B52"/>
<path d="M480.598 328.312L491.709 323.105C491.9 323.016 492.119 322.994 492.326 323.043C492.533 323.092 492.715 323.21 492.838 323.374L498.471 331.062C498.614 331.261 498.709 331.486 498.751 331.723C498.793 331.96 498.78 332.203 498.714 332.435C498.647 332.667 498.529 332.882 498.366 333.067C498.203 333.252 498 333.402 497.77 333.506C493.876 335.266 492.163 336.134 487.269 338.395C484.258 339.801 477.547 343.113 473.394 345.056C469.24 347 466.982 343.235 468.526 342.074C475.445 336.88 477.729 332.956 479.248 329.668C479.515 329.081 479.993 328.601 480.598 328.312Z" fill="#263238"/>
<path d="M419.916 339.703H433.026C433.26 339.704 433.488 339.777 433.673 339.912C433.858 340.047 433.991 340.235 434.051 340.448L436.907 350.227C436.978 350.457 436.991 350.701 436.944 350.937C436.897 351.173 436.791 351.395 436.636 351.586C436.48 351.777 436.279 351.93 436.049 352.033C435.819 352.137 435.565 352.188 435.31 352.182C430.728 352.109 428.535 352.182 422.772 352.182H405.171C400.381 352.182 399.33 347.611 401.277 347.208C410.168 345.35 415.295 342.795 418.034 340.363C418.546 339.921 419.221 339.684 419.916 339.703Z" fill="#263238"/>
<path opacity="0.2" d="M416.502 321.125L419.358 333.445H430.494L427.405 320.135L416.502 321.125Z" fill="#131313"/>
<path opacity="0.2" d="M483.907 306.593L473.77 310.333L478.819 322.017L488.944 318.277L483.907 306.593Z" fill="#131313"/>
<path d="M406.975 65.4933C415.645 64.5522 421.253 68.4389 421.642 76.5913C422.784 105.326 426.159 111.938 431.26 126.801L388.024 138.131C372.656 106.793 367.256 92.0159 365.543 85.0614C365.186 83.4451 365.402 81.7634 366.157 80.2734C366.911 78.7835 368.164 77.5675 369.722 76.8113C381.231 70.7746 393.889 66.929 406.975 65.4933Z" fill="#263238"/>
<path d="M393.826 46.231C394.345 52.5011 396.072 63.3423 401.614 66.2146C401.614 66.2146 400.797 70.0891 386.467 83.0082C377.627 75.9925 382.144 71.2869 382.144 71.2869C388.725 67.8524 387.18 63.379 384.584 59.0645L393.826 46.231Z" fill="#B55B52"/>
<path opacity="0.2" d="M392.827 47.6362C393.773 51.1996 393.905 54.9112 393.216 58.5264C392.723 60.9709 389.893 62.8287 386.726 63.8921C386.294 62.1941 385.585 60.5695 384.624 59.0764L392.827 47.6362Z" fill="#131313"/>
<path d="M396.37 34.3872C398.486 44.5196 399.615 48.7608 395.695 55.1653C389.789 64.8455 376.108 65.09 370.812 55.752C366.049 47.3552 363.375 32.1994 372.643 25.6726C374.681 24.2264 377.078 23.2949 379.606 22.9669C382.134 22.6388 384.71 22.925 387.087 23.7983C389.465 24.6716 391.566 26.1029 393.191 27.9563C394.816 29.8096 395.91 32.0234 396.37 34.3872Z" fill="#B55B52"/>
<path d="M401.991 40.5596C402.149 41.5365 402.099 42.5333 401.845 43.4921C401.591 44.4509 401.138 45.3527 400.511 46.1452C398.823 48.2596 396.279 47.233 395.319 44.923C394.462 42.8208 394.294 39.1785 396.682 37.9074C397.204 37.6375 397.79 37.4942 398.386 37.4903C398.982 37.4864 399.569 37.6221 400.096 37.8851C400.622 38.1481 401.071 38.5302 401.402 38.9971C401.733 39.464 401.935 40.0009 401.991 40.5596Z" fill="#B55B52"/>
<path d="M386.934 29.0218C386.531 32.8963 389.828 39.5208 396.02 41.0608C402.432 34.1185 398.2 24.5974 392.308 24.4018C386.415 24.2062 386.934 29.0218 386.934 29.0218Z" fill="#263238"/>
<path d="M378.289 18.4615C368.827 18.8648 358.677 22.8371 362.194 36.795C370.449 35.1695 393.424 32.7494 395.189 27.2005C392.866 20.0749 384.494 18.1926 378.289 18.4615Z" fill="#263238"/>
<path d="M388.024 138.131C388.024 138.131 385.506 220.363 392.528 251.396C399.81 283.688 416.256 329.839 416.256 329.839L431.702 328.898C431.702 328.898 421.72 268.556 418.722 243.659C414.49 209.339 419.747 129.808 419.747 129.808L388.024 138.131Z" fill="#009966"/>
<path opacity="0.2" d="M409.778 163.847C410.479 156.391 416.45 157.821 417.787 167.917C417.203 183.806 416.788 202.25 417.125 218.396C410.687 206.552 408.182 180.812 409.778 163.847Z" fill="#131313"/>
<path d="M433.662 329.84L415.062 331.026L412.479 322.812L432.611 320.807L433.662 329.84Z" fill="#263238"/>
<path d="M403.276 134.134C403.276 134.134 416.438 203.069 434.311 240.164C448.745 270.121 474.899 318.387 474.899 318.387L489.087 313.388C489.087 313.388 466.904 258.595 458.882 237.524C438.906 184.967 449.796 153.067 431.261 126.801L403.276 134.134Z" fill="#009966"/>
<path d="M490.76 314.66L474.393 320.025L469.733 312.129L489.216 307.583L490.76 314.66Z" fill="#263238"/>
<path d="M431.195 124.283L434.233 127.424C434.466 127.669 434.233 128.048 433.688 128.17L388.348 140.062C387.959 140.16 387.583 140.062 387.492 139.842L386.025 136.298C385.921 136.053 386.194 135.748 386.622 135.638L430.404 124.161C430.535 124.113 430.678 124.099 430.817 124.121C430.956 124.142 431.087 124.198 431.195 124.283Z" fill="#263238"/>
<path d="M426.679 130.394L427.86 130.077C428.094 130.016 428.236 129.857 428.171 129.722L426.224 125.139C426.224 125.004 425.939 124.943 425.705 125.004L424.524 125.31C424.29 125.31 424.148 125.53 424.2 125.664L426.16 130.26C426.212 130.394 426.445 130.456 426.679 130.394Z" fill="#009966"/>
<path d="M391.762 139.537L392.943 139.231C393.164 139.231 393.32 139.011 393.255 138.877L391.308 134.293C391.308 134.159 391.009 134.098 390.776 134.159L389.608 134.464C389.374 134.464 389.231 134.684 389.283 134.819L391.23 139.414C391.295 139.549 391.529 139.598 391.762 139.537Z" fill="#009966"/>
<path d="M409.22 134.966L410.401 134.66C410.635 134.599 410.778 134.44 410.713 134.305L408.766 129.71C408.766 129.575 408.467 129.514 408.234 129.575L407.066 129.881C406.832 129.881 406.689 130.113 406.741 130.248L408.701 134.831C408.753 134.966 408.987 135.027 409.22 134.966Z" fill="#009966"/>
<path d="M381.08 41.1707C381.301 41.9896 381.08 42.7595 380.47 42.894C379.86 43.0284 379.263 42.4907 379.042 41.6718C378.821 40.853 379.042 40.0952 379.652 39.9486C380.262 39.8019 380.859 40.3274 381.08 41.1707Z" fill="#263238"/>
<path d="M371.332 43.5421C371.566 44.3487 371.332 45.1187 370.722 45.2654C370.112 45.4121 369.515 44.8498 369.294 44.0432C369.073 43.2365 369.294 42.4543 369.904 42.3199C370.514 42.1854 371.111 42.7232 371.332 43.5421Z" fill="#263238"/>
<path d="M370.163 42.3077L367.944 42.2466C367.944 42.2466 369.423 43.5174 370.163 42.3077Z" fill="#263238"/>
<path d="M374.304 44.2996C374.05 46.3406 373.5 48.3393 372.669 50.2397C373.19 50.4275 373.748 50.5052 374.304 50.4672C374.861 50.4291 375.401 50.2764 375.888 50.0197L374.304 44.2996Z" fill="#A02724"/>
<path d="M379.704 52.4764C379.654 52.4682 379.608 52.4465 379.571 52.4139C379.534 52.3813 379.508 52.3393 379.496 52.293C379.487 52.2625 379.484 52.2305 379.488 52.1988C379.492 52.1672 379.502 52.1367 379.519 52.1092C379.536 52.0817 379.559 52.0578 379.587 52.0389C379.614 52.0201 379.645 52.0067 379.678 51.9997C380.757 51.759 381.761 51.2815 382.607 50.606C383.453 49.9306 384.117 49.0764 384.545 48.1131C384.556 48.0813 384.573 48.0518 384.595 48.0263C384.618 48.0009 384.646 47.9801 384.678 47.9653C384.709 47.9504 384.744 47.9417 384.779 47.9398C384.814 47.938 384.85 47.9429 384.883 47.9543C384.946 47.9764 384.999 48.02 385.03 48.0764C385.061 48.1329 385.069 48.1982 385.052 48.2598C384.604 49.3006 383.9 50.2259 382.997 50.9592C382.094 51.6925 381.019 52.2126 379.86 52.4764C379.809 52.4906 379.755 52.4906 379.704 52.4764Z" fill="#263238"/>
<path d="M382.988 37.5041C382.896 37.4929 382.809 37.4544 382.742 37.3941C382.238 36.9968 381.64 36.7185 380.999 36.5825C380.358 36.4464 379.691 36.4565 379.055 36.6119C378.923 36.6507 378.779 36.6392 378.656 36.5798C378.532 36.5205 378.438 36.4179 378.393 36.2941C378.369 36.2333 378.358 36.1684 378.361 36.1034C378.365 36.0385 378.382 35.9749 378.413 35.9165C378.443 35.8581 378.486 35.8062 378.538 35.7639C378.591 35.7217 378.652 35.69 378.718 35.6708C379.521 35.4655 380.364 35.445 381.178 35.6109C381.991 35.7768 382.75 36.1243 383.391 36.6241C383.477 36.6936 383.538 36.7874 383.564 36.8918C383.59 36.9962 383.58 37.1057 383.535 37.2041C383.49 37.3026 383.412 37.3849 383.314 37.4389C383.216 37.4929 383.101 37.5158 382.988 37.5041Z" fill="#263238"/>
<path d="M365.53 40.4131H365.426C365.361 40.3924 365.301 40.3599 365.25 40.3173C365.198 40.2748 365.156 40.223 365.126 40.165C365.096 40.1071 365.078 40.0441 365.074 39.9797C365.07 39.9153 365.079 39.8507 365.101 39.7897C365.354 39.0431 365.794 38.3647 366.384 37.8117C366.973 37.2586 367.695 36.8471 368.489 36.6118C368.556 36.5953 368.625 36.5914 368.693 36.6004C368.761 36.6093 368.827 36.6309 368.886 36.6639C368.945 36.6968 368.997 36.7406 369.038 36.7925C369.079 36.8444 369.109 36.9035 369.125 36.9663C369.157 37.0943 369.133 37.2287 369.06 37.3407C368.988 37.4527 368.871 37.5333 368.736 37.5652C368.119 37.7636 367.562 38.0978 367.11 38.54C366.659 38.9822 366.326 39.5196 366.14 40.1075C366.096 40.2201 366.009 40.3134 365.897 40.3697C365.784 40.4261 365.654 40.4415 365.53 40.4131Z" fill="#263238"/>
<path d="M416.333 84.7312C412.959 91.2824 409.454 97.7114 405.755 104.104C403.912 107.306 402.068 110.508 400.109 113.662C398.149 116.815 396.214 119.981 393.891 123.146C393.359 123.928 392.697 124.76 392.074 125.591L391.84 125.884L391.723 126.043L391.529 126.275C391.256 126.593 390.984 126.862 390.711 127.131C390.215 127.604 389.681 128.042 389.114 128.439C387.245 129.726 385.214 130.789 383.066 131.604C379.276 133.045 375.369 134.198 371.384 135.051C363.754 136.712 356.006 137.851 348.202 138.461L347.319 133.254C350.94 132.35 354.627 131.396 358.248 130.406C361.869 129.416 365.465 128.365 368.97 127.216C372.382 126.134 375.716 124.844 378.951 123.354C380.315 122.721 381.599 121.946 382.78 121.044C382.974 120.893 383.152 120.725 383.312 120.543C383.359 120.488 383.403 120.431 383.442 120.372L383.728 119.956C384.182 119.284 384.649 118.648 385.117 117.891C386.96 114.969 388.777 111.841 390.542 108.712L395.799 99.2148L406.183 80.05L416.333 84.7312Z" fill="#B55B52"/>
<path d="M350.875 133.303L343.23 130.541L343.879 140.698C343.879 140.698 349.889 140.698 352.666 137.214L350.875 133.303Z" fill="#B55B52"/>
<path d="M337.22 130.834L335.585 138.302L343.879 140.698L343.23 130.541L337.22 130.834Z" fill="#B55B52"/>
<path d="M406.923 70.7489C402.653 72.5945 397.694 89.3025 397.694 89.3025L416.191 91.2825C416.191 91.2825 419.773 83.1668 419.046 78.999C417.956 72.3378 411.791 68.6467 406.923 70.7489Z" fill="#263238"/>
<path d="M475.068 331.294C474.996 331.179 474.94 331.056 474.899 330.928C474.839 330.791 474.819 330.641 474.842 330.495C474.865 330.349 474.93 330.211 475.029 330.096C475.925 329.07 479.897 329.485 480.338 329.534C480.389 329.537 480.438 329.556 480.477 329.586C480.517 329.617 480.545 329.659 480.559 329.705C480.575 329.75 480.577 329.799 480.563 329.845C480.549 329.891 480.52 329.932 480.481 329.962C479.351 330.854 477.249 332.284 475.899 331.918C475.721 331.875 475.556 331.797 475.412 331.69C475.269 331.582 475.152 331.447 475.068 331.294ZM479.65 329.962C478.053 329.84 475.912 329.864 475.431 330.402C475.395 330.459 475.375 330.525 475.375 330.591C475.375 330.658 475.395 330.724 475.431 330.781C475.469 330.936 475.549 331.079 475.663 331.197C475.776 331.315 475.92 331.403 476.08 331.453C476.794 331.649 478.118 331.099 479.676 329.962H479.65Z" fill="#009966"/>
<path d="M476.041 327.921C475.991 327.831 475.952 327.737 475.925 327.64C475.871 327.45 475.886 327.25 475.969 327.07C476.051 326.89 476.196 326.742 476.379 326.65C476.548 326.546 476.739 326.478 476.938 326.45C477.137 326.423 477.341 326.437 477.534 326.491C479.079 326.882 480.507 329.558 480.572 329.668C480.594 329.706 480.606 329.748 480.606 329.791C480.606 329.834 480.594 329.876 480.572 329.913C480.545 329.948 480.51 329.977 480.47 329.996C480.429 330.015 480.384 330.024 480.338 330.023C478.686 329.824 477.164 329.079 476.041 327.921ZM479.819 329.399C479.287 328.52 478.3 327.187 477.391 326.955C477.272 326.919 477.146 326.909 477.022 326.926C476.899 326.943 476.781 326.986 476.678 327.053C476.392 327.224 476.392 327.383 476.431 327.493C476.626 328.202 478.547 329.192 479.858 329.448L479.819 329.399Z" fill="#009966"/>
<path d="M414.062 341.732C413.154 341.801 412.246 341.601 411.466 341.158C411.261 341.018 411.094 340.834 410.979 340.622C410.863 340.409 410.804 340.174 410.804 339.935C410.786 339.806 410.807 339.674 410.864 339.556C410.922 339.437 411.013 339.335 411.129 339.263C412.31 338.505 416.775 340.412 417.619 340.803C417.67 340.826 417.712 340.862 417.74 340.908C417.768 340.954 417.78 341.007 417.774 341.06C417.767 341.111 417.743 341.158 417.706 341.195C417.669 341.233 417.62 341.258 417.567 341.268C416.419 341.538 415.244 341.694 414.062 341.732ZM411.972 339.605C411.792 339.595 411.612 339.633 411.453 339.715C411.453 339.715 411.349 339.801 411.362 339.948C411.366 340.108 411.409 340.265 411.488 340.407C411.566 340.549 411.679 340.672 411.817 340.767C412.583 341.317 414.413 341.39 416.749 340.974C415.253 340.293 413.656 339.831 412.011 339.605H411.972Z" fill="#009966"/>
<path d="M417.631 341.317H417.527C416.048 340.754 413.062 338.493 413.231 337.332C413.231 337.075 413.452 336.758 414.127 336.684C416.723 336.391 417.839 340.852 417.891 341.036C417.899 341.08 417.895 341.126 417.879 341.169C417.863 341.211 417.836 341.25 417.8 341.28C417.749 341.309 417.69 341.322 417.631 341.317ZM414.373 337.136H414.192C413.919 337.136 413.776 337.247 413.75 337.369C413.659 338.041 415.723 339.813 417.229 340.596C416.878 339.532 415.944 337.136 414.373 337.136Z" fill="#009966"/>
<path d="M379.912 39.9487H377.679C377.679 39.9487 379.172 41.1704 379.912 39.9487Z" fill="#263238"/>
<path d="M385.013 352.194H456.039C456.528 352.194 456.997 352.377 457.343 352.702C457.688 353.028 457.883 353.469 457.883 353.93V359.577H383.183V353.93C383.183 353.472 383.375 353.032 383.718 352.707C384.061 352.382 384.526 352.197 385.013 352.194Z" fill="#263238"/>
<path d="M458.518 378.265H383.818V385.635H458.518V378.265Z" fill="#263238"/>
<path opacity="0.5" d="M458.518 378.265H409.129V385.635H458.518V378.265Z" fill="#131313"/>
<path d="M416.32 359.565L407.922 409.066C407.852 409.473 407.631 409.843 407.298 410.111C406.966 410.38 406.543 410.529 406.105 410.532H401.99C401.724 410.532 401.462 410.477 401.22 410.372C400.979 410.267 400.765 410.114 400.592 409.923C400.42 409.733 400.293 409.51 400.22 409.269C400.148 409.028 400.132 408.775 400.173 408.528L408.493 359.516L416.32 359.565Z" fill="#263238"/>
<path opacity="0.5" d="M416.321 359.565L415.685 363.329H407.845L408.494 359.565H416.321Z" fill="#131313"/>
<path d="M391.01 359.565L382.612 409.066C382.541 409.473 382.32 409.843 381.988 410.111C381.655 410.38 381.232 410.529 380.794 410.532H376.68C376.414 410.532 376.151 410.477 375.91 410.372C375.669 410.267 375.454 410.114 375.282 409.923C375.109 409.733 374.982 409.51 374.91 409.269C374.838 409.028 374.821 408.775 374.863 408.528L383.183 359.516L391.01 359.565Z" fill="#263238"/>
<path d="M466.189 408.577L457.882 359.565H450.094L458.453 409.066C458.521 409.474 458.742 409.846 459.075 410.114C459.408 410.383 459.832 410.531 460.271 410.532H464.372C464.633 410.531 464.891 410.477 465.128 410.375C465.365 410.273 465.577 410.124 465.748 409.94C465.92 409.755 466.048 409.538 466.124 409.303C466.2 409.068 466.223 408.82 466.189 408.577Z" fill="#263238"/>
<path opacity="0.5" d="M458.518 363.329L457.882 359.565H450.042L450.678 363.329H458.518Z" fill="#131313"/>
<path d="M440.879 408.577L432.572 359.565H424.784L433.143 409.066C433.211 409.474 433.431 409.846 433.764 410.114C434.097 410.383 434.521 410.531 434.96 410.532H439.062C439.322 410.531 439.58 410.477 439.817 410.375C440.054 410.273 440.266 410.124 440.438 409.94C440.609 409.755 440.738 409.538 440.814 409.303C440.89 409.068 440.912 408.82 440.879 408.577Z" fill="#263238"/>
<path opacity="0.5" d="M440.879 408.577L432.572 359.565H424.784L433.143 409.066C433.211 409.474 433.431 409.846 433.764 410.114C434.097 410.383 434.521 410.531 434.96 410.532H439.062C439.322 410.531 439.58 410.477 439.817 410.375C440.054 410.273 440.266 410.124 440.438 409.94C440.609 409.755 440.738 409.538 440.814 409.303C440.89 409.068 440.912 408.82 440.879 408.577Z" fill="#131313"/>
<path opacity="0.5" d="M408.494 352.194H456.039C456.528 352.194 456.997 352.377 457.343 352.702C457.688 353.028 457.883 353.469 457.883 353.93V359.577H408.559V352.243L408.494 352.194Z" fill="#131313"/>
<path d="M189.223 403.846L199.62 385.88L162.432 355.189L159.524 403.846H189.223Z" fill="#008CAB"/>
<path opacity="0.1" d="M189.223 403.846L199.62 385.88L162.432 355.189L159.524 403.846H189.223Z" fill="#131313"/>
<path d="M317.387 199.109C338.246 185.664 355.717 187.045 361.519 190.968C367.321 194.892 348.89 224.69 348.89 224.69C341.997 222.805 335.616 219.544 330.18 215.13C324.744 210.716 320.381 205.252 317.387 199.109Z" fill="#008CAB"/>
<path opacity="0.2" d="M327.317 212.614C339.064 201.749 351.044 198.265 354.289 200.086C357.534 201.907 347.111 222.857 347.111 222.857C347.111 222.857 333.028 224.763 327.317 212.614Z" fill="#131313"/>
<path d="M136.147 241.251L134.966 240.689C138.227 234.647 142.063 228.895 146.427 223.505L147.479 224.262C143.17 229.595 139.377 235.281 136.147 241.251Z" fill="#008CAB"/>
<path d="M129.969 255.063L128.671 254.659C129.657 251.934 130.774 249.208 131.994 246.568L133.214 247.069C132.046 249.661 130.942 252.349 129.969 255.063Z" fill="#008CAB"/>
<path d="M372.669 288.98C372.669 349.664 324.15 398.847 254.11 398.847C184.069 398.847 127.295 349.664 127.295 288.98C127.295 228.296 184.069 179.113 254.11 179.113C324.15 179.113 372.669 228.296 372.669 288.98Z" fill="#008CAB"/>
<path opacity="0.1" d="M237.209 387.211L232.134 397.209C235.803 397.772 239.529 398.179 243.31 398.432L237.209 387.211Z" fill="#131313"/>
<path d="M229.525 410.581L244.115 385.879L197.452 369.819L191.481 410.581H229.525Z" fill="#008CAB"/>
<path d="M297.489 410.581L284.846 385.879L329.277 369.819L332.223 410.581H297.489Z" fill="#008CAB"/>
<path opacity="0.2" d="M329.406 304.857C329.406 321.284 313.986 334.594 295.022 334.594C276.058 334.594 260.703 321.284 260.703 304.857C260.703 288.43 276.071 275.12 295.022 275.12C313.973 275.12 329.406 288.43 329.406 304.857Z" fill="#131313"/>
<path opacity="0.2" d="M283.626 314.586C286.845 314.586 289.454 310.011 289.454 304.368C289.454 298.725 286.845 294.15 283.626 294.15C280.407 294.15 277.798 298.725 277.798 304.368C277.798 310.011 280.407 314.586 283.626 314.586Z" fill="#131313"/>
<path opacity="0.4" d="M241.947 249.392C243.622 254.195 242.077 259.439 238.508 261.089C234.938 262.739 230.72 260.172 229.006 255.369C227.293 250.565 228.863 245.322 232.433 243.672C236.002 242.022 240.273 244.576 241.947 249.392Z" fill="#131313"/>
<path opacity="0.4" d="M332.288 249.612C330.99 254.415 332.587 259.597 335.806 261.174C339.025 262.751 342.659 260.135 343.931 255.319C345.203 250.504 343.633 245.334 340.413 243.757C337.194 242.18 333.586 244.796 332.288 249.612Z" fill="#131313"/>
<path opacity="0.2" d="M314.635 314.586C317.854 314.586 320.463 310.011 320.463 304.368C320.463 298.725 317.854 294.15 314.635 294.15C311.416 294.15 308.807 298.725 308.807 304.368C308.807 310.011 311.416 314.586 314.635 314.586Z" fill="#131313"/>
<path d="M217.039 198.106C194.441 180.482 174.205 179.113 167.222 182.315C160.238 185.517 178.397 220.07 178.397 220.07C178.397 220.07 203.189 218.701 217.039 198.106Z" fill="#008CAB"/>
<path opacity="0.2" d="M204.318 210.793C191.922 197.349 178.527 191.751 174.62 193.144C170.713 194.538 180.617 218.396 180.617 218.396C180.617 218.396 196.582 222.722 204.318 210.793Z" fill="#131313"/>
<path opacity="0.4" d="M262.676 188.671H281.77C281.77 188.671 277.616 184.368 263.52 183.061C255.537 182.45 247.503 182.861 239.637 184.283C239.637 184.283 255.368 183.953 262.676 188.671Z" fill="#131313"/>
</svg>
